SplineFontDB: 3.0
FontName: Radley-Regular
FullName: Radley
FamilyName: Radley
Weight: Book
Copyright: Copyright (c) 2011 by vernon adams (vern@newtypography.co.uk), with Reserved Font Names "Radley"
Version: 1.002
ItalicAngle: 0
UnderlinePosition: -205
UnderlineWidth: 102
Ascent: 1638
Descent: 410
sfntRevision: 0x00010083
LayerCount: 2
Layer: 0 1 "Back"  1
Layer: 1 1 "Fore"  0
XUID: [1021 288 713564382 10817383]
FSType: 0
OS2Version: 4
OS2_WeightWidthSlopeOnly: 0
OS2_UseTypoMetrics: 1
CreationTime: 1313747145
ModificationTime: 1315155423
PfmFamily: 17
TTFWeight: 400
TTFWidth: 5
LineGap: 0
VLineGap: 0
Panose: 2 0 5 3 0 0 0 2 0 3
OS2TypoAscent: 314
OS2TypoAOffset: 1
OS2TypoDescent: -205
OS2TypoDOffset: 1
OS2TypoLinegap: 0
OS2WinAscent: 0
OS2WinAOffset: 1
OS2WinDescent: 0
OS2WinDOffset: 1
HheadAscent: 0
HheadAOffset: 1
HheadDescent: 0
HheadDOffset: 1
OS2SubXSize: 1331
OS2SubYSize: 1228
OS2SubXOff: 0
OS2SubYOff: 153
OS2SupXSize: 1331
OS2SupYSize: 1228
OS2SupXOff: 0
OS2SupYOff: 716
OS2StrikeYSize: 102
OS2StrikeYPos: 539
OS2Vendor: 'newt'
OS2CodePages: 00000001.00000000
OS2UnicodeRanges: 00000007.00000000.00000000.00000000
Lookup: 4 0 1 "'liga' Standard Ligatures lookup 0"  {"'liga' Standard Ligatures lookup 0 subtable"  } ['liga' ('DFLT' <'dflt' > ) ]
Lookup: 258 0 0 "'kern' Horizontal Kerning lookup 0"  {"'kern' Horizontal Kerning lookup 0 subtable"  } ['kern' ('DFLT' <'dflt' > ) ]
MarkAttachClasses: 1
DEI: 91125
KernClass2: 2+ 2 "'kern' Horizontal Kerning lookup 0 subtable" 
 1 T
 5 V W Y
 288 a c d e o q agrave aacute acircumflex atilde adieresis aring ae ccedilla egrave eacute ecircumflex edieresis eth ograve oacute ocircumflex otilde odieresis oslash amacron abreve aogonek cacute cdotaccent ccaron dcaron dcroat emacron eogonek ecaron omacron obreve ohungarumlaut oe c_k.liga
 0 {} -184 {} 0 {} -162 {}
TtTable: prep
PUSHW_1
 511
SCANCTRL
PUSHB_1
 4
SCANTYPE
EndTTInstrs
ShortTable: maxp 16
  1
  0
  349
  106
  5
  97
  4
  2
  0
  1
  1
  0
  64
  0
  2
  2
EndShort

StartChar: exclam
Encoding: 33 33 4
Width: 567
GlyphClass: 2
Flags: W
LayerCount: 2
Fore
SplineSet
283 356 m 0,0,1
 248 356 248 356 248 450 c 1,2,3
 241 506 241 506 214 674 c 0,4,5
 153 1054 153 1054 153 1201 c 0,6,7
 153 1312 153 1312 279 1312 c 0,8,9
 337 1312 337 1312 373 1284 c 128,-1,10
 409 1256 409 1256 409 1197 c 128,-1,11
 409 1138 409 1138 397 1028.5 c 128,-1,12
 385 919 385 919 374 841.5 c 128,-1,13
 363 764 363 764 341.5 625 c 128,-1,14
 320 486 320 486 318 474.5 c 128,-1,15
 316 463 316 463 315 448 c 128,-1,16
 314 433 314 433 312 419 c 128,-1,17
 310 405 310 405 306 390 c 0,18,19
 299 356 299 356 283 356 c 0,0,1
197.5 6.5 m 128,-1,21
 162 42 162 42 162 92.5 c 128,-1,22
 162 143 162 143 197 179.5 c 128,-1,23
 232 216 232 216 283 216 c 128,-1,24
 334 216 334 216 370.5 179.5 c 128,-1,25
 407 143 407 143 407 92 c 128,-1,26
 407 41 407 41 370.5 6 c 128,-1,27
 334 -29 334 -29 283.5 -29 c 128,-1,20
 233 -29 233 -29 197.5 6.5 c 128,-1,21
EndSplineSet
EndChar

StartChar: quotedbl
Encoding: 34 34 5
Width: 748
GlyphClass: 2
Flags: W
LayerCount: 2
Fore
SplineSet
520 753 m 0,0,1
 519 753 519 753 507.5 780 c 128,-1,2
 496 807 496 807 463 978 c 128,-1,3
 430 1149 430 1149 430 1198.5 c 128,-1,4
 430 1248 430 1248 457 1275 c 128,-1,5
 484 1302 484 1302 532 1302 c 128,-1,6
 580 1302 580 1302 607 1275 c 128,-1,7
 634 1248 634 1248 634 1211 c 128,-1,8
 634 1174 634 1174 619 1070.5 c 128,-1,9
 604 967 604 967 575.5 860 c 128,-1,10
 547 753 547 753 520 753 c 0,0,1
203 753 m 1,11,12
 180 803 180 803 146.5 976.5 c 128,-1,13
 113 1150 113 1150 113 1199 c 128,-1,14
 113 1248 113 1248 140 1275 c 128,-1,15
 167 1302 167 1302 215 1302 c 128,-1,16
 263 1302 263 1302 290 1275 c 128,-1,17
 317 1248 317 1248 317 1179.5 c 128,-1,18
 317 1111 317 1111 278 931.5 c 128,-1,19
 239 752 239 752 203 753 c 1,11,12
EndSplineSet
EndChar

StartChar: numbersign
Encoding: 35 35 6
Width: 1136
GlyphClass: 2
Flags: W
LayerCount: 2
Fore
SplineSet
884 384 m 1,0,-1
 760 390 l 1,1,2
 726 255 726 255 691 82.5 c 128,-1,3
 656 -90 656 -90 643 -149 c 0,4,5
 623 -239 623 -239 551 -239 c 0,6,7
 523 -239 523 -239 504.5 -209 c 128,-1,8
 486 -179 486 -179 486 -155.5 c 128,-1,9
 486 -132 486 -132 519 -18 c 0,10,11
 624 342 624 342 643 390 c 1,12,-1
 370 390 l 1,13,14
 344 285 344 285 302.5 88 c 128,-1,15
 261 -109 261 -109 252 -150.5 c 128,-1,16
 243 -192 243 -192 224.5 -215.5 c 128,-1,17
 206 -239 206 -239 173.5 -239 c 128,-1,18
 141 -239 141 -239 122.5 -209 c 128,-1,19
 104 -179 104 -179 104 -158.5 c 128,-1,20
 104 -138 104 -138 117 -86 c 128,-1,21
 130 -34 130 -34 151 40 c 128,-1,22
 172 114 172 114 191 180.5 c 128,-1,23
 210 247 210 247 229.5 313 c 128,-1,24
 249 379 249 379 252 390 c 1,25,-1
 176 387 l 1,26,27
 67 387 67 387 67 445.5 c 128,-1,28
 67 504 67 504 195 504 c 1,29,-1
 283 501 l 1,30,-1
 331 674 l 1,31,-1
 240 670 l 1,32,33
 122 670 122 670 122 729.5 c 128,-1,34
 122 789 122 789 260 789 c 1,35,-1
 362 785 l 1,36,37
 371 816 371 816 392 887.5 c 128,-1,38
 413 959 413 959 424 998.5 c 128,-1,39
 435 1038 435 1038 450 1098 c 0,40,41
 478 1208 478 1208 490 1316 c 0,42,43
 493 1340 493 1340 519.5 1351 c 128,-1,44
 546 1362 546 1362 581 1362 c 128,-1,45
 616 1362 616 1362 628.5 1343 c 128,-1,46
 641 1324 641 1324 641 1295 c 128,-1,47
 641 1266 641 1266 604.5 1156.5 c 128,-1,48
 568 1047 568 1047 525.5 924 c 128,-1,49
 483 801 483 801 478 785 c 1,50,-1
 747 785 l 1,51,52
 829 1102 829 1102 855 1275 c 0,53,54
 862 1322 862 1322 880.5 1342 c 128,-1,55
 899 1362 899 1362 946 1362 c 0,56,57
 1023 1362 1023 1362 1023 1280 c 0,58,59
 1023 1250 1023 1250 947.5 1021.5 c 128,-1,60
 872 793 872 793 869 785 c 1,61,-1
 949 787 l 1,62,63
 1075 787 1075 787 1075 732 c 0,64,65
 1075 669 1075 669 944 669 c 1,66,-1
 836 674 l 1,67,-1
 788 501 l 1,68,-1
 878 504 l 1,69,70
 1021 504 1021 504 1021 441 c 0,71,72
 1021 384 1021 384 884 384 c 1,0,-1
719 674 m 1,73,-1
 445 674 l 1,74,-1
 398 501 l 1,75,-1
 674 501 l 1,76,-1
 719 674 l 1,73,-1
EndSplineSet
EndChar

StartChar: dollar
Encoding: 36 36 7
Width: 1072
GlyphClass: 2
Flags: W
LayerCount: 2
Fore
SplineSet
439 -141 m 1,0,-1
 441 -26 l 1,1,2
 225 -13 225 -13 73 80 c 1,3,-1
 94 366 l 1,4,5
 112 371 112 371 115 371 c 0,6,7
 146 371 146 371 158.5 282 c 128,-1,8
 171 193 171 193 253 129.5 c 128,-1,9
 335 66 335 66 449 45 c 1,10,-1
 449 502 l 1,11,-1
 310 581 l 1,12,13
 95 702 95 702 95 886 c 0,14,15
 95 1062 95 1062 248 1144 c 0,16,17
 336 1192 336 1192 460 1200 c 1,18,19
 459 1232 459 1232 459 1297.5 c 128,-1,20
 459 1363 459 1363 468.5 1392.5 c 128,-1,21
 478 1422 478 1422 504 1422 c 128,-1,22
 530 1422 530 1422 541 1393 c 128,-1,23
 552 1364 552 1364 552 1295 c 128,-1,24
 552 1226 552 1226 551 1201 c 1,25,26
 705 1193 705 1193 831 1138 c 1,27,-1
 861 881 l 1,28,29
 841 876 841 876 828.5 876 c 128,-1,30
 816 876 816 876 799.5 904 c 128,-1,31
 783 932 783 932 777 961 c 0,32,33
 761 1035 761 1035 699 1079 c 128,-1,34
 637 1123 637 1123 550 1136 c 1,35,36
 545 988 545 988 541 732 c 1,37,-1
 695 641 l 2,38,39
 834 559 834 559 882.5 491 c 128,-1,40
 931 423 931 423 931 328 c 128,-1,41
 931 233 931 233 899.5 166.5 c 128,-1,42
 868 100 868 100 812 60 c 0,43,44
 702 -19 702 -19 536 -27 c 1,45,-1
 536 -125 l 2,46,47
 536 -179 536 -179 520 -203.5 c 128,-1,48
 504 -228 504 -228 486 -228 c 128,-1,49
 468 -228 468 -228 454 -204 c 128,-1,50
 440 -180 440 -180 439 -141 c 1,0,-1
538 452 m 1,51,52
 536 218 536 218 536 36 c 1,53,54
 632 36 632 36 694.5 83.5 c 128,-1,55
 757 131 757 131 757 210.5 c 128,-1,56
 757 290 757 290 710.5 335 c 128,-1,57
 664 380 664 380 538 452 c 1,51,52
454 785 m 1,58,-1
 454 1138 l 1,59,60
 371 1132 371 1132 311.5 1091.5 c 128,-1,61
 252 1051 252 1051 252 990 c 0,62,63
 252 906 252 906 359 842 c 2,64,-1
 454 785 l 1,58,-1
EndSplineSet
EndChar

StartChar: percent
Encoding: 37 37 8
Width: 1772
GlyphClass: 2
Flags: W
LayerCount: 2
Fore
SplineSet
1354 41 m 0,0,1
 1502 41 1502 41 1502 347 c 0,2,3
 1502 495 1502 495 1460.5 586 c 128,-1,4
 1419 677 1419 677 1342 677 c 0,5,6
 1188 677 1188 677 1188 363 c 0,7,8
 1188 214 1188 214 1230 127.5 c 128,-1,9
 1272 41 1272 41 1354 41 c 0,0,1
1122.5 88 m 128,-1,11
 1035 198 1035 198 1035 357.5 c 128,-1,12
 1035 517 1035 517 1119.5 626 c 128,-1,13
 1204 735 1204 735 1342.5 735 c 128,-1,14
 1481 735 1481 735 1568 622.5 c 128,-1,15
 1655 510 1655 510 1655 352 c 128,-1,16
 1655 194 1655 194 1572.5 87.5 c 128,-1,17
 1490 -19 1490 -19 1350 -20.5 c 128,-1,10
 1210 -22 1210 -22 1122.5 88 c 128,-1,11
491 -138 m 1,18,19
 445 -138 445 -138 410 -108 c 1,20,21
 434 -64 434 -64 491 34 c 1,22,-1
 1020 1017 l 1,23,24
 1043 1056 1043 1056 1082 1143 c 0,25,26
 1169 1338 1169 1338 1239 1396 c 1,27,28
 1289 1396 1289 1396 1332 1368 c 1,29,-1
 1255 1238 l 2,30,31
 1245 1220 1245 1220 1167.5 1086.5 c 128,-1,32
 1090 953 1090 953 1041.5 866.5 c 128,-1,33
 993 780 993 780 914 634 c 0,34,35
 752 337 752 337 611 18 c 1,36,37
 575 -54 575 -54 491 -138 c 1,18,19
115 950 m 128,-1,39
 115 1109 115 1109 199.5 1218 c 128,-1,40
 284 1327 284 1327 423 1327 c 128,-1,41
 562 1327 562 1327 649 1214.5 c 128,-1,42
 736 1102 736 1102 736 944.5 c 128,-1,43
 736 787 736 787 653.5 680 c 128,-1,44
 571 573 571 573 431 572 c 128,-1,45
 291 571 291 571 203 681 c 128,-1,38
 115 791 115 791 115 950 c 128,-1,39
434 633 m 0,46,47
 583 633 583 633 583 939 c 0,48,49
 583 1087 583 1087 541.5 1178.5 c 128,-1,50
 500 1270 500 1270 422.5 1270 c 128,-1,51
 345 1270 345 1270 306.5 1186.5 c 128,-1,52
 268 1103 268 1103 268 955 c 128,-1,53
 268 807 268 807 310 720 c 128,-1,54
 352 633 352 633 434 633 c 0,46,47
EndSplineSet
EndChar

StartChar: ampersand
Encoding: 38 38 9
Width: 1468
GlyphClass: 2
Flags: W
LayerCount: 2
Fore
SplineSet
984 886 m 1,0,-1
 1393 886 l 1,1,2
 1394 868 1394 868 1394 835 c 1,3,4
 1386 828 1386 828 1330 812.5 c 128,-1,5
 1274 797 1274 797 1261 776 c 0,6,7
 1224 717 1224 717 1154.5 558 c 128,-1,8
 1085 399 1085 399 1020 296 c 1,9,10
 1072 231 1072 231 1113 198 c 128,-1,11
 1154 165 1154 165 1197 165 c 0,12,13
 1283 165 1283 165 1387 318 c 1,14,-1
 1446 275 l 1,15,16
 1409 122 1409 122 1339 47 c 128,-1,17
 1269 -28 1269 -28 1187.5 -28 c 128,-1,18
 1106 -28 1106 -28 1030.5 20 c 128,-1,19
 955 68 955 68 896 152 c 1,20,21
 798 57 798 57 703 15.5 c 128,-1,22
 608 -26 608 -26 488 -26 c 0,23,24
 298 -26 298 -26 185.5 74.5 c 128,-1,25
 73 175 73 175 73 319 c 0,26,27
 73 454 73 454 158 552 c 0,28,29
 237 644 237 644 411 758 c 1,30,31
 264 921 264 921 264 1039.5 c 128,-1,32
 264 1158 264 1158 374 1237 c 0,33,34
 492 1322 492 1322 628.5 1322 c 128,-1,35
 765 1322 765 1322 828.5 1253.5 c 128,-1,36
 892 1185 892 1185 892 1085 c 0,37,38
 892 1008 892 1008 814 942 c 0,39,40
 753 891 753 891 602 799 c 1,41,42
 657 737 657 737 782 583 c 128,-1,43
 907 429 907 429 969 357 c 1,44,45
 1058 513 1058 513 1098 692 c 1,46,47
 1110 722 1110 722 1110 741 c 0,48,49
 1110 791 1110 791 984 832 c 1,50,51
 982 848 982 848 982 856 c 128,-1,52
 982 864 982 864 984 886 c 1,0,-1
457 702 m 1,53,54
 266 571 266 571 266 434.5 c 128,-1,55
 266 298 266 298 364 200 c 128,-1,56
 462 102 462 102 611 102 c 0,57,58
 675 102 675 102 728.5 126.5 c 128,-1,59
 782 151 782 151 845 209 c 1,60,61
 590 538 590 538 457 702 c 1,53,54
427 1104 m 0,62,63
 427 1010 427 1010 558 849 c 1,64,65
 654 904 654 904 701.5 956.5 c 128,-1,66
 749 1009 749 1009 749 1072 c 128,-1,67
 749 1135 749 1135 704.5 1192.5 c 128,-1,68
 660 1250 660 1250 592.5 1250 c 128,-1,69
 525 1250 525 1250 476 1207 c 128,-1,70
 427 1164 427 1164 427 1104 c 0,62,63
EndSplineSet
EndChar

StartChar: quotesingle
Encoding: 39 39 10
Width: 370
GlyphClass: 2
Flags: W
LayerCount: 2
Fore
SplineSet
172 753 m 1,0,1
 149 806 149 806 116 978 c 128,-1,2
 83 1150 83 1150 83 1199 c 128,-1,3
 83 1248 83 1248 110 1275 c 128,-1,4
 137 1302 137 1302 185 1302 c 128,-1,5
 233 1302 233 1302 259.5 1275 c 128,-1,6
 286 1248 286 1248 286 1209.5 c 128,-1,7
 286 1171 286 1171 279.5 1117.5 c 128,-1,8
 273 1064 273 1064 261.5 1001.5 c 128,-1,9
 250 939 250 939 236 883 c 0,10,11
 205 753 205 753 172 753 c 1,0,1
EndSplineSet
EndChar

StartChar: parenleft
Encoding: 40 40 11
Width: 687
GlyphClass: 2
Flags: W
LayerCount: 2
Fore
SplineSet
666 -208 m 1,0,-1
 613 -268 l 1,1,2
 494 -214 494 -214 403 -123 c 128,-1,3
 312 -32 312 -32 257 80 c 128,-1,4
 202 192 202 192 174.5 315.5 c 128,-1,5
 147 439 147 439 147 571 c 128,-1,6
 147 703 147 703 174.5 826.5 c 128,-1,7
 202 950 202 950 256.5 1062 c 128,-1,8
 311 1174 311 1174 402.5 1264.5 c 128,-1,9
 494 1355 494 1355 613 1409 c 1,10,-1
 666 1350 l 1,11,12
 377 1181 377 1181 301 800 c 0,13,14
 279 690 279 690 279 571 c 128,-1,15
 279 452 279 452 301 341.5 c 128,-1,16
 323 231 323 231 368 129 c 0,17,18
 462 -85 462 -85 666 -208 c 1,0,-1
EndSplineSet
EndChar

StartChar: parenright
Encoding: 41 41 12
Width: 687
GlyphClass: 2
Flags: W
LayerCount: 2
Fore
SplineSet
21 1350 m 1,0,1
 31 1376 31 1376 74 1409 c 1,2,3
 193 1355 193 1355 284 1264.5 c 128,-1,4
 375 1174 375 1174 430 1062 c 128,-1,5
 485 950 485 950 512.5 826.5 c 128,-1,6
 540 703 540 703 540 571 c 128,-1,7
 540 439 540 439 512.5 315.5 c 128,-1,8
 485 192 485 192 430 80 c 128,-1,9
 375 -32 375 -32 284 -123 c 128,-1,10
 193 -214 193 -214 74 -268 c 1,11,12
 32 -236 32 -236 21 -208 c 1,13,14
 218 -84 218 -84 313 120 c 128,-1,15
 408 324 408 324 408 571 c 128,-1,16
 408 818 408 818 313 1023 c 128,-1,17
 218 1228 218 1228 21 1350 c 1,0,1
EndSplineSet
EndChar

StartChar: asterisk
Encoding: 42 42 13
Width: 1218
GlyphClass: 2
Flags: W
LayerCount: 2
Fore
SplineSet
673.5 1283.5 m 128,-1,1
 700 1258 700 1258 700 1211.5 c 128,-1,2
 700 1165 700 1165 691.5 1096.5 c 128,-1,3
 683 1028 683 1028 669 944 c 128,-1,4
 655 860 655 860 650 820 c 1,5,6
 662 826 662 826 728 862 c 128,-1,7
 794 898 794 898 848 928 c 0,8,9
 999 1009 999 1009 1038.5 1009 c 128,-1,10
 1078 1009 1078 1009 1104.5 979.5 c 128,-1,11
 1131 950 1131 950 1131 915 c 128,-1,12
 1131 880 1131 880 1110 855.5 c 128,-1,13
 1089 831 1089 831 1058 824 c 2,14,-1
 678 741 l 1,15,16
 687 731 687 731 741.5 674.5 c 128,-1,17
 796 618 796 618 839.5 571.5 c 128,-1,18
 883 525 883 525 921.5 470.5 c 128,-1,19
 960 416 960 416 960 384 c 128,-1,20
 960 352 960 352 930.5 323.5 c 128,-1,21
 901 295 901 295 870 295 c 0,22,23
 806 295 806 295 782 346 c 1,24,-1
 609 695 l 1,25,-1
 435 346 l 1,26,27
 411 295 411 295 363.5 295 c 128,-1,28
 316 295 316 295 286.5 323.5 c 128,-1,29
 257 352 257 352 257 384 c 128,-1,30
 257 416 257 416 295.5 470.5 c 128,-1,31
 334 525 334 525 377.5 571.5 c 128,-1,32
 421 618 421 618 475.5 674.5 c 128,-1,33
 530 731 530 731 539 741 c 1,34,-1
 159 824 l 2,35,36
 128 831 128 831 107 855.5 c 128,-1,37
 86 880 86 880 86 915 c 128,-1,38
 86 950 86 950 112.5 979.5 c 128,-1,39
 139 1009 139 1009 168 1009 c 128,-1,40
 197 1009 197 1009 255.5 983 c 128,-1,41
 314 957 314 957 368.5 927.5 c 128,-1,42
 423 898 423 898 489 862 c 128,-1,43
 555 826 555 826 567 820 c 1,44,45
 562 860 562 860 547 946 c 0,46,47
 515 1129 515 1129 515 1226 c 0,48,49
 515 1262 515 1262 543.5 1285.5 c 128,-1,50
 572 1309 572 1309 609.5 1309 c 128,-1,0
 647 1309 647 1309 673.5 1283.5 c 128,-1,1
EndSplineSet
EndChar

StartChar: plus
Encoding: 43 43 14
Width: 1099
GlyphClass: 2
Flags: W
LayerCount: 2
Fore
SplineSet
107 618 m 1,0,1
 161 639 161 639 291 639 c 2,2,-1
 482 639 l 1,3,-1
 482 828 l 2,4,5
 482 956 482 956 490 1012 c 1,6,7
 517 1015 517 1015 553.5 1015 c 128,-1,8
 590 1015 590 1015 608 1012 c 1,9,10
 617 950 617 950 617 830 c 2,11,-1
 617 639 l 1,12,-1
 806 639 l 2,13,14
 920 639 920 639 990 629 c 1,15,16
 993 602 993 602 993 570.5 c 128,-1,17
 993 539 993 539 990 512 c 1,18,19
 933 505 933 505 806 505 c 2,20,-1
 617 505 l 1,21,-1
 617 315 l 2,22,23
 617 202 617 202 607 132 c 1,24,25
 578 129 578 129 547 129 c 128,-1,26
 516 129 516 129 489 132 c 1,27,28
 482 189 482 189 482 315 c 2,29,-1
 482 505 l 1,30,-1
 159 505 l 1,31,32
 125 526 125 526 116 550 c 128,-1,33
 107 574 107 574 107 618 c 1,0,1
EndSplineSet
EndChar

StartChar: comma
Encoding: 44 44 15
Width: 563
GlyphClass: 2
Flags: W
LayerCount: 2
Fore
SplineSet
116 -268 m 1,0,1
 98 -238 98 -238 98 -208 c 1,2,3
 219 -172 219 -172 238.5 -158 c 128,-1,4
 258 -144 258 -144 275 -130 c 128,-1,5
 292 -116 292 -116 299 -102 c 0,6,7
 318 -62 318 -62 318 -23 c 1,8,9
 290 43 290 43 216 56 c 1,10,11
 169 63 169 63 143.5 94.5 c 128,-1,12
 118 126 118 126 118 179.5 c 128,-1,13
 118 233 118 233 156.5 272 c 128,-1,14
 195 311 195 311 268 311 c 128,-1,15
 341 311 341 311 396 240.5 c 128,-1,16
 451 170 451 170 451 34 c 128,-1,17
 451 -102 451 -102 354.5 -184 c 128,-1,18
 258 -266 258 -266 116 -268 c 1,0,1
EndSplineSet
EndChar

StartChar: hyphen
Encoding: 45 45 16
Width: 772
GlyphClass: 2
Flags: W
LayerCount: 2
Fore
SplineSet
691 402 m 1,0,-1
 89 402 l 1,1,-1
 89 530 l 1,2,-1
 691 530 l 1,3,-1
 691 402 l 1,0,-1
EndSplineSet
EndChar

StartChar: period
Encoding: 46 46 17
Width: 556
GlyphClass: 2
Flags: W
LayerCount: 2
Fore
SplineSet
277 251 m 128,-1,1
 334 251 334 251 374.5 211 c 128,-1,2
 415 171 415 171 415 116 c 128,-1,3
 415 61 415 61 374.5 20.5 c 128,-1,4
 334 -20 334 -20 277 -20 c 128,-1,5
 220 -20 220 -20 180 20 c 128,-1,6
 140 60 140 60 140 115.5 c 128,-1,7
 140 171 140 171 180 211 c 128,-1,0
 220 251 220 251 277 251 c 128,-1,1
EndSplineSet
EndChar

StartChar: slash
Encoding: 47 47 18
Width: 673
GlyphClass: 2
Flags: W
LayerCount: 2
Fore
SplineSet
655 1378 m 1,0,1
 589 1143 589 1143 411 689 c 128,-1,2
 233 235 233 235 194.5 123 c 128,-1,3
 156 11 156 11 121 -65 c 1,4,5
 101 -70 101 -70 73 -70 c 2,6,-1
 45 -70 l 1,7,8
 40 -50 40 -50 40 -8.5 c 128,-1,9
 40 33 40 33 69 109 c 2,10,-1
 438 1089 l 2,11,12
 442 1099 442 1099 469 1186 c 0,13,14
 528 1378 528 1378 575 1402 c 1,15,16
 621 1402 621 1402 655 1378 c 1,0,1
EndSplineSet
EndChar

StartChar: zero
Encoding: 48 48 19
Width: 1127
GlyphClass: 2
Flags: W
LayerCount: 2
Fore
SplineSet
707 780.5 m 128,-1,1
 641 846 641 846 555 846 c 128,-1,2
 469 846 469 846 406 792 c 0,3,4
 289 690 289 690 289 479 c 0,5,6
 289 248 289 248 418 126 c 0,7,8
 485 64 485 64 556 64 c 128,-1,9
 627 64 627 64 671.5 83 c 128,-1,10
 716 102 716 102 747 134.5 c 128,-1,11
 778 167 778 167 799 212 c 0,12,13
 839 298 839 298 839 408.5 c 128,-1,14
 839 519 839 519 806 617 c 128,-1,0
 773 715 773 715 707 780.5 c 128,-1,1
554 -17 m 0,15,16
 449 -17 449 -17 355 22.5 c 128,-1,17
 261 62 261 62 203 128 c 0,18,19
 84 262 84 262 84 444 c 0,20,21
 84 669 84 669 256 806 c 0,22,23
 375 902 375 902 562 902 c 0,24,25
 678 902 678 902 772 862.5 c 128,-1,26
 866 823 866 823 924 758 c 0,27,28
 1044 622 1044 622 1044 441 c 0,29,30
 1044 216 1044 216 872 78 c 0,31,32
 753 -17 753 -17 554 -17 c 0,15,16
EndSplineSet
EndChar

StartChar: one
Encoding: 49 49 20
Width: 684
GlyphClass: 2
Flags: W
LayerCount: 2
Fore
SplineSet
568 55 m 0,0,1
 670 55 670 55 670 19 c 0,2,3
 670 17 670 17 665 0 c 1,4,-1
 77 0 l 1,5,6
 73 12 73 12 73 17 c 0,7,8
 73 49 73 49 172 56 c 0,9,10
 210 58 210 58 241 76 c 128,-1,11
 272 94 272 94 272 130 c 2,12,-1
 272 710 l 2,13,14
 272 744 272 744 241 763.5 c 128,-1,15
 210 783 210 783 172 787 c 0,16,17
 72 798 72 798 72 828 c 0,18,19
 72 833 72 833 77 846 c 1,20,-1
 443 846 l 2,21,22
 465 846 465 846 465 833 c 2,23,-1
 465 129 l 2,24,25
 465 90 465 90 497 72.5 c 128,-1,26
 529 55 529 55 568 55 c 0,0,1
EndSplineSet
EndChar

StartChar: two
Encoding: 50 50 21
Width: 766
GlyphClass: 2
Flags: W
LayerCount: 2
Fore
SplineSet
230 84 m 1,0,-1
 520 97 l 2,1,2
 564 99 564 99 587.5 125 c 128,-1,3
 611 151 611 151 614 180 c 0,4,5
 624 259 624 259 657 259 c 1,6,-1
 671 256 l 1,7,-1
 654 0 l 1,8,-1
 76 0 l 1,9,-1
 65 38 l 1,10,11
 315 301 315 301 406 502 c 0,12,13
 446 591 446 591 446 662.5 c 128,-1,14
 446 734 446 734 405.5 780.5 c 128,-1,15
 365 827 365 827 289 827 c 0,16,17
 229 827 229 827 171.5 797 c 128,-1,18
 114 767 114 767 91 759 c 1,19,-1
 78 779 l 1,20,-1
 80 791 l 1,21,22
 112 842 112 842 201.5 872 c 128,-1,23
 291 902 291 902 364 902 c 0,24,25
 487 902 487 902 572.5 834.5 c 128,-1,26
 658 767 658 767 658 647 c 0,27,28
 658 518 658 518 492 336 c 0,29,30
 362 193 362 193 230 84 c 1,0,-1
EndSplineSet
EndChar

StartChar: three
Encoding: 51 51 22
Width: 890
GlyphClass: 2
Flags: W
LayerCount: 2
Fore
SplineSet
211 -119 m 1,0,-1
 191 -202 l 1,1,2
 191 -237 191 -237 250.5 -257.5 c 128,-1,3
 310 -278 310 -278 353 -278 c 0,4,5
 477 -278 477 -278 549.5 -191.5 c 128,-1,6
 622 -105 622 -105 622 21 c 0,7,8
 622 145 622 145 564 231 c 0,9,10
 501 324 501 324 373 324 c 0,11,12
 327 324 327 324 273 311 c 1,13,-1
 228 363 l 1,14,15
 481 447 481 447 554 582 c 0,16,17
 578 627 578 627 578 674 c 0,18,19
 578 807 578 807 436 807 c 0,20,21
 350 807 350 807 263.5 762.5 c 128,-1,22
 177 718 177 718 145 706 c 1,23,24
 128 715 128 715 128 733 c 1,25,-1
 131 749 l 1,26,27
 187 821 187 821 276 861 c 128,-1,28
 365 901 365 901 469 901 c 128,-1,29
 573 901 573 901 652.5 844 c 128,-1,30
 732 787 732 787 732 672.5 c 128,-1,31
 732 558 732 558 641 477.5 c 128,-1,32
 550 397 550 397 427 387 c 1,33,34
 612 387 612 387 717 296.5 c 128,-1,35
 822 206 822 206 822 24 c 0,36,37
 822 -182 822 -182 628 -278 c 0,38,39
 516 -334 516 -334 376 -334 c 0,40,41
 217 -334 217 -334 107 -275 c 0,42,43
 68 -254 68 -254 42 -217.5 c 128,-1,44
 16 -181 16 -181 16 -137.5 c 128,-1,45
 16 -94 16 -94 47.5 -61.5 c 128,-1,46
 79 -29 79 -29 117 -29 c 128,-1,47
 155 -29 155 -29 183 -56.5 c 128,-1,48
 211 -84 211 -84 211 -119 c 1,0,-1
EndSplineSet
EndChar

StartChar: four
Encoding: 52 52 23
Width: 921
GlyphClass: 2
Flags: W
LayerCount: 2
Fore
SplineSet
826 113 m 2,0,1
 856 113 856 113 856 56.5 c 128,-1,2
 856 0 856 0 841 0 c 2,3,-1
 694 0 l 1,4,-1
 694 -173 l 2,5,6
 694 -201 694 -201 721 -216.5 c 128,-1,7
 748 -232 748 -232 780 -235 c 0,8,9
 867 -243 867 -243 867 -267 c 0,10,11
 867 -276 867 -276 863 -283 c 1,12,-1
 325 -283 l 1,13,14
 321 -272 321 -272 321 -267 c 0,15,16
 321 -237 321 -237 410 -230 c 0,17,18
 444 -228 444 -228 472 -212.5 c 128,-1,19
 500 -197 500 -197 500 -168 c 2,20,-1
 500 0 l 1,21,-1
 29 0 l 1,22,-1
 15 47 l 1,23,-1
 489 850 l 1,24,25
 570 867 570 867 693 867 c 1,26,-1
 693 113 l 1,27,-1
 826 113 l 2,0,1
500 113 m 1,28,-1
 500 713 l 1,29,-1
 126 113 l 1,30,-1
 500 113 l 1,28,-1
EndSplineSet
EndChar

StartChar: five
Encoding: 53 53 24
Width: 910
GlyphClass: 2
Flags: W
LayerCount: 2
Fore
SplineSet
255 -145 m 1,0,-1
 235 -228 l 1,1,2
 235 -263 235 -263 294.5 -283.5 c 128,-1,3
 354 -304 354 -304 397 -304 c 0,4,5
 481 -304 481 -304 544 -254 c 0,6,7
 666 -156 666 -156 666 27 c 0,8,9
 666 154 666 154 598 228.5 c 128,-1,10
 530 303 530 303 404 303 c 0,11,12
 339 303 339 303 250 263 c 128,-1,13
 161 223 161 223 127 220 c 1,14,15
 101 223 101 223 101 243 c 2,16,-1
 101 868 l 1,17,-1
 758 868 l 1,18,-1
 722 733 l 1,19,-1
 177 733 l 1,20,-1
 177 324 l 1,21,22
 304 402 304 402 474 402 c 128,-1,23
 644 402 644 402 755 306 c 128,-1,24
 866 210 866 210 866 30 c 0,25,26
 866 -60 866 -60 829 -135 c 128,-1,27
 792 -210 792 -210 730 -258 c 0,28,29
 599 -360 599 -360 420 -360 c 0,30,31
 261 -360 261 -360 151 -301 c 0,32,33
 112 -280 112 -280 86 -243.5 c 128,-1,34
 60 -207 60 -207 60 -163.5 c 128,-1,35
 60 -120 60 -120 91.5 -87.5 c 128,-1,36
 123 -55 123 -55 161 -55 c 128,-1,37
 199 -55 199 -55 227 -82.5 c 128,-1,38
 255 -110 255 -110 255 -145 c 1,0,-1
EndSplineSet
EndChar

StartChar: six
Encoding: 54 54 25
Width: 994
GlyphClass: 2
Flags: W
LayerCount: 2
Fore
SplineSet
652 1247 m 1,0,1
 667 1251 667 1251 686 1251 c 128,-1,2
 705 1251 705 1251 710.5 1245.5 c 128,-1,3
 716 1240 716 1240 716 1222 c 128,-1,4
 716 1204 716 1204 696 1197 c 0,5,6
 578 1150 578 1150 468 1020 c 128,-1,7
 358 890 358 890 320 731 c 1,8,9
 430 783 430 783 547 783 c 0,10,11
 721 783 721 783 832.5 678 c 128,-1,12
 944 573 944 573 944 389 c 0,13,14
 944 272 944 272 882.5 177.5 c 128,-1,15
 821 83 821 83 723.5 33 c 128,-1,16
 626 -17 626 -17 526 -17 c 128,-1,17
 426 -17 426 -17 353 7 c 128,-1,18
 280 31 280 31 230.5 73.5 c 128,-1,19
 181 116 181 116 148 175 c 0,20,21
 83 289 83 289 83 432 c 128,-1,22
 83 575 83 575 125.5 709 c 128,-1,23
 168 843 168 843 240.5 956.5 c 128,-1,24
 313 1070 313 1070 421.5 1150 c 128,-1,25
 530 1230 530 1230 652 1247 c 1,0,1
684 142 m 128,-1,27
 744 232 744 232 744 393.5 c 128,-1,28
 744 555 744 555 677.5 636 c 128,-1,29
 611 717 611 717 508.5 717 c 128,-1,30
 406 717 406 717 311 662 c 1,31,32
 287 539 287 539 287 459 c 0,33,34
 287 262 287 262 355.5 157 c 128,-1,35
 424 52 424 52 524 52 c 128,-1,26
 624 52 624 52 684 142 c 128,-1,27
EndSplineSet
EndChar

StartChar: seven
Encoding: 55 55 26
Width: 856
GlyphClass: 2
Flags: W
LayerCount: 2
Fore
SplineSet
71 517 m 1,0,-1
 51 521 l 1,1,-1
 74 856 l 1,2,-1
 84 867 l 1,3,-1
 817 867 l 1,4,-1
 832 815 l 1,5,6
 618 382 618 382 457 -334 c 1,7,-1
 247 -334 l 1,8,9
 459 416 459 416 688 763 c 1,10,-1
 256 735 l 2,11,12
 174 729 174 729 146 673 c 0,13,14
 124 629 124 629 117 589 c 0,15,16
 105 517 105 517 71 517 c 1,0,-1
EndSplineSet
EndChar

StartChar: eight
Encoding: 56 56 27
Width: 1013
GlyphClass: 2
Flags: W
LayerCount: 2
Fore
SplineSet
349 623 m 1,0,1
 192 740 192 740 154 847 c 0,2,3
 137 893 137 893 137 943 c 0,4,5
 137 1058 137 1058 237 1132.5 c 128,-1,6
 337 1207 337 1207 516 1207 c 0,7,8
 752 1207 752 1207 823 1050 c 0,9,10
 841 1011 841 1011 841 972 c 0,11,12
 841 880 841 880 791.5 814.5 c 128,-1,13
 742 749 742 749 642 673 c 1,14,15
 815 563 815 563 876 471 c 1,16,17
 935 380 935 380 935 264 c 0,18,19
 935 113 935 113 796 34 c 0,20,21
 688 -28 688 -28 497.5 -28 c 128,-1,22
 307 -28 307 -28 194.5 59 c 128,-1,23
 82 146 82 146 82 266 c 128,-1,24
 82 386 82 386 158.5 466 c 128,-1,25
 235 546 235 546 349 623 c 1,0,1
504 41 m 0,26,27
 679 41 679 41 724 194 c 0,28,29
 735 234 735 234 735 271 c 128,-1,30
 735 308 735 308 720.5 338.5 c 128,-1,31
 706 369 706 369 688 391 c 128,-1,32
 670 413 670 413 632 443 c 0,33,34
 585 480 585 480 494 539 c 2,35,-1
 474 552 l 1,36,37
 271 422 271 422 233 350 c 0,38,39
 214 315 214 315 214 277 c 0,40,41
 214 167 214 167 288.5 104 c 128,-1,42
 363 41 363 41 504 41 c 0,26,27
367.5 1105 m 128,-1,44
 315 1066 315 1066 315 994.5 c 128,-1,45
 315 923 315 923 369 866 c 128,-1,46
 423 809 423 809 526 746 c 1,47,48
 591 788 591 788 628 819 c 0,49,50
 713 892 713 892 713 978 c 0,51,52
 713 1144 713 1144 516 1144 c 0,53,43
 420 1144 420 1144 367.5 1105 c 128,-1,44
EndSplineSet
EndChar

StartChar: nine
Encoding: 57 57 28
Width: 1019
GlyphClass: 2
Flags: W
LayerCount: 2
Fore
SplineSet
380 -363 m 1,0,1
 365 -367 365 -367 346 -367 c 128,-1,2
 327 -367 327 -367 321.5 -361.5 c 128,-1,3
 316 -356 316 -356 316 -338.5 c 128,-1,4
 316 -321 316 -321 336 -313 c 0,5,6
 454 -267 454 -267 564 -136.5 c 128,-1,7
 674 -6 674 -6 712 153 c 1,8,9
 602 101 602 101 485 101 c 0,10,11
 311 101 311 101 199.5 206 c 128,-1,12
 88 311 88 311 88 495 c 0,13,14
 88 612 88 612 149.5 706.5 c 128,-1,15
 211 801 211 801 308.5 851 c 128,-1,16
 406 901 406 901 506 901 c 128,-1,17
 606 901 606 901 679 877 c 128,-1,18
 752 853 752 853 801.5 810.5 c 128,-1,19
 851 768 851 768 884 709 c 0,20,21
 949 595 949 595 949 452 c 128,-1,22
 949 309 949 309 906.5 175 c 128,-1,23
 864 41 864 41 791.5 -72.5 c 128,-1,24
 719 -186 719 -186 610.5 -266 c 128,-1,25
 502 -346 502 -346 380 -363 c 1,0,1
348 742 m 128,-1,27
 288 652 288 652 288 490.5 c 128,-1,28
 288 329 288 329 354.5 248 c 128,-1,29
 421 167 421 167 523.5 167 c 128,-1,30
 626 167 626 167 721 222 c 1,31,32
 745 345 745 345 745 425 c 0,33,34
 745 622 745 622 676.5 727 c 128,-1,35
 608 832 608 832 508 832 c 128,-1,26
 408 832 408 832 348 742 c 128,-1,27
EndSplineSet
EndChar

StartChar: colon
Encoding: 58 58 29
Width: 590
GlyphClass: 2
Flags: W
LayerCount: 2
Fore
SplineSet
294 251 m 128,-1,1
 351 251 351 251 392 211 c 128,-1,2
 433 171 433 171 433 116 c 128,-1,3
 433 61 433 61 392 20.5 c 128,-1,4
 351 -20 351 -20 294 -20 c 128,-1,5
 237 -20 237 -20 197 20 c 128,-1,6
 157 60 157 60 157 115.5 c 128,-1,7
 157 171 157 171 197 211 c 128,-1,0
 237 251 237 251 294 251 c 128,-1,1
197.5 998.5 m 128,-1,9
 238 1039 238 1039 294.5 1039 c 128,-1,10
 351 1039 351 1039 392 998.5 c 128,-1,11
 433 958 433 958 433 903.5 c 128,-1,12
 433 849 433 849 392 808.5 c 128,-1,13
 351 768 351 768 294 768 c 128,-1,14
 237 768 237 768 197 808 c 128,-1,15
 157 848 157 848 157 903 c 128,-1,8
 157 958 157 958 197.5 998.5 c 128,-1,9
EndSplineSet
EndChar

StartChar: semicolon
Encoding: 59 59 30
Width: 594
GlyphClass: 2
Flags: W
LayerCount: 2
Fore
SplineSet
197.5 998.5 m 128,-1,1
 238 1039 238 1039 294.5 1039 c 128,-1,2
 351 1039 351 1039 392 998.5 c 128,-1,3
 433 958 433 958 433 903.5 c 128,-1,4
 433 849 433 849 392 808.5 c 128,-1,5
 351 768 351 768 294 768 c 128,-1,6
 237 768 237 768 197 808 c 128,-1,7
 157 848 157 848 157 903 c 128,-1,0
 157 958 157 958 197.5 998.5 c 128,-1,1
133 -268 m 1,8,9
 116 -240 116 -240 116 -208 c 1,10,11
 125 -205 125 -205 154.5 -196 c 128,-1,12
 184 -187 184 -187 195 -183 c 128,-1,13
 206 -179 206 -179 230.5 -169 c 128,-1,14
 255 -159 255 -159 265.5 -151.5 c 128,-1,15
 276 -144 276 -144 292.5 -130 c 128,-1,16
 309 -116 309 -116 316 -102 c 0,17,18
 335 -62 335 -62 335 -23 c 1,19,20
 307 43 307 43 233 56 c 1,21,22
 187 63 187 63 161 94.5 c 128,-1,23
 135 126 135 126 135 180 c 128,-1,24
 135 234 135 234 173.5 272.5 c 128,-1,25
 212 311 212 311 285 311 c 128,-1,26
 358 311 358 311 413 240 c 128,-1,27
 468 169 468 169 468 33 c 128,-1,28
 468 -103 468 -103 372.5 -184 c 128,-1,29
 277 -265 277 -265 133 -268 c 1,8,9
EndSplineSet
EndChar

StartChar: less
Encoding: 60 60 31
Width: 626
GlyphClass: 2
Flags: W
LayerCount: 2
Fore
SplineSet
403 59 m 2,0,-1
 64 553 l 1,1,2
 80 574 80 574 174 710 c 0,3,4
 386 1013 386 1013 469 1068 c 1,5,6
 496 1068 496 1068 519 1052 c 128,-1,7
 542 1036 542 1036 542 1009 c 1,8,9
 490 893 490 893 309 687 c 0,10,11
 223 589 223 589 195 553 c 1,12,-1
 294 425 l 2,13,14
 524 128 524 128 524 73 c 128,-1,15
 524 18 524 18 478 18 c 128,-1,16
 432 18 432 18 403 59 c 2,0,-1
EndSplineSet
EndChar

StartChar: equal
Encoding: 61 61 32
Width: 845
GlyphClass: 2
Flags: W
LayerCount: 2
Fore
SplineSet
232 730 m 1,0,-1
 263 729 l 1,1,2
 436 729 436 729 610 729 c 0,3,4
 713 729 713 729 713 679 c 0,5,6
 713 646 713 646 675 640 c 0,7,8
 640 634 640 634 610.5 635.5 c 128,-1,9
 581 637 581 637 578 637 c 2,10,-1
 266 637 l 1,11,-1
 222 636 l 1,12,13
 131 636 131 636 131 683 c 128,-1,14
 131 730 131 730 232 730 c 1,0,-1
232 488 m 1,15,-1
 263 487 l 1,16,17
 436 487 436 487 610 487 c 0,18,19
 713 487 713 487 713 437 c 0,20,21
 713 404 713 404 675 398 c 0,22,23
 646 394 646 394 626 394 c 2,24,-1
 578 395 l 1,25,-1
 266 395 l 1,26,-1
 222 394 l 1,27,28
 131 394 131 394 131 441 c 128,-1,29
 131 488 131 488 232 488 c 1,15,-1
EndSplineSet
EndChar

StartChar: greater
Encoding: 62 62 33
Width: 626
GlyphClass: 2
Flags: W
LayerCount: 2
Fore
SplineSet
223 59 m 2,0,1
 194 18 194 18 160 18 c 0,2,3
 102 18 102 18 102 69 c 0,4,5
 102 129 102 129 330 424 c 1,6,7
 428 549 428 549 431 553 c 1,8,9
 403 589 403 589 317 687 c 0,10,11
 136 893 136 893 84 1009 c 1,12,13
 84 1036 84 1036 107 1052 c 128,-1,14
 130 1068 130 1068 157 1068 c 1,15,16
 240 1013 240 1013 452 710 c 0,17,18
 546 574 546 574 562 553 c 1,19,-1
 223 59 l 2,0,1
EndSplineSet
EndChar

StartChar: question
Encoding: 63 63 34
Width: 806
GlyphClass: 2
Flags: W
LayerCount: 2
Fore
SplineSet
304 236 m 128,-1,1
 355 236 355 236 392.5 199 c 128,-1,2
 430 162 430 162 430 111 c 128,-1,3
 430 60 430 60 392.5 23.5 c 128,-1,4
 355 -13 355 -13 304.5 -13 c 128,-1,5
 254 -13 254 -13 217.5 24 c 128,-1,6
 181 61 181 61 181 111.5 c 128,-1,7
 181 162 181 162 217 199 c 128,-1,0
 253 236 253 236 304 236 c 128,-1,1
338 358 m 1,8,-1
 257 358 l 1,9,10
 254 386 254 386 239.5 460 c 128,-1,11
 225 534 225 534 225 568 c 128,-1,12
 225 602 225 602 252.5 630 c 128,-1,13
 280 658 280 658 320.5 681.5 c 128,-1,14
 361 705 361 705 409 737 c 128,-1,15
 457 769 457 769 498 802 c 0,16,17
 593 880 593 880 593 979 c 128,-1,18
 593 1078 593 1078 519.5 1148 c 128,-1,19
 446 1218 446 1218 352 1218 c 0,20,21
 307 1218 307 1218 266 1175 c 0,22,23
 248 1157 248 1157 230 1139 c 0,24,25
 189 1096 189 1096 150.5 1096 c 128,-1,26
 112 1096 112 1096 90 1121.5 c 128,-1,27
 68 1147 68 1147 68 1183.5 c 128,-1,28
 68 1220 68 1220 92.5 1250.5 c 128,-1,29
 117 1281 117 1281 157 1298 c 0,30,31
 233 1329 233 1329 326.5 1329 c 128,-1,32
 420 1329 420 1329 514 1280 c 128,-1,33
 608 1231 608 1231 669 1146.5 c 128,-1,34
 730 1062 730 1062 730 980 c 128,-1,35
 730 898 730 898 708.5 840 c 128,-1,36
 687 782 687 782 652.5 744 c 128,-1,37
 618 706 618 706 576 674.5 c 128,-1,38
 534 643 534 643 492 615.5 c 128,-1,39
 450 588 450 588 416 559 c 0,40,41
 338 494 338 494 338 397 c 2,42,-1
 338 358 l 1,8,-1
EndSplineSet
EndChar

StartChar: at
Encoding: 64 64 35
Width: 1697
GlyphClass: 2
Flags: W
LayerCount: 2
Fore
SplineSet
947 1328 m 128,-1,1
 1090 1328 1090 1328 1214.5 1287.5 c 128,-1,2
 1339 1247 1339 1247 1433.5 1170.5 c 128,-1,3
 1528 1094 1528 1094 1582.5 975.5 c 128,-1,4
 1637 857 1637 857 1637 710 c 0,5,6
 1637 595 1637 595 1601 495.5 c 128,-1,7
 1565 396 1565 396 1528.5 337 c 128,-1,8
 1492 278 1492 278 1448 232 c 0,9,10
 1350 131 1350 131 1223 131 c 0,11,12
 1146 131 1146 131 1096 186 c 128,-1,13
 1046 241 1046 241 1028 322 c 1,14,15
 976 257 976 257 900 220 c 128,-1,16
 824 183 824 183 741 183 c 0,17,18
 603 183 603 183 529 276 c 128,-1,19
 455 369 455 369 455 490.5 c 128,-1,20
 455 612 455 612 491 710 c 128,-1,21
 527 808 527 808 589.5 885 c 128,-1,22
 652 962 652 962 744.5 1009.5 c 128,-1,23
 837 1057 837 1057 929.5 1057 c 128,-1,24
 1022 1057 1022 1057 1077.5 1030.5 c 128,-1,25
 1133 1004 1133 1004 1162 954 c 1,26,27
 1217 863 1217 863 1217 711 c 0,28,29
 1217 642 1217 642 1201.5 506 c 128,-1,30
 1186 370 1186 370 1186 302 c 0,31,32
 1186 181 1186 181 1251 181 c 0,33,34
 1301 181 1301 181 1340 241 c 128,-1,35
 1379 301 1379 301 1399 387 c 0,36,37
 1439 559 1439 559 1439 663.5 c 128,-1,38
 1439 768 1439 768 1420.5 855.5 c 128,-1,39
 1402 943 1402 943 1362 1020 c 128,-1,40
 1322 1097 1322 1097 1264 1154 c 0,41,42
 1139 1275 1139 1275 938 1275 c 0,43,44
 813 1275 813 1275 704 1227 c 128,-1,45
 595 1179 595 1179 518 1098 c 128,-1,46
 441 1017 441 1017 386 912 c 0,47,48
 277 705 277 705 277 457 c 0,49,50
 277 -26 277 -26 760 -26 c 0,51,52
 880 -26 880 -26 1005 10 c 1,53,-1
 998 -63 l 1,54,55
 845 -112 845 -112 706.5 -112 c 128,-1,56
 568 -112 568 -112 454 -74 c 128,-1,57
 340 -36 340 -36 253 34 c 128,-1,58
 166 104 166 104 115 212.5 c 128,-1,59
 64 321 64 321 64 459 c 128,-1,60
 64 597 64 597 109 731 c 128,-1,61
 154 865 154 865 236 972.5 c 128,-1,62
 318 1080 318 1080 426.5 1160.5 c 128,-1,63
 535 1241 535 1241 669.5 1284.5 c 128,-1,0
 804 1328 804 1328 947 1328 c 128,-1,1
1054 622 m 128,-1,65
 1059 682 1059 682 1059 732.5 c 128,-1,66
 1059 783 1059 783 1054.5 822.5 c 128,-1,67
 1050 862 1050 862 1037.5 910.5 c 128,-1,68
 1025 959 1025 959 995 988.5 c 128,-1,69
 965 1018 965 1018 905.5 1018 c 128,-1,70
 846 1018 846 1018 785 964.5 c 128,-1,71
 724 911 724 911 689 831 c 0,72,73
 617 666 617 666 617 519 c 0,74,75
 617 425 617 425 640 364 c 0,76,77
 684 251 684 251 781 251 c 0,78,79
 901 251 901 251 1025 358 c 1,80,81
 1028 387 1028 387 1038.5 474.5 c 128,-1,64
 1049 562 1049 562 1054 622 c 128,-1,65
EndSplineSet
EndChar

StartChar: A
Encoding: 65 65 36
Width: 1366
GlyphClass: 2
Flags: W
LayerCount: 2
Fore
SplineSet
427 620 m 1,0,-1
 807 620 l 1,1,-1
 610 1112 l 1,2,-1
 427 620 l 1,0,-1
844 532 m 1,3,-1
 393 532 l 1,4,5
 390 524 390 524 367 466 c 128,-1,6
 344 408 344 408 326 360 c 0,7,8
 277 226 277 226 277 191 c 128,-1,9
 277 156 277 156 284.5 140.5 c 128,-1,10
 292 125 292 125 307.5 113.5 c 128,-1,11
 323 102 323 102 337 94 c 128,-1,12
 351 86 351 86 376 79 c 0,13,14
 409 69 409 69 468 57 c 1,15,-1
 468 0 l 1,16,-1
 -4 0 l 1,17,-1
 -4 52 l 1,18,19
 16 69 16 69 50 82 c 0,20,21
 128 110 128 110 156 163 c 0,22,23
 163 176 163 176 202 273 c 1,24,-1
 576 1231 l 2,25,26
 580 1241 580 1241 582.5 1275.5 c 128,-1,27
 585 1310 585 1310 595 1324 c 1,28,29
 689 1324 689 1324 751 1277 c 1,30,-1
 1210 176 l 2,31,32
 1234 116 1234 116 1282 95 c 0,33,34
 1300 87 1300 87 1332 74.5 c 128,-1,35
 1364 62 1364 62 1383 52 c 1,36,-1
 1381 0 l 1,37,-1
 799 0 l 1,38,-1
 797 52 l 1,39,40
 892 80 892 80 915 99 c 0,41,42
 965 139 965 139 965 184.5 c 128,-1,43
 965 230 965 230 844 532 c 1,3,-1
EndSplineSet
EndChar

StartChar: B
Encoding: 66 66 37
Width: 1380
GlyphClass: 2
Flags: W
LayerCount: 2
Fore
SplineSet
279 221 m 2,0,-1
 279 1023 l 2,1,2
 279 1119 279 1119 264 1150 c 128,-1,3
 249 1181 249 1181 228.5 1193.5 c 128,-1,4
 208 1206 208 1206 189 1211 c 0,5,6
 107 1233 107 1233 63 1251 c 1,7,-1
 65 1302 l 1,8,-1
 633 1302 l 2,9,10
 859 1302 859 1302 935.5 1281.5 c 128,-1,11
 1012 1261 1012 1261 1065 1236.5 c 128,-1,12
 1118 1212 1118 1212 1150 1178 c 1,13,14
 1226 1101 1226 1101 1226 975 c 0,15,16
 1226 730 1226 730 865 669 c 1,17,18
 1073 658 1073 658 1196 556 c 0,19,20
 1292 477 1292 477 1292 349 c 0,21,22
 1292 272 1292 272 1260 210 c 128,-1,23
 1228 148 1228 148 1177 110 c 128,-1,24
 1126 72 1126 72 1058 46 c 0,25,26
 938 0 938 0 785 0 c 2,27,-1
 65 0 l 1,28,-1
 63 52 l 1,29,30
 74 55 74 55 104 63 c 128,-1,31
 134 71 134 71 148 76 c 128,-1,32
 162 81 162 81 187 90.5 c 128,-1,33
 212 100 212 100 224.5 110.5 c 128,-1,34
 237 121 237 121 252 137 c 0,35,36
 279 166 279 166 279 221 c 2,0,-1
519 630 m 1,37,38
 494 608 494 608 494 542 c 2,39,-1
 494 274 l 2,40,41
 494 174 494 174 528 130.5 c 128,-1,42
 562 87 562 87 604 87 c 2,43,-1
 766 87 l 2,44,45
 884 87 884 87 963 154 c 128,-1,46
 1042 221 1042 221 1042 336 c 0,47,48
 1042 475 1042 475 952 542 c 0,49,50
 891 587 891 587 836 600 c 128,-1,51
 781 613 781 613 749.5 618.5 c 128,-1,52
 718 624 718 624 670 626 c 0,53,54
 603 630 603 630 519 630 c 1,37,38
494 1227 m 1,55,-1
 494 730 l 1,56,57
 528 700 528 700 574 700 c 2,58,-1
 707 700 l 2,59,60
 1027 700 1027 700 1027 943 c 0,61,62
 1027 1050 1027 1050 968 1122 c 0,63,64
 928 1171 928 1171 821 1204 c 1,65,66
 743 1227 743 1227 540 1227 c 2,67,-1
 494 1227 l 1,55,-1
EndSplineSet
EndChar

StartChar: C
Encoding: 67 67 38
Width: 1438
GlyphClass: 2
Flags: W
LayerCount: 2
Fore
SplineSet
1279 1245 m 1,0,-1
 1320 943 l 1,1,-1
 1273 941 l 1,2,3
 1254 960 1254 960 1215 1028 c 128,-1,4
 1176 1096 1176 1096 1155 1117 c 0,5,6
 1022 1250 1022 1250 835 1250 c 0,7,8
 637 1250 637 1250 494 1104 c 1,9,10
 426 1033 426 1033 385.5 923.5 c 128,-1,11
 345 814 345 814 345 680 c 0,12,13
 345 406 345 406 490 243.5 c 128,-1,14
 635 81 635 81 877 81 c 0,15,16
 1013 81 1013 81 1118.5 137.5 c 128,-1,17
 1224 194 1224 194 1282 304 c 1,18,-1
 1331 297 l 1,19,-1
 1322 108 l 1,20,21
 1213 47 1213 47 1070.5 10.5 c 128,-1,22
 928 -26 928 -26 805 -26 c 0,23,24
 609 -26 609 -26 452 53 c 128,-1,25
 295 132 295 132 203 285 c 128,-1,26
 111 438 111 438 111 640 c 0,27,28
 111 783 111 783 164.5 908.5 c 128,-1,29
 218 1034 218 1034 314 1127 c 128,-1,30
 410 1220 410 1220 552.5 1273.5 c 128,-1,31
 695 1327 695 1327 881.5 1327 c 128,-1,32
 1068 1327 1068 1327 1279 1245 c 1,0,-1
EndSplineSet
EndChar

StartChar: D
Encoding: 68 68 39
Width: 1597
GlyphClass: 2
Flags: W
LayerCount: 2
Fore
SplineSet
665 1225 m 2,0,-1
 497 1225 l 1,1,-1
 497 271 l 2,2,3
 497 86 497 86 645 80 c 0,4,5
 701 77 701 77 780.5 77 c 128,-1,6
 860 77 860 77 944.5 107.5 c 128,-1,7
 1029 138 1029 138 1087 190 c 128,-1,8
 1145 242 1145 242 1186 311 c 0,9,10
 1264 445 1264 445 1264 593 c 128,-1,11
 1264 741 1264 741 1228.5 851 c 128,-1,12
 1193 961 1193 961 1122 1046 c 0,13,14
 972 1225 972 1225 665 1225 c 2,0,-1
282 219 m 2,15,-1
 282 1010 l 2,16,17
 282 1138 282 1138 252 1172 c 0,18,19
 222 1205 222 1205 106 1237 c 0,20,21
 73 1246 73 1246 58 1251 c 1,22,-1
 60 1302 l 1,23,-1
 652 1302 l 2,24,25
 1303 1302 1303 1302 1459 906 c 0,26,27
 1502 796 1502 796 1502 676 c 128,-1,28
 1502 556 1502 556 1473 460.5 c 128,-1,29
 1444 365 1444 365 1384.5 281 c 128,-1,30
 1325 197 1325 197 1240 134 c 0,31,32
 1059 0 1059 0 779 0 c 2,33,-1
 60 0 l 1,34,-1
 58 52 l 1,35,36
 74 57 74 57 116.5 66.5 c 128,-1,37
 159 76 159 76 180.5 84 c 128,-1,38
 202 92 202 92 230 108 c 1,39,40
 282 140 282 140 282 219 c 2,15,-1
EndSplineSet
EndChar

StartChar: E
Encoding: 69 69 40
Width: 1360
GlyphClass: 2
Flags: W
LayerCount: 2
Fore
SplineSet
1080 1302 m 1,0,-1
 1188 1312 l 1,1,2
 1209 1312 1209 1312 1225 1308 c 1,3,-1
 1225 997 l 1,4,-1
 1173 995 l 1,5,6
 1139 1029 1139 1029 1119.5 1085 c 128,-1,7
 1100 1141 1100 1141 1078 1168.5 c 128,-1,8
 1056 1196 1056 1196 1023 1207 c 0,9,10
 938 1235 938 1235 751 1235 c 128,-1,11
 564 1235 564 1235 490 1226 c 1,12,13
 486 1181 486 1181 486 1123 c 2,14,-1
 486 717 l 1,15,-1
 774 717 l 2,16,17
 859 717 859 717 887 728 c 128,-1,18
 915 739 915 739 928 746.5 c 128,-1,19
 941 754 941 754 958 775 c 0,20,21
 975 797 975 797 1012 864 c 2,22,-1
 1027 891 l 1,23,-1
 1084 891 l 1,24,-1
 1084 462 l 1,25,-1
 1027 459 l 1,26,27
 995 545 995 545 945.5 593 c 128,-1,28
 896 641 896 641 813 641 c 2,29,-1
 486 641 l 1,30,-1
 486 304 l 2,31,32
 486 195 486 195 506 158.5 c 128,-1,33
 526 122 526 122 543 106 c 128,-1,34
 560 90 560 90 588 82 c 0,35,36
 636 70 636 70 714 70 c 2,37,-1
 812 70 l 2,38,39
 1015 70 1015 70 1102 138 c 0,40,41
 1142 168 1142 168 1156 196.5 c 128,-1,42
 1170 225 1170 225 1184 256 c 0,43,44
 1209 313 1209 313 1236 342 c 1,45,-1
 1299 342 l 1,46,-1
 1233 -9 l 1,47,48
 1216 -12 1216 -12 1201 -12 c 1,49,-1
 1086 0 l 1,50,-1
 60 0 l 1,51,-1
 58 49 l 1,52,53
 112 79 112 79 164.5 86.5 c 128,-1,54
 217 94 217 94 236 108 c 0,55,56
 271 134 271 134 271 267 c 2,57,-1
 271 1024 l 2,58,59
 271 1160 271 1160 222 1190 c 0,60,61
 198 1205 198 1205 143 1222 c 128,-1,62
 88 1239 88 1239 58 1251 c 1,63,-1
 60 1302 l 1,64,-1
 1080 1302 l 1,0,-1
EndSplineSet
EndChar

StartChar: F
Encoding: 70 70 41
Width: 1274
GlyphClass: 2
Flags: W
LayerCount: 2
Fore
SplineSet
496 733 m 1,0,-1
 709 729 l 1,1,2
 911 729 911 729 954 781 c 0,3,4
 973 805 973 805 990.5 847.5 c 128,-1,5
 1008 890 1008 890 1016 903 c 1,6,-1
 1075 901 l 1,7,-1
 1075 466 l 1,8,9
 1046 463 1046 463 1018 463 c 1,10,11
 969 563 969 563 940.5 598 c 128,-1,12
 912 633 912 633 884 642 c 0,13,14
 834 657 834 657 745 657 c 2,15,-1
 496 657 l 1,16,-1
 496 258 l 2,17,18
 496 156 496 156 525 118 c 0,19,20
 549 87 549 87 590 83 c 0,21,22
 679 73 679 73 740 52 c 1,23,-1
 740 0 l 1,24,-1
 66 0 l 1,25,-1
 64 52 l 1,26,27
 109 73 109 73 166.5 83.5 c 128,-1,28
 224 94 224 94 244 110 c 1,29,30
 281 137 281 137 281 261 c 2,31,-1
 281 1021 l 2,32,33
 281 1163 281 1163 228 1193 c 0,34,35
 200 1209 200 1209 144.5 1224.5 c 128,-1,36
 89 1240 89 1240 58 1251 c 1,37,-1
 58 1302 l 1,38,-1
 1059 1305 l 1,39,-1
 1227 1305 l 1,40,-1
 1227 995 l 1,41,-1
 1182 993 l 1,42,43
 1159 1018 1159 1018 1129 1077.5 c 128,-1,44
 1099 1137 1099 1137 1066 1175.5 c 128,-1,45
 1033 1214 1033 1214 972.5 1223 c 128,-1,46
 912 1232 912 1232 769 1232 c 2,47,-1
 577 1232 l 2,48,49
 524 1232 524 1232 510 1221 c 128,-1,50
 496 1210 496 1210 496 1160 c 2,51,-1
 496 733 l 1,0,-1
EndSplineSet
EndChar

StartChar: G
Encoding: 71 71 42
Width: 1558
GlyphClass: 2
Flags: W
LayerCount: 2
Fore
SplineSet
1365 95 m 1,0,1
 1134 -26 1134 -26 849 -26 c 0,2,3
 507 -26 507 -26 299 156 c 128,-1,4
 91 338 91 338 91 638 c 0,5,6
 91 791 91 791 155 921 c 128,-1,7
 219 1051 219 1051 327.5 1139.5 c 128,-1,8
 436 1228 436 1228 581 1277.5 c 128,-1,9
 726 1327 726 1327 865 1327 c 128,-1,10
 1004 1327 1004 1327 1102.5 1309 c 128,-1,11
 1201 1291 1201 1291 1325 1247 c 1,12,-1
 1355 945 l 1,13,14
 1324 942 1324 942 1297 942 c 1,15,16
 1277 960 1277 960 1244.5 1022 c 128,-1,17
 1212 1084 1212 1084 1199 1100 c 0,18,19
 1073 1250 1073 1250 860 1250 c 0,20,21
 708 1250 708 1250 586.5 1175 c 128,-1,22
 465 1100 465 1100 397.5 968.5 c 128,-1,23
 330 837 330 837 330 675 c 0,24,25
 330 408 330 408 479.5 235 c 128,-1,26
 629 62 629 62 866 62 c 0,27,28
 1028 62 1028 62 1133 127 c 1,29,30
 1145 229 1145 229 1145 352.5 c 128,-1,31
 1145 476 1145 476 1117 553 c 0,32,33
 1099 602 1099 602 993 618 c 0,34,35
 946 625 946 625 929 632 c 1,36,-1
 931 684 l 1,37,-1
 1531 684 l 1,38,39
 1533 648 1533 648 1533 632 c 1,40,41
 1525 629 1525 629 1499 620 c 128,-1,42
 1473 611 1473 611 1463.5 606.5 c 128,-1,43
 1454 602 1454 602 1433.5 592 c 128,-1,44
 1413 582 1413 582 1404.5 571.5 c 128,-1,45
 1396 561 1396 561 1384 546 c 1,46,47
 1365 519 1365 519 1365 463 c 2,48,-1
 1365 95 l 1,0,1
EndSplineSet
EndChar

StartChar: H
Encoding: 72 72 43
Width: 1695
GlyphClass: 2
Flags: W
LayerCount: 2
Fore
SplineSet
1204 625 m 1,0,-1
 490 625 l 1,1,-1
 490 255 l 2,2,3
 490 136 490 136 528 108 c 0,4,5
 549 92 549 92 571 87.5 c 128,-1,6
 593 83 593 83 635 74.5 c 128,-1,7
 677 66 677 66 712 52 c 1,8,-1
 710 0 l 1,9,-1
 66 0 l 1,10,11
 63 51 63 51 63 52 c 0,12,13
 100 68 100 68 204 92 c 1,14,15
 257 103 257 103 268 164 c 0,16,17
 275 200 275 200 275 265 c 2,18,-1
 275 1038 l 2,19,20
 275 1155 275 1155 240 1185 c 0,21,22
 220 1202 220 1202 200 1208 c 128,-1,23
 180 1214 180 1214 139 1225 c 128,-1,24
 98 1236 98 1236 64 1251 c 1,25,-1
 66 1302 l 1,26,-1
 709 1302 l 1,27,-1
 711 1250 l 1,28,29
 677 1234 677 1234 635 1224.5 c 128,-1,30
 593 1215 593 1215 571 1209.5 c 128,-1,31
 549 1204 549 1204 528 1188 c 0,32,33
 490 1158 490 1158 490 1037 c 2,34,-1
 490 712 l 1,35,-1
 1204 712 l 1,36,-1
 1204 1047 l 2,37,38
 1204 1156 1204 1156 1168 1185 c 0,39,40
 1149 1201 1149 1201 1129 1207.5 c 128,-1,41
 1109 1214 1109 1214 1070.5 1225 c 128,-1,42
 1032 1236 1032 1236 1001 1251 c 1,43,-1
 1003 1302 l 1,44,-1
 1630 1302 l 1,45,-1
 1632 1250 l 1,46,47
 1596 1237 1596 1237 1550 1225 c 128,-1,48
 1504 1213 1504 1213 1483.5 1204.5 c 128,-1,49
 1463 1196 1463 1196 1453.5 1184.5 c 128,-1,50
 1444 1173 1444 1173 1434 1153 c 0,51,52
 1419 1120 1419 1120 1419 1030 c 2,53,-1
 1419 267 l 2,54,55
 1419 172 1419 172 1433 141.5 c 128,-1,56
 1447 111 1447 111 1467 100.5 c 128,-1,57
 1487 90 1487 90 1505.5 85.5 c 128,-1,58
 1524 81 1524 81 1562 72 c 128,-1,59
 1600 63 1600 63 1632 52 c 1,60,-1
 1632 0 l 1,61,-1
 1003 0 l 1,62,-1
 1001 52 l 1,63,64
 1040 73 1040 73 1094 83.5 c 128,-1,65
 1148 94 1148 94 1168 108 c 0,66,67
 1204 134 1204 134 1204 252 c 2,68,-1
 1204 625 l 1,0,-1
EndSplineSet
EndChar

StartChar: I
Encoding: 73 73 44
Width: 766
GlyphClass: 2
Flags: W
LayerCount: 2
Fore
SplineSet
491 1081 m 2,0,-1
 491 260 l 2,1,2
 491 139 491 139 529 110 c 0,3,4
 551 94 551 94 572.5 88.5 c 128,-1,5
 594 83 594 83 639.5 74.5 c 128,-1,6
 685 66 685 66 721 53 c 1,7,-1
 719 0 l 1,8,-1
 54 0 l 1,9,-1
 54 52 l 1,10,11
 92 70 92 70 197 86 c 1,12,13
 255 96 255 96 268 162 c 0,14,15
 276 203 276 203 276 278 c 2,16,-1
 276 1030 l 2,17,18
 276 1170 276 1170 231 1197 c 0,19,20
 208 1211 208 1211 184 1214 c 0,21,22
 95 1225 95 1225 50 1251 c 1,23,-1
 52 1302 l 1,24,-1
 715 1302 l 1,25,-1
 717 1250 l 1,26,27
 698 1243 698 1243 658 1233 c 128,-1,28
 618 1223 618 1223 594.5 1214.5 c 128,-1,29
 571 1206 571 1206 544 1190 c 0,30,31
 491 1159 491 1159 491 1081 c 2,0,-1
EndSplineSet
EndChar

StartChar: J
Encoding: 74 74 45
Width: 726
GlyphClass: 2
Flags: W
LayerCount: 2
Fore
SplineSet
49 1302 m 1,0,-1
 716 1302 l 1,1,-1
 716 1251 l 1,2,3
 677 1234 677 1234 614 1221.5 c 128,-1,4
 551 1209 551 1209 529 1194 c 0,5,6
 489 1165 489 1165 489 1044 c 2,7,-1
 489 170 l 2,8,9
 489 -201 489 -201 284 -302 c 0,10,11
 222 -333 222 -333 160 -333 c 128,-1,12
 98 -333 98 -333 55.5 -322.5 c 128,-1,13
 13 -312 13 -312 -22.5 -282 c 128,-1,14
 -58 -252 -58 -252 -58 -210.5 c 128,-1,15
 -58 -169 -58 -169 -32.5 -145.5 c 128,-1,16
 -7 -122 -7 -122 26.5 -122 c 128,-1,17
 60 -122 60 -122 80 -135.5 c 128,-1,18
 100 -149 100 -149 111.5 -167.5 c 128,-1,19
 123 -186 123 -186 133 -205 c 0,20,21
 157 -251 157 -251 195 -251 c 0,22,23
 274 -251 274 -251 274 6 c 2,24,-1
 274 1035 l 2,25,26
 274 1129 274 1129 257 1160.5 c 128,-1,27
 240 1192 240 1192 217.5 1202.5 c 128,-1,28
 195 1213 195 1213 174 1217 c 0,29,30
 99 1232 99 1232 46 1250 c 1,31,-1
 49 1302 l 1,0,-1
EndSplineSet
EndChar

StartChar: K
Encoding: 75 75 46
Width: 1568
GlyphClass: 2
Flags: W
LayerCount: 2
Fore
SplineSet
488 1166 m 2,0,-1
 488 716 l 1,1,-1
 574 716 l 1,2,-1
 1070 1178 l 1,3,4
 1074 1190 1074 1190 1074 1200 c 0,5,6
 1074 1248 1074 1248 977.5 1249.5 c 128,-1,7
 881 1251 881 1251 881 1284 c 0,8,9
 881 1287 881 1287 886 1302 c 1,10,-1
 1430 1302 l 1,11,-1
 1434 1284 l 1,12,13
 1434 1262 1434 1262 1315 1236 c 128,-1,14
 1196 1210 1196 1210 1150 1172 c 1,15,-1
 742 784 l 1,16,-1
 1230 130 l 1,17,18
 1246 112 1246 112 1308 91.5 c 128,-1,19
 1370 71 1370 71 1422 52.5 c 128,-1,20
 1474 34 1474 34 1474 20.5 c 128,-1,21
 1474 7 1474 7 1470 0 c 1,22,-1
 786 0 l 1,23,24
 780 13 780 13 780 17 c 0,25,26
 780 46 780 46 867 52.5 c 128,-1,27
 954 59 954 59 954 102 c 0,28,29
 954 112 954 112 937 134 c 1,30,-1
 578 660 l 1,31,-1
 488 660 l 1,32,-1
 488 124 l 2,33,34
 488 64 488 64 572 56 c 0,35,36
 606 52 606 52 641 51 c 0,37,38
 725 49 725 49 725 19 c 0,39,40
 725 17 725 17 720 0 c 1,41,-1
 50 0 l 1,42,43
 46 12 46 12 46 17 c 0,44,45
 46 49 46 49 160 56 c 0,46,47
 202 58 202 58 237.5 76 c 128,-1,48
 273 94 273 94 273 130 c 2,49,-1
 273 1166 l 2,50,51
 273 1201 273 1201 237.5 1220 c 128,-1,52
 202 1239 202 1239 159 1243 c 0,53,54
 45 1254 45 1254 45 1284 c 0,55,56
 45 1287 45 1287 50 1302 c 1,57,-1
 716 1302 l 1,58,59
 720 1289 720 1289 720 1285 c 0,60,61
 720 1258 720 1258 638 1248 c 1,62,63
 543 1235 543 1235 515.5 1215 c 128,-1,64
 488 1195 488 1195 488 1166 c 2,0,-1
EndSplineSet
EndChar

StartChar: L
Encoding: 76 76 47
Width: 1273
GlyphClass: 2
Flags: W
LayerCount: 2
Fore
SplineSet
709 76 m 1,0,-1
 842 74 l 1,1,2
 952 74 952 74 1027.5 102.5 c 128,-1,3
 1103 131 1103 131 1148 217 c 0,4,5
 1153 227 1153 227 1163.5 249 c 128,-1,6
 1174 271 1174 271 1180 284 c 0,7,8
 1197 317 1197 317 1222 344 c 1,9,-1
 1282 342 l 1,10,-1
 1219 -11 l 1,11,12
 1085 0 1085 0 1000 0 c 2,13,-1
 47 0 l 1,14,-1
 45 54 l 1,15,16
 66 61 66 61 109.5 72.5 c 128,-1,17
 153 84 153 84 175 92.5 c 128,-1,18
 197 101 197 101 224 119 c 0,19,20
 276 153 276 153 276 240 c 2,21,-1
 276 1034 l 2,22,23
 276 1131 276 1131 260 1162 c 128,-1,24
 244 1193 244 1193 221.5 1204 c 128,-1,25
 199 1215 199 1215 179 1219.5 c 128,-1,26
 159 1224 159 1224 119 1232.5 c 128,-1,27
 79 1241 79 1241 46 1251 c 1,28,-1
 48 1302 l 1,29,-1
 724 1302 l 1,30,-1
 724 1250 l 1,31,32
 687 1235 687 1235 642.5 1226.5 c 128,-1,33
 598 1218 598 1218 575.5 1213.5 c 128,-1,34
 553 1209 553 1209 531 1193 c 0,35,36
 492 1165 492 1165 492 1040 c 2,37,-1
 492 312 l 2,38,39
 492 236 492 236 499 194.5 c 128,-1,40
 506 153 506 153 530 124 c 128,-1,41
 554 95 554 95 595 85.5 c 128,-1,42
 636 76 636 76 709 76 c 1,0,-1
EndSplineSet
EndChar

StartChar: M
Encoding: 77 77 48
Width: 1934
GlyphClass: 2
Flags: W
LayerCount: 2
Fore
SplineSet
1616 1082 m 1,0,-1
 1688 271 l 2,1,2
 1697 169 1697 169 1744 117 c 1,3,4
 1753 92 1753 92 1784.5 82.5 c 128,-1,5
 1816 73 1816 73 1855 68.5 c 128,-1,6
 1894 64 1894 64 1909 52 c 1,7,-1
 1907 0 l 1,8,-1
 1284 0 l 1,9,-1
 1282 52 l 1,10,11
 1383 82 1383 82 1402.5 94.5 c 128,-1,12
 1422 107 1422 107 1436 118.5 c 128,-1,13
 1450 130 1450 130 1458 143 c 0,14,15
 1476 175 1476 175 1476 211 c 2,16,-1
 1476 224 l 1,17,-1
 1414 1068 l 1,18,19
 1357 912 1357 912 1189 556 c 128,-1,20
 1021 200 1021 200 959 0 c 1,21,-1
 880 0 l 1,22,23
 830 153 830 153 742.5 332.5 c 128,-1,24
 655 512 655 512 557.5 700.5 c 128,-1,25
 460 889 460 889 405 1029 c 1,26,27
 398 950 398 950 380 780 c 0,28,29
 340 419 340 419 340 232 c 0,30,31
 340 173 340 173 357 150.5 c 128,-1,32
 374 128 374 128 383 117.5 c 128,-1,33
 392 107 392 107 415 96 c 128,-1,34
 438 85 438 85 448.5 80.5 c 128,-1,35
 459 76 459 76 489.5 66 c 128,-1,36
 520 56 520 56 531 52 c 1,37,-1
 529 0 l 1,38,-1
 45 0 l 1,39,-1
 43 52 l 1,40,41
 61 59 61 59 97.5 71 c 128,-1,42
 134 83 134 83 152.5 91.5 c 128,-1,43
 171 100 171 100 194 116 c 0,44,45
 238 147 238 147 246 220 c 2,46,-1
 322 968 l 2,47,48
 329 1040 329 1040 329 1085.5 c 128,-1,49
 329 1131 329 1131 318 1155 c 128,-1,50
 307 1179 307 1179 286 1192 c 128,-1,51
 265 1205 265 1205 244 1213 c 128,-1,52
 223 1221 223 1221 193 1231 c 128,-1,53
 163 1241 163 1241 144 1251 c 1,54,-1
 146 1302 l 1,55,-1
 535 1302 l 1,56,57
 589 1068 589 1068 738 779 c 0,58,59
 915 438 915 438 982 267 c 1,60,61
 1092 488 1092 488 1184.5 697 c 128,-1,62
 1277 906 1277 906 1306 987 c 0,63,64
 1387 1208 1387 1208 1387 1302 c 1,65,-1
 1799 1302 l 1,66,-1
 1801 1250 l 1,67,68
 1680 1210 1680 1210 1650 1176 c 0,69,70
 1616 1139 1616 1139 1616 1082 c 1,0,-1
EndSplineSet
EndChar

StartChar: N
Encoding: 78 78 49
Width: 1661
GlyphClass: 2
Flags: W
LayerCount: 2
Fore
SplineSet
46 54 m 1,0,1
 61 58 61 58 93 66 c 128,-1,2
 125 74 125 74 141.5 79 c 128,-1,3
 158 84 158 84 184 93.5 c 128,-1,4
 210 103 210 103 224.5 114.5 c 128,-1,5
 239 126 239 126 256 143 c 0,6,7
 285 173 285 173 291 239 c 1,8,-1
 291 1091 l 1,9,10
 242 1175 242 1175 154 1208 c 0,11,12
 133 1216 133 1216 96.5 1228 c 128,-1,13
 60 1240 60 1240 36 1250 c 1,14,-1
 36 1302 l 1,15,-1
 385 1302 l 1,16,-1
 1326 329 l 1,17,-1
 1326 958 l 2,18,19
 1326 1183 1326 1183 1214 1212 c 0,20,21
 1189 1219 1189 1219 1152.5 1228.5 c 128,-1,22
 1116 1238 1116 1238 1094 1249 c 1,23,24
 1094 1275 1094 1275 1097 1302 c 1,25,-1
 1624 1302 l 1,26,-1
 1624 1248 l 1,27,28
 1603 1238 1603 1238 1570.5 1224 c 128,-1,29
 1538 1210 1538 1210 1525.5 1204.5 c 128,-1,30
 1513 1199 1513 1199 1491.5 1187 c 128,-1,31
 1470 1175 1470 1175 1463 1168 c 128,-1,32
 1456 1161 1456 1161 1443.5 1145.5 c 128,-1,33
 1431 1130 1431 1130 1428.5 1115.5 c 128,-1,34
 1426 1101 1426 1101 1420 1077 c 0,35,36
 1408 1022 1408 1022 1408 353 c 0,37,38
 1408 288 1408 288 1419 167 c 128,-1,39
 1430 46 1430 46 1431 -9 c 1,40,41
 1412 -16 1412 -16 1381 -16 c 128,-1,42
 1350 -16 1350 -16 1325 -9 c 1,43,44
 1237 100 1237 100 1161 178 c 1,45,-1
 371 1009 l 1,46,-1
 371 307 l 2,47,48
 371 139 371 139 438 104 c 0,49,50
 475 85 475 85 532.5 75.5 c 128,-1,51
 590 66 590 66 615 53 c 1,52,53
 615 27 615 27 612 0 c 1,54,-1
 48 0 l 1,55,56
 46 18 46 18 46 54 c 1,0,1
EndSplineSet
EndChar

StartChar: O
Encoding: 79 79 50
Width: 1580
GlyphClass: 2
Flags: W
LayerCount: 2
Fore
SplineSet
333 690 m 0,0,1
 333 532 333 532 395.5 379 c 128,-1,2
 458 226 458 226 571 138.5 c 128,-1,3
 684 51 684 51 825 51 c 0,4,5
 1009 51 1009 51 1127.5 194.5 c 128,-1,6
 1246 338 1246 338 1246 585 c 0,7,8
 1246 771 1246 771 1185 922 c 128,-1,9
 1124 1073 1124 1073 1011.5 1161.5 c 128,-1,10
 899 1250 899 1250 757 1250 c 0,11,12
 580 1250 580 1250 460 1118 c 0,13,14
 333 978 333 978 333 690 c 0,0,1
156 360 m 128,-1,16
 100 487 100 487 100 645 c 128,-1,17
 100 803 100 803 159.5 937 c 128,-1,18
 219 1071 219 1071 318 1154 c 1,19,20
 521 1327 521 1327 792 1327 c 0,21,22
 932 1327 932 1327 1057 1278.5 c 128,-1,23
 1182 1230 1182 1230 1275.5 1143.5 c 128,-1,24
 1369 1057 1369 1057 1424 928.5 c 128,-1,25
 1479 800 1479 800 1479 649.5 c 128,-1,26
 1479 499 1479 499 1422.5 371.5 c 128,-1,27
 1366 244 1366 244 1269.5 157.5 c 128,-1,28
 1173 71 1173 71 1044 22.5 c 128,-1,29
 915 -26 915 -26 778 -26 c 128,-1,30
 641 -26 641 -26 520 20.5 c 128,-1,31
 399 67 399 67 305.5 150 c 128,-1,15
 212 233 212 233 156 360 c 128,-1,16
EndSplineSet
EndChar

StartChar: P
Encoding: 80 80 51
Width: 1294
GlyphClass: 2
Flags: W
LayerCount: 2
Fore
SplineSet
274 222 m 2,0,-1
 274 1031 l 2,1,2
 274 1124 274 1124 258.5 1153.5 c 128,-1,3
 243 1183 243 1183 222.5 1194.5 c 128,-1,4
 202 1206 202 1206 183 1212 c 0,5,6
 96 1237 96 1237 63 1251 c 1,7,-1
 65 1302 l 1,8,-1
 561 1302 l 2,9,10
 755 1302 755 1302 828 1291 c 128,-1,11
 901 1280 901 1280 955 1267 c 128,-1,12
 1009 1254 1009 1254 1047 1236 c 128,-1,13
 1085 1218 1085 1218 1124 1190 c 128,-1,14
 1163 1162 1163 1162 1187 1127 c 0,15,16
 1241 1048 1241 1048 1241 944.5 c 128,-1,17
 1241 841 1241 841 1204 764.5 c 128,-1,18
 1167 688 1167 688 1102 642 c 1,19,20
 973 548 973 548 780 548 c 0,21,22
 735 548 735 548 653.5 566.5 c 128,-1,23
 572 585 572 585 572 614 c 0,24,25
 572 632 572 632 616 632 c 2,26,-1
 631 632 l 2,27,28
 858 632 858 632 938 712 c 0,29,30
 1008 782 1008 782 1008 925 c 0,31,32
 1008 1115 1008 1115 820 1192 c 0,33,34
 721 1232 721 1232 587 1232 c 0,35,36
 543 1232 543 1232 490 1227 c 1,37,-1
 490 275 l 2,38,39
 490 165 490 165 506 135.5 c 128,-1,40
 522 106 522 106 543 97 c 128,-1,41
 564 88 564 88 585 85 c 0,42,43
 662 74 662 74 717 52 c 1,44,-1
 715 0 l 1,45,-1
 65 0 l 1,46,-1
 62 52 l 1,47,48
 72 55 72 55 98 62 c 128,-1,49
 124 69 124 69 136 72.5 c 128,-1,50
 148 76 148 76 170.5 84.5 c 128,-1,51
 193 93 193 93 204.5 100.5 c 128,-1,52
 216 108 216 108 231.5 120.5 c 128,-1,53
 247 133 247 133 255 146 c 0,54,55
 274 179 274 179 274 222 c 2,0,-1
EndSplineSet
EndChar

StartChar: Q
Encoding: 81 81 52
Width: 1580
GlyphClass: 2
Flags: W
LayerCount: 2
Fore
SplineSet
334 729 m 0,0,1
 334 577 334 577 372.5 448.5 c 128,-1,2
 411 320 411 320 478 234 c 0,3,4
 618 51 618 51 823 51 c 0,5,6
 1000 51 1000 51 1120 186 c 1,7,8
 1246 326 1246 326 1246 587 c 0,9,10
 1246 769 1246 769 1185.5 920 c 128,-1,11
 1125 1071 1125 1071 1012.5 1160.5 c 128,-1,12
 900 1250 900 1250 758 1250 c 0,13,14
 577 1250 577 1250 455.5 1107.5 c 128,-1,15
 334 965 334 965 334 729 c 0,0,1
1578 -213 m 1,16,-1
 1590 -285 l 1,17,18
 1503 -314 1503 -314 1395 -314 c 128,-1,19
 1287 -314 1287 -314 1216 -298 c 128,-1,20
 1145 -282 1145 -282 1063 -243 c 128,-1,21
 981 -204 981 -204 843 -129.5 c 128,-1,22
 705 -55 705 -55 638 -11 c 1,23,24
 392 54 392 54 246 219.5 c 128,-1,25
 100 385 100 385 100 641 c 0,26,27
 100 795 100 795 155 925 c 128,-1,28
 210 1055 210 1055 304.5 1142 c 128,-1,29
 399 1229 399 1229 525 1278 c 128,-1,30
 651 1327 651 1327 815.5 1327 c 128,-1,31
 980 1327 980 1327 1135.5 1245 c 128,-1,32
 1291 1163 1291 1163 1385 1007 c 128,-1,33
 1479 851 1479 851 1479 651 c 0,34,35
 1479 388 1479 388 1314 210 c 0,36,37
 1153 35 1153 35 912 -11 c 1,38,39
 1129 -115 1129 -115 1254 -155 c 128,-1,40
 1379 -195 1379 -195 1578 -213 c 1,16,-1
EndSplineSet
EndChar

StartChar: R
Encoding: 82 82 53
Width: 1413
GlyphClass: 2
Flags: W
LayerCount: 2
Fore
SplineSet
1445 -2 m 1,0,1
 1346 -26 1346 -26 1274 -26 c 128,-1,2
 1202 -26 1202 -26 1138.5 3.5 c 128,-1,3
 1075 33 1075 33 1027.5 75.5 c 128,-1,4
 980 118 980 118 928.5 185 c 128,-1,5
 877 252 877 252 844 305.5 c 128,-1,6
 811 359 811 359 767 432.5 c 128,-1,7
 723 506 723 506 694 550 c 128,-1,8
 665 594 665 594 639.5 611 c 128,-1,9
 614 628 614 628 556 632 c 2,10,-1
 493 636 l 1,11,-1
 493 251 l 2,12,13
 493 132 493 132 532 106 c 0,14,15
 553 91 553 91 576 87 c 0,16,17
 668 71 668 71 709 52 c 1,18,-1
 707 0 l 1,19,-1
 74 0 l 1,20,-1
 72 52 l 1,21,22
 113 74 113 74 168 83.5 c 128,-1,23
 223 93 223 93 242 108 c 0,24,25
 278 135 278 135 278 277 c 2,26,-1
 278 1035 l 2,27,28
 278 1125 278 1125 262.5 1153.5 c 128,-1,29
 247 1182 247 1182 227 1193.5 c 128,-1,30
 207 1205 207 1205 188 1210 c 0,31,32
 111 1234 111 1234 72 1251 c 1,33,-1
 74 1303 l 1,34,-1
 535 1303 l 2,35,36
 732 1303 732 1303 798.5 1294 c 128,-1,37
 865 1285 865 1285 923 1273.5 c 128,-1,38
 981 1262 981 1262 1019 1245.5 c 128,-1,39
 1057 1229 1057 1229 1099 1203.5 c 128,-1,40
 1141 1178 1141 1178 1166 1146 c 0,41,42
 1223 1071 1223 1071 1223 984.5 c 128,-1,43
 1223 898 1223 898 1191 839 c 128,-1,44
 1159 780 1159 780 1106 742 c 0,45,46
 1001 668 1001 668 859 647 c 1,47,48
 895 601 895 601 968 504 c 0,49,50
 1114 310 1114 310 1205.5 202 c 128,-1,51
 1297 94 1297 94 1445 54 c 1,52,-1
 1445 -2 l 1,0,1
493 703 m 1,53,-1
 545 704 l 2,54,55
 589 705 589 705 611.5 705.5 c 128,-1,56
 634 706 634 706 678 709 c 128,-1,57
 722 712 722 712 746.5 716.5 c 128,-1,58
 771 721 771 721 809 730 c 128,-1,59
 847 739 847 739 868.5 751 c 128,-1,60
 890 763 890 763 916.5 782.5 c 128,-1,61
 943 802 943 802 957 826 c 0,62,63
 990 884 990 884 990 943 c 128,-1,64
 990 1002 990 1002 979.5 1038 c 128,-1,65
 969 1074 969 1074 953.5 1100 c 128,-1,66
 938 1126 938 1126 910.5 1146.5 c 128,-1,67
 883 1167 883 1167 858.5 1180.5 c 128,-1,68
 834 1194 834 1194 794.5 1203 c 128,-1,69
 755 1212 755 1212 727.5 1216.5 c 128,-1,70
 700 1221 700 1221 654 1224 c 0,71,72
 591 1227 591 1227 515 1227 c 2,73,-1
 493 1227 l 1,74,-1
 493 703 l 1,53,-1
EndSplineSet
EndChar

StartChar: S
Encoding: 83 83 54
Width: 1142
GlyphClass: 2
Flags: W
LayerCount: 2
Fore
SplineSet
120 77 m 1,0,-1
 120 400 l 1,1,-1
 179 402 l 1,2,3
 194 379 194 379 223 280.5 c 128,-1,4
 252 182 252 182 350 120 c 128,-1,5
 448 58 448 58 563.5 58 c 128,-1,6
 679 58 679 58 762.5 113 c 128,-1,7
 846 168 846 168 846 268 c 0,8,9
 846 364 846 364 735 444 c 0,10,11
 625 523 625 523 525 575 c 128,-1,12
 425 627 425 627 361.5 670.5 c 128,-1,13
 298 714 298 714 248 759 c 0,14,15
 137 859 137 859 137 991 c 0,16,17
 137 1193 137 1193 338 1280 c 0,18,19
 448 1327 448 1327 587 1327 c 0,20,21
 787 1327 787 1327 968 1234 c 1,22,-1
 981 949 l 1,23,-1
 919 949 l 1,24,25
 913 960 913 960 880 1054.5 c 128,-1,26
 847 1149 847 1149 763.5 1199.5 c 128,-1,27
 680 1250 680 1250 571 1250 c 0,28,29
 441 1250 441 1250 366 1174 c 1,30,31
 324 1133 324 1133 324 1078 c 128,-1,32
 324 1023 324 1023 363.5 974.5 c 128,-1,33
 403 926 403 926 466.5 885.5 c 128,-1,34
 530 845 530 845 606 803.5 c 128,-1,35
 682 762 682 762 758.5 715 c 128,-1,36
 835 668 835 668 898 616 c 0,37,38
 1041 499 1041 499 1041 344 c 0,39,40
 1041 126 1041 126 830 28 c 0,41,42
 629 -65 629 -65 324 2 c 0,43,44
 198 29 198 29 120 77 c 1,0,-1
EndSplineSet
EndChar

StartChar: T
Encoding: 84 84 55
Width: 1395
GlyphClass: 2
Flags: W
LayerCount: 2
Fore
SplineSet
954 1229 m 2,0,-1
 820 1228 l 1,1,-1
 801 1228 l 1,2,-1
 801 241 l 2,3,4
 801 138 801 138 848 104 c 256,5,6
 895 70 895 70 970 60 c 0,7,8
 989 57 989 57 1027 52 c 1,9,10
 1027 17 1027 17 1025 0 c 1,11,-1
 363 0 l 1,12,-1
 361 52 l 1,13,14
 378 58 378 58 414 68.5 c 128,-1,15
 450 79 450 79 468.5 85 c 128,-1,16
 487 91 487 91 513 105 c 128,-1,17
 539 119 539 119 552 136 c 1,18,19
 586 176 586 176 586 241 c 2,20,-1
 586 1228 l 1,21,-1
 440 1228 l 2,22,23
 348 1228 348 1228 302.5 1221 c 128,-1,24
 257 1214 257 1214 224 1185 c 128,-1,25
 191 1156 191 1156 170.5 1123.5 c 128,-1,26
 150 1091 150 1091 123.5 1047 c 128,-1,27
 97 1003 97 1003 80 982 c 1,28,-1
 34 982 l 1,29,-1
 59 1308 l 1,30,31
 213 1302 213 1302 291 1302 c 2,32,-1
 875 1298 l 1,33,34
 1151 1298 1151 1298 1333 1310 c 1,35,-1
 1365 981 l 1,36,-1
 1317 981 l 1,37,38
 1300 1002 1300 1002 1263.5 1067 c 128,-1,39
 1227 1132 1227 1132 1191 1172.5 c 128,-1,40
 1155 1213 1155 1213 1103.5 1221 c 128,-1,41
 1052 1229 1052 1229 954 1229 c 2,0,-1
EndSplineSet
EndChar

StartChar: U
Encoding: 85 85 56
Width: 1639
GlyphClass: 2
Flags: W
LayerCount: 2
Fore
SplineSet
239 664 m 1,0,-1
 244 1024 l 1,1,2
 244 1098 244 1098 236 1132.5 c 128,-1,3
 228 1167 228 1167 201.5 1187 c 128,-1,4
 175 1207 175 1207 148.5 1215.5 c 128,-1,5
 122 1224 122 1224 81 1235 c 128,-1,6
 40 1246 40 1246 26 1251 c 1,7,-1
 29 1302 l 1,8,-1
 689 1302 l 1,9,-1
 691 1250 l 1,10,11
 634 1230 634 1230 584.5 1220.5 c 128,-1,12
 535 1211 535 1211 513 1200 c 128,-1,13
 491 1189 491 1189 482 1170 c 0,14,15
 459 1123 459 1123 459 1023 c 2,16,-1
 459 596 l 2,17,18
 459 304 459 304 593 178 c 0,19,20
 695 82 695 82 888 82 c 0,21,22
 1317 82 1317 82 1317 613 c 2,23,-1
 1317 1006 l 2,24,25
 1317 1108 1317 1108 1304.5 1137.5 c 128,-1,26
 1292 1167 1292 1167 1282 1179.5 c 128,-1,27
 1272 1192 1272 1192 1249.5 1201.5 c 128,-1,28
 1227 1211 1227 1211 1208 1216 c 128,-1,29
 1189 1221 1189 1221 1152 1230.5 c 128,-1,30
 1115 1240 1115 1240 1084 1251 c 1,31,-1
 1084 1302 l 1,32,-1
 1623 1302 l 1,33,-1
 1625 1250 l 1,34,35
 1603 1238 1603 1238 1551.5 1230 c 128,-1,36
 1500 1222 1500 1222 1464 1206 c 0,37,38
 1399 1176 1399 1176 1399 1022 c 1,39,-1
 1403 714 l 1,40,41
 1403 410 1403 410 1340 261 c 0,42,43
 1280 119 1280 119 1166 52 c 0,44,45
 1033 -26 1033 -26 821 -26 c 0,46,47
 548 -26 548 -26 386 121 c 0,48,49
 271 225 271 225 251 401 c 1,50,51
 239 517 239 517 239 664 c 1,0,-1
EndSplineSet
EndChar

StartChar: V
Encoding: 86 86 57
Width: 1405
GlyphClass: 2
Flags: W
LayerCount: 2
Fore
SplineSet
581 1302 m 1,0,-1
 587 1242 l 1,1,2
 577 1239 577 1239 548.5 1232 c 128,-1,3
 520 1225 520 1225 498.5 1218.5 c 128,-1,4
 477 1212 477 1212 453 1202 c 0,5,6
 402 1179 402 1179 402 1144.5 c 128,-1,7
 402 1110 402 1110 474.5 943.5 c 128,-1,8
 547 777 547 777 645.5 559.5 c 128,-1,9
 744 342 744 342 779 251 c 1,10,11
 803 317 803 317 892 524 c 0,12,13
 1102 1012 1102 1012 1102 1114 c 0,14,15
 1102 1173 1102 1173 1054 1196 c 0,16,17
 1016 1215 1016 1215 968.5 1225 c 128,-1,18
 921 1235 921 1235 905 1240 c 1,19,20
 902 1254 902 1254 902 1270 c 128,-1,21
 902 1286 902 1286 905 1302 c 1,22,-1
 1421 1302 l 1,23,24
 1424 1275 1424 1275 1424 1247 c 1,25,26
 1398 1229 1398 1229 1295 1181 c 0,27,28
 1261 1165 1261 1165 1229.5 1118.5 c 128,-1,29
 1198 1072 1198 1072 1180.5 1028 c 128,-1,30
 1163 984 1163 984 1140 919.5 c 128,-1,31
 1117 855 1117 855 1086 783 c 0,32,33
 1014 611 1014 611 828 139 c 1,34,-1
 770 -11 l 1,35,36
 738 -19 738 -19 716 -19 c 128,-1,37
 694 -19 694 -19 680 -17 c 1,38,39
 201 1085 201 1085 152 1154 c 1,40,41
 122 1198 122 1198 60 1222 c 0,42,43
 37 1231 37 1231 -10 1245 c 1,44,-1
 -8 1302 l 1,45,-1
 581 1302 l 1,0,-1
EndSplineSet
EndChar

StartChar: W
Encoding: 87 87 58
Width: 1916
GlyphClass: 2
Flags: W
LayerCount: 2
Fore
SplineSet
547 1302 m 1,0,-1
 552 1282 l 1,1,2
 552 1244 552 1244 463.5 1240.5 c 128,-1,3
 375 1237 375 1237 375 1182 c 0,4,5
 375 1153 375 1153 665 353 c 1,6,-1
 934 1071 l 1,7,8
 926 1091 926 1091 909.5 1131.5 c 128,-1,9
 893 1172 893 1172 885 1192 c 1,10,11
 875 1201 875 1201 828 1219 c 0,12,13
 700 1267 700 1267 700 1282 c 1,14,-1
 707 1302 l 1,15,-1
 1349 1302 l 1,16,-1
 1355 1282 l 1,17,18
 1355 1240 1355 1240 1263 1240 c 1,19,-1
 1256 1241 l 1,20,21
 1163 1241 1163 1241 1163 1188 c 0,22,23
 1163 1167 1163 1167 1275.5 813 c 128,-1,24
 1388 459 1388 459 1424 355 c 1,25,26
 1428 368 1428 368 1463 472.5 c 128,-1,27
 1498 577 1498 577 1531.5 679.5 c 128,-1,28
 1565 782 1565 782 1602 898 c 0,29,30
 1686 1156 1686 1156 1686 1187.5 c 128,-1,31
 1686 1219 1686 1219 1649.5 1233 c 128,-1,32
 1613 1247 1613 1247 1559 1253.5 c 128,-1,33
 1505 1260 1505 1260 1485 1271 c 1,34,-1
 1479 1282 l 1,35,-1
 1485 1302 l 1,36,-1
 2002 1302 l 2,37,38
 2013 1302 2013 1302 2020 1291 c 1,39,40
 2020 1260 2020 1260 1896 1242 c 0,41,42
 1849 1235 1849 1235 1803.5 1213 c 128,-1,43
 1758 1191 1758 1191 1746 1157.5 c 128,-1,44
 1734 1124 1734 1124 1696 992 c 1,45,-1
 1397 1 l 2,46,47
 1391 -19 1391 -19 1357 -19 c 128,-1,48
 1323 -19 1323 -19 1310 5.5 c 128,-1,49
 1297 30 1297 30 1277.5 96 c 128,-1,50
 1258 162 1258 162 1256 167 c 2,51,-1
 972 994 l 1,52,-1
 713 249 l 2,53,54
 704 224 704 224 688 171 c 0,55,56
 655 58 655 58 627 1 c 0,57,58
 616 -21 616 -21 592.5 -21 c 128,-1,59
 569 -21 569 -21 554.5 -7 c 128,-1,60
 540 7 540 7 528.5 31.5 c 128,-1,61
 517 56 517 56 509 78 c 128,-1,62
 501 100 501 100 493 126.5 c 128,-1,63
 485 153 485 153 468 200 c 0,64,65
 222 860 222 860 120 1128 c 0,66,67
 94 1196 94 1196 18 1219 c 0,68,69
 -66 1245 -66 1245 -103 1280 c 1,70,-1
 -96 1302 l 1,71,-1
 547 1302 l 1,0,-1
EndSplineSet
EndChar

StartChar: X
Encoding: 88 88 59
Width: 1463
GlyphClass: 2
Flags: W
LayerCount: 2
Fore
SplineSet
1053 1029 m 2,0,-1
 811 725 l 1,1,-1
 1182 236 l 2,2,3
 1242 157 1242 157 1278.5 125.5 c 128,-1,4
 1315 94 1315 94 1349 84.5 c 128,-1,5
 1383 75 1383 75 1404 70 c 1,6,7
 1445 58 1445 58 1462 52 c 1,8,9
 1462 38 1462 38 1460 0 c 1,10,-1
 808 0 l 1,11,12
 806 17 806 17 806 52 c 1,13,14
 962 87 962 87 962 156 c 0,15,16
 962 189 962 189 942 216 c 2,17,-1
 679 565 l 1,18,-1
 456 294 l 2,19,20
 377 197 377 197 377 144 c 0,21,22
 377 89 377 89 541 57 c 1,23,24
 542 48 542 48 542 29.5 c 128,-1,25
 542 11 542 11 541 0 c 1,26,-1
 20 0 l 1,27,28
 18 17 18 17 18 52 c 1,29,30
 29 56 29 56 66 68 c 128,-1,31
 103 80 103 80 128 90 c 0,32,33
 203 119 203 119 245 165 c 1,34,35
 285 211 285 211 319 252 c 2,36,-1
 632 628 l 1,37,-1
 273 1097 l 2,38,39
 224 1161 224 1161 181 1183 c 128,-1,40
 138 1205 138 1205 116.5 1213.5 c 128,-1,41
 95 1222 95 1222 64 1231.5 c 128,-1,42
 33 1241 33 1241 21 1246 c 1,43,44
 21 1279 21 1279 23 1302 c 1,45,-1
 665 1302 l 1,46,47
 667 1268 667 1268 667 1250 c 1,48,49
 602 1237 602 1237 557 1209.5 c 128,-1,50
 512 1182 512 1182 512 1144 c 0,51,52
 512 1129 512 1129 529 1095 c 1,53,-1
 762 788 l 1,54,-1
 945 1014 l 2,55,56
 983 1062 983 1062 995 1083.5 c 128,-1,57
 1007 1105 1007 1105 1007 1137.5 c 128,-1,58
 1007 1170 1007 1170 967.5 1201.5 c 128,-1,59
 928 1233 928 1233 861 1246 c 1,60,61
 859 1254 859 1254 859 1272.5 c 128,-1,62
 859 1291 859 1291 861 1302 c 1,63,-1
 1374 1302 l 1,64,65
 1376 1285 1376 1285 1376 1250 c 1,66,67
 1369 1247 1369 1247 1332.5 1235 c 128,-1,68
 1296 1223 1296 1223 1268 1212 c 0,69,70
 1187 1181 1187 1181 1139 1129.5 c 128,-1,71
 1091 1078 1091 1078 1053 1029 c 2,0,-1
EndSplineSet
EndChar

StartChar: Y
Encoding: 89 89 60
Width: 1330
GlyphClass: 2
Flags: W
LayerCount: 2
Fore
SplineSet
1341 1250 m 1,0,1
 1262 1217 1262 1217 1234 1204 c 0,2,3
 1152 1163 1152 1163 1103 1086 c 1,4,-1
 775 583 l 1,5,-1
 775 246 l 2,6,7
 775 132 775 132 816 106 c 0,8,9
 837 92 837 92 860 88 c 0,10,11
 959 68 959 68 992 52 c 1,12,-1
 990 0 l 1,13,-1
 344 0 l 1,14,-1
 342 52 l 1,15,16
 388 78 388 78 442 84 c 128,-1,17
 496 90 496 90 518 103 c 0,18,19
 560 128 560 128 560 254 c 2,20,-1
 560 562 l 1,21,-1
 195 1134 l 2,22,23
 172 1170 172 1170 109 1205 c 128,-1,24
 46 1240 46 1240 -2 1251 c 1,25,-1
 -2 1302 l 1,26,-1
 618 1302 l 1,27,-1
 620 1250 l 1,28,29
 537 1235 537 1235 498 1204.5 c 128,-1,30
 459 1174 459 1174 459 1147.5 c 128,-1,31
 459 1121 459 1121 498.5 1050 c 128,-1,32
 538 979 538 979 583 910 c 0,33,34
 673 773 673 773 744 667 c 1,35,36
 745 669 745 669 794.5 743 c 128,-1,37
 844 817 844 817 886 883 c 0,38,39
 1004 1071 1004 1071 1004 1140 c 0,40,41
 1004 1198 1004 1198 906 1227 c 0,42,43
 892 1231 892 1231 869 1237.5 c 128,-1,44
 846 1244 846 1244 839 1246 c 1,45,-1
 837 1273 l 2,46,47
 837 1280 837 1280 839 1302 c 1,48,-1
 1339 1302 l 1,49,-1
 1341 1250 l 1,0,1
EndSplineSet
EndChar

StartChar: Z
Encoding: 90 90 61
Width: 1285
GlyphClass: 2
Flags: W
LayerCount: 2
Fore
SplineSet
192 1307 m 1,0,-1
 1178 1302 l 1,1,2
 1191 1297 1191 1297 1191 1272 c 2,3,-1
 1190 1245 l 1,4,-1
 425 198 l 2,5,6
 375 129 375 129 351 89 c 1,7,8
 399 74 399 74 441 74 c 2,9,-1
 580 74 l 2,10,11
 923 74 923 74 988 125 c 0,12,13
 1018 149 1018 149 1061 229 c 128,-1,14
 1104 309 1104 309 1153 359 c 1,15,-1
 1209 357 l 1,16,-1
 1149 -10 l 1,17,-1
 1108 -10 l 1,18,-1
 964 0 l 1,19,-1
 67 0 l 1,20,-1
 63 43 l 1,21,-1
 843 1119 l 1,22,-1
 917 1225 l 1,23,-1
 521 1225 l 2,24,25
 393 1225 393 1225 361 1207 c 0,26,27
 299 1172 299 1172 266 1112 c 1,28,29
 221 1022 221 1022 186 972 c 1,30,31
 160 972 160 972 133 975 c 1,32,-1
 160 1307 l 1,33,-1
 192 1307 l 1,0,-1
EndSplineSet
EndChar

StartChar: bracketleft
Encoding: 91 91 62
Width: 662
GlyphClass: 2
Flags: W
LayerCount: 2
Fore
SplineSet
184 292 m 1,0,-1
 173 1449 l 2,1,2
 173 1475 173 1475 203 1499.5 c 128,-1,3
 233 1524 233 1524 260 1524 c 2,4,-1
 717 1529 l 2,5,6
 757 1529 757 1529 786.5 1510.5 c 128,-1,7
 816 1492 816 1492 816 1455 c 0,8,9
 816 1380 816 1380 721 1380 c 2,10,-1
 329 1380 l 1,11,-1
 311 532 l 1,12,13
 311 268 311 268 316 -62 c 1,14,-1
 682 -56 l 2,15,16
 708 -56 708 -56 732.5 -86 c 128,-1,17
 757 -116 757 -116 757 -143 c 0,18,19
 757 -214 757 -214 669 -214 c 1,20,-1
 243 -199 l 1,21,22
 206 -199 206 -199 192.5 -178.5 c 128,-1,23
 179 -158 179 -158 179 -119 c 2,24,-1
 184 292 l 1,0,-1
EndSplineSet
EndChar

StartChar: backslash
Encoding: 92 92 63
Width: 689
GlyphClass: 2
Flags: W
LayerCount: 2
Fore
SplineSet
17 1378 m 1,0,1
 48 1402 48 1402 97 1402 c 1,2,3
 151 1352 151 1352 180.5 1255.5 c 128,-1,4
 210 1159 210 1159 216 1142 c 2,5,-1
 617 72 l 2,6,7
 634 27 634 27 638.5 -40.5 c 128,-1,8
 643 -108 643 -108 644 -117 c 1,9,-1
 625 -117 l 2,10,11
 586 -117 586 -117 567 -112 c 1,12,13
 533 -39 533 -39 488 93.5 c 128,-1,14
 443 226 443 226 267.5 676 c 128,-1,15
 92 1126 92 1126 17 1378 c 1,0,1
EndSplineSet
EndChar

StartChar: bracketright
Encoding: 93 93 64
Width: 664
GlyphClass: 2
Flags: W
LayerCount: 2
Fore
SplineSet
426 -199 m 1,0,-1
 0 -214 l 1,1,2
 -88 -214 -88 -214 -88 -143 c 0,3,4
 -88 -54 -88 -54 59 -54 c 1,5,-1
 208 -63 l 1,6,-1
 353 -63 l 1,7,8
 358 267 358 267 358 532 c 1,9,-1
 340 1380 l 1,10,-1
 -66 1380 l 2,11,12
 -98 1380 -98 1380 -122.5 1401.5 c 128,-1,13
 -147 1423 -147 1423 -147 1457.5 c 128,-1,14
 -147 1492 -147 1492 -117.5 1510.5 c 128,-1,15
 -88 1529 -88 1529 -48 1529 c 2,16,-1
 409 1524 l 2,17,18
 436 1524 436 1524 466 1499.5 c 128,-1,19
 496 1475 496 1475 496 1449 c 2,20,-1
 488 440 l 2,21,22
 488 315 488 315 496.5 152.5 c 128,-1,23
 505 -10 505 -10 505 -69 c 128,-1,24
 505 -128 505 -128 488 -163.5 c 128,-1,25
 471 -199 471 -199 426 -199 c 1,0,-1
EndSplineSet
EndChar

StartChar: asciicircum
Encoding: 94 94 65
Width: 1192
GlyphClass: 2
Flags: W
LayerCount: 2
Fore
SplineSet
653 1369 m 1,0,1
 667 1344 667 1344 736.5 1223.5 c 128,-1,2
 806 1103 806 1103 836 1048 c 0,3,4
 936 870 936 870 994 738 c 1,5,6
 954 722 954 722 899 722 c 1,7,8
 810 826 810 826 715 988.5 c 128,-1,9
 620 1151 620 1151 594 1193 c 1,10,11
 559 1139 559 1139 500 1042 c 0,12,13
 365 821 365 821 288 722 c 1,14,15
 234 722 234 722 194 738 c 1,16,17
 251 870 251 870 364 1068 c 128,-1,18
 477 1266 477 1266 501.5 1310.5 c 128,-1,19
 526 1355 526 1355 573 1392 c 1,20,21
 616 1392 616 1392 653 1369 c 1,0,1
EndSplineSet
EndChar

StartChar: underscore
Encoding: 95 95 66
Width: 935
GlyphClass: 2
Flags: W
LayerCount: 2
Fore
SplineSet
893 -129 m 1,0,1
 855 -147 855 -147 768 -147 c 2,2,-1
 102 -147 l 1,3,4
 71 -134 71 -134 57.5 -117 c 128,-1,5
 44 -100 44 -100 44 -68 c 1,6,7
 89 -49 89 -49 196 -49 c 2,8,-1
 835 -49 l 1,9,10
 893 -74 893 -74 893 -129 c 1,0,1
EndSplineSet
EndChar

StartChar: grave
Encoding: 96 96 67
Width: 968
GlyphClass: 2
Flags: W
LayerCount: 2
Fore
SplineSet
424 1284 m 128,-1,1
 280 1417 280 1417 255.5 1438.5 c 128,-1,2
 231 1460 231 1460 231 1489 c 128,-1,3
 231 1518 231 1518 256 1544 c 128,-1,4
 281 1570 281 1570 314.5 1570 c 128,-1,5
 348 1570 348 1570 373 1536 c 0,6,7
 649 1166 649 1166 660 1151 c 128,-1,8
 671 1136 671 1136 671 1122 c 0,9,10
 671 1096 671 1096 648 1096 c 0,11,12
 631 1096 631 1096 599.5 1123.5 c 128,-1,0
 568 1151 568 1151 424 1284 c 128,-1,1
EndSplineSet
EndChar

StartChar: a
Encoding: 97 97 68
Width: 985
GlyphClass: 2
Flags: W
LayerCount: 2
Fore
SplineSet
621 200 m 1,0,-1
 621 455 l 1,1,2
 613 452 613 452 571 439 c 128,-1,3
 529 426 529 426 507 417.5 c 128,-1,4
 485 409 485 409 444.5 392.5 c 128,-1,5
 404 376 404 376 380 360 c 128,-1,6
 356 344 356 344 330 322 c 0,7,8
 279 280 279 280 279 220.5 c 128,-1,9
 279 161 279 161 311.5 127 c 128,-1,10
 344 93 344 93 403 93 c 0,11,12
 512 93 512 93 621 200 c 1,0,-1
808 541 m 1,13,-1
 802 324 l 1,14,15
 802 99 802 99 849 99 c 0,16,17
 883 99 883 99 937 168 c 1,18,-1
 979 123 l 1,19,20
 950 75 950 75 927 48 c 0,21,22
 871 -20 871 -20 792 -20 c 128,-1,23
 713 -20 713 -20 670.5 21.5 c 128,-1,24
 628 63 628 63 624 129 c 1,25,26
 487 -20 487 -20 312 -20 c 0,27,28
 215 -20 215 -20 148.5 32 c 128,-1,29
 82 84 82 84 82 178 c 0,30,31
 82 380 82 380 463 476 c 0,32,33
 497 484 497 484 549 496.5 c 128,-1,34
 601 509 601 509 621 514 c 1,35,-1
 621 609 l 2,36,37
 621 791 621 791 533 834 c 0,38,39
 495 852 495 852 444 852 c 128,-1,40
 393 852 393 852 336 826.5 c 128,-1,41
 279 801 279 801 279 762 c 0,42,43
 279 744 279 744 296 713 c 128,-1,44
 313 682 313 682 313 653.5 c 128,-1,45
 313 625 313 625 287.5 598.5 c 128,-1,46
 262 572 262 572 217 572 c 128,-1,47
 172 572 172 572 142.5 609 c 128,-1,48
 113 646 113 646 113 701.5 c 128,-1,49
 113 757 113 757 151.5 803.5 c 128,-1,50
 190 850 190 850 250 876 c 0,51,52
 367 926 367 926 468 926 c 128,-1,53
 569 926 569 926 628 909.5 c 128,-1,54
 687 893 687 893 722.5 865 c 128,-1,55
 758 837 758 837 777 786 c 0,56,57
 808 703 808 703 808 541 c 1,13,-1
EndSplineSet
EndChar

StartChar: b
Encoding: 98 98 69
Width: 1134
GlyphClass: 2
Flags: W
LayerCount: 2
Fore
SplineSet
790.5 688 m 128,-1,1
 715 794 715 794 582.5 794 c 128,-1,2
 450 794 450 794 344 665 c 1,3,-1
 344 134 l 2,4,5
 344 104 344 104 355 92 c 0,6,7
 378 65 378 65 555 65 c 0,8,9
 746 65 746 65 824 224 c 0,10,11
 866 308 866 308 866 412 c 0,12,0
 866 582 866 582 790.5 688 c 128,-1,1
158 134 m 2,13,-1
 158 1163 l 1,14,15
 135 1202 135 1202 26 1241 c 2,16,-1
 -10 1254 l 1,17,-1
 -8 1288 l 1,18,-1
 258 1367 l 1,19,-1
 344 1376 l 1,20,-1
 344 758 l 1,21,22
 420 839 420 839 497 882.5 c 128,-1,23
 574 926 574 926 663.5 926 c 128,-1,24
 753 926 753 926 826.5 886 c 128,-1,25
 900 846 900 846 948 780 c 0,26,27
 1052 639 1052 639 1052 445.5 c 128,-1,28
 1052 252 1052 252 916 119.5 c 128,-1,29
 780 -13 780 -13 572 -13 c 0,30,31
 321 -13 321 -13 250 10 c 1,32,33
 184 33 184 33 167 76 c 0,34,35
 158 100 158 100 158 134 c 2,13,-1
EndSplineSet
EndChar

StartChar: c
Encoding: 99 99 70
Width: 952
GlyphClass: 2
Flags: W
LayerCount: 2
Fore
SplineSet
849 211 m 1,0,-1
 881 188 l 1,1,2
 850 89 850 89 749.5 34.5 c 128,-1,3
 649 -20 649 -20 519 -20 c 128,-1,4
 389 -20 389 -20 286.5 46.5 c 128,-1,5
 184 113 184 113 134 218 c 128,-1,6
 84 323 84 323 84 448 c 0,7,8
 84 651 84 651 220 788.5 c 128,-1,9
 356 926 356 926 574 926 c 0,10,11
 709 926 709 926 800.5 878 c 128,-1,12
 892 830 892 830 892 737 c 0,13,14
 892 692 892 692 860.5 667 c 128,-1,15
 829 642 829 642 792.5 642 c 128,-1,16
 756 642 756 642 738 663.5 c 128,-1,17
 720 685 720 685 715 716 c 128,-1,18
 710 747 710 747 701 778 c 128,-1,19
 692 809 692 809 657.5 830.5 c 128,-1,20
 623 852 623 852 559 852 c 0,21,22
 438 852 438 852 352.5 759.5 c 128,-1,23
 267 667 267 667 267 504 c 128,-1,24
 267 341 267 341 351 230.5 c 128,-1,25
 435 120 435 120 584 120 c 0,26,27
 671 120 671 120 729 141 c 128,-1,28
 787 162 787 162 849 211 c 1,0,-1
EndSplineSet
EndChar

StartChar: d
Encoding: 100 100 71
Width: 1180
GlyphClass: 2
Flags: W
LayerCount: 2
Fore
SplineSet
799 222 m 1,0,-1
 799 510 l 2,1,2
 799 607 799 607 782 666.5 c 128,-1,3
 765 726 765 726 713 772 c 0,4,5
 629 846 629 846 522 846 c 128,-1,6
 415 846 415 846 340.5 737 c 128,-1,7
 266 628 266 628 266 477 c 0,8,9
 266 267 266 267 398 157 c 0,10,11
 467 99 467 99 562 99 c 0,12,13
 707 99 707 99 799 222 c 1,0,-1
544 923 m 0,14,15
 643 923 643 923 799 849 c 1,16,-1
 799 1175 l 1,17,18
 774 1214 774 1214 665 1253 c 2,19,-1
 629 1266 l 1,20,-1
 631 1301 l 1,21,-1
 913 1369 l 1,22,-1
 985 1376 l 1,23,-1
 985 199 l 2,24,25
 985 114 985 114 1098 94 c 0,26,27
 1118 90 1118 90 1147 87 c 1,28,-1
 1147 32 l 1,29,-1
 880 -12 l 1,30,-1
 813 -12 l 1,31,-1
 804 143 l 1,32,33
 662 -20 662 -20 488 -20 c 128,-1,34
 314 -20 314 -20 197 101 c 128,-1,35
 80 222 80 222 80 429.5 c 128,-1,36
 80 637 80 637 212 780 c 128,-1,37
 344 923 344 923 544 923 c 0,14,15
EndSplineSet
EndChar

StartChar: e
Encoding: 101 101 72
Width: 958
GlyphClass: 2
Flags: W
LayerCount: 2
Fore
SplineSet
693 610 m 1,0,1
 678 859 678 859 500 859 c 0,2,3
 403 859 403 859 341 781 c 128,-1,4
 279 703 279 703 266 585 c 1,5,-1
 619 594 l 2,6,7
 663 596 663 596 693 610 c 1,0,1
891 526 m 1,8,-1
 259 526 l 1,9,10
 258 516 258 516 258 497 c 0,11,12
 258 311 258 311 354 216 c 128,-1,13
 450 121 450 121 586.5 121 c 128,-1,14
 723 121 723 121 840 193 c 1,15,-1
 869 165 l 1,16,17
 834 80 834 80 731 30 c 128,-1,18
 628 -20 628 -20 522 -20 c 0,19,20
 330 -20 330 -20 206 110 c 128,-1,21
 82 240 82 240 82 447 c 0,22,23
 82 586 82 586 144 697 c 128,-1,24
 206 808 206 808 306.5 867 c 128,-1,25
 407 926 407 926 536.5 926 c 128,-1,26
 666 926 666 926 763 841.5 c 128,-1,27
 860 757 860 757 880 620 c 1,28,29
 891 574 891 574 891 535 c 2,30,-1
 891 526 l 1,8,-1
EndSplineSet
EndChar

StartChar: f
Encoding: 102 102 73
Width: 647
GlyphClass: 2
Flags: W
LayerCount: 2
Fore
SplineSet
627 818 m 1,0,-1
 397 818 l 1,1,-1
 397 259 l 2,2,3
 397 160 397 160 419 112 c 1,4,5
 427 89 427 89 458 79 c 128,-1,6
 489 69 489 69 533 63 c 128,-1,7
 577 57 577 57 595 50 c 1,8,9
 595 19 595 19 594 0 c 1,10,-1
 48 0 l 1,11,12
 46 38 46 38 46 50 c 1,13,14
 59 57 59 57 94 63 c 0,15,16
 179 77 179 77 190 113 c 1,17,18
 211 152 211 152 211 215 c 2,19,-1
 211 818 l 1,20,-1
 53 818 l 1,21,-1
 53 899 l 1,22,-1
 122 899 l 2,23,24
 174 899 174 899 190 910.5 c 128,-1,25
 206 922 206 922 207 971 c 0,26,27
 211 1166 211 1166 304 1270 c 128,-1,28
 397 1374 397 1374 567 1374 c 0,29,30
 671 1374 671 1374 740 1335.5 c 128,-1,31
 809 1297 809 1297 809 1230 c 0,32,33
 809 1191 809 1191 784 1165.5 c 128,-1,34
 759 1140 759 1140 719 1140 c 128,-1,35
 679 1140 679 1140 654.5 1165.5 c 128,-1,36
 630 1191 630 1191 618.5 1221 c 128,-1,37
 607 1251 607 1251 583 1276.5 c 128,-1,38
 559 1302 559 1302 518.5 1302 c 128,-1,39
 478 1302 478 1302 452 1280 c 0,40,41
 397 1232 397 1232 397 1021 c 2,42,-1
 397 899 l 1,43,-1
 627 899 l 1,44,-1
 627 818 l 1,0,-1
EndSplineSet
EndChar

StartChar: g
Encoding: 103 103 74
Width: 999
GlyphClass: 2
Flags: W
LayerCount: 2
Fore
SplineSet
560 1 m 2,0,-1
 481 2 l 2,1,2
 409 3 409 3 303 15 c 1,3,4
 206 -68 206 -68 206 -137 c 0,5,6
 206 -174 206 -174 234.5 -201.5 c 128,-1,7
 263 -229 263 -229 307 -242 c 0,8,9
 390 -268 390 -268 455.5 -268 c 128,-1,10
 521 -268 521 -268 577.5 -259 c 128,-1,11
 634 -250 634 -250 685.5 -232.5 c 128,-1,12
 737 -215 737 -215 770 -185 c 128,-1,13
 803 -155 803 -155 803 -118 c 0,14,15
 803 -3 803 -3 560 1 c 2,0,-1
334 791 m 128,-1,17
 288 730 288 730 288 625 c 128,-1,18
 288 520 288 520 335.5 447 c 128,-1,19
 383 374 383 374 470 374 c 0,20,21
 637 374 637 374 637 597 c 0,22,23
 637 717 637 717 584 784.5 c 128,-1,24
 531 852 531 852 455.5 852 c 128,-1,16
 380 852 380 852 334 791 c 128,-1,17
229 24 m 1,25,26
 110 73 110 73 110 163 c 0,27,28
 110 216 110 216 153 261 c 128,-1,29
 196 306 196 306 275 352 c 1,30,31
 110 445 110 445 110 613 c 0,32,33
 110 750 110 750 208 838 c 128,-1,34
 306 926 306 926 441 926 c 128,-1,35
 576 926 576 926 677 873 c 1,36,37
 803 892 803 892 894 892 c 1,38,-1
 941 888 l 1,39,-1
 926 761 l 1,40,41
 878 775 878 775 770 796 c 2,42,-1
 733 803 l 1,43,44
 763 770 763 770 787.5 717.5 c 128,-1,45
 812 665 812 665 812 626 c 0,46,47
 812 525 812 525 758 451 c 0,48,49
 655 308 655 308 458 308 c 0,50,51
 408 308 408 308 330 326 c 1,52,53
 323 320 323 320 306.5 310 c 128,-1,54
 290 300 290 300 282 294 c 0,55,56
 259 275 259 275 259 251.5 c 128,-1,57
 259 228 259 228 267 218 c 128,-1,58
 275 208 275 208 294 201.5 c 128,-1,59
 313 195 313 195 335 191.5 c 128,-1,60
 357 188 357 188 394.5 185.5 c 128,-1,61
 432 183 432 183 466 182 c 0,62,63
 552 178 552 178 667.5 170 c 128,-1,64
 783 162 783 162 861 105 c 128,-1,65
 939 48 939 48 939 -47 c 128,-1,66
 939 -142 939 -142 870 -211 c 0,67,68
 732 -351 732 -351 442 -351 c 0,69,70
 274 -351 274 -351 175 -300 c 128,-1,71
 76 -249 76 -249 76 -184 c 0,72,73
 76 -89 76 -89 229 24 c 1,25,26
EndSplineSet
EndChar

StartChar: h
Encoding: 104 104 75
Width: 1188
GlyphClass: 2
Flags: W
LayerCount: 2
Fore
SplineSet
1012 568 m 2,0,-1
 1012 221 l 2,1,2
 1012 144 1012 144 1051.5 100.5 c 128,-1,3
 1091 57 1091 57 1164 50 c 1,4,-1
 1162 0 l 1,5,-1
 670 0 l 1,6,7
 668 34 668 34 668 50 c 1,8,9
 692 60 692 60 724 70 c 128,-1,10
 756 80 756 80 770 85.5 c 128,-1,11
 784 91 784 91 800 105 c 0,12,13
 826 129 826 129 826 214 c 2,14,-1
 826 577 l 2,15,16
 826 687 826 687 779.5 752.5 c 128,-1,17
 733 818 733 818 634 818 c 0,18,19
 503 818 503 818 375 684 c 1,20,-1
 375 233 l 2,21,22
 375 143 375 143 415.5 101 c 128,-1,23
 456 59 456 59 549 50 c 1,24,-1
 548 0 l 1,25,-1
 15 0 l 1,26,27
 13 34 13 34 13 50 c 1,28,29
 188 64 188 64 188 233 c 2,30,-1
 188 1164 l 1,31,32
 172 1187 172 1187 109 1220.5 c 128,-1,33
 46 1254 46 1254 17 1258 c 1,34,-1
 17 1293 l 1,35,-1
 303 1369 l 1,36,-1
 375 1376 l 1,37,-1
 375 768 l 1,38,39
 455 847 455 847 530 886.5 c 128,-1,40
 605 926 605 926 705 926 c 0,41,42
 844 926 844 926 928 837.5 c 128,-1,43
 1012 749 1012 749 1012 568 c 2,0,-1
EndSplineSet
EndChar

StartChar: i
Encoding: 105 105 76
Width: 582
GlyphClass: 2
Flags: W
LayerCount: 2
Fore
SplineSet
210.5 1141.5 m 128,-1,1
 177 1175 177 1175 177 1223.5 c 128,-1,2
 177 1272 177 1272 210.5 1306 c 128,-1,3
 244 1340 244 1340 292.5 1340 c 128,-1,4
 341 1340 341 1340 375 1306 c 128,-1,5
 409 1272 409 1272 409 1223.5 c 128,-1,6
 409 1175 409 1175 375 1141.5 c 128,-1,7
 341 1108 341 1108 292.5 1108 c 128,-1,0
 244 1108 244 1108 210.5 1141.5 c 128,-1,1
213 181 m 2,8,-1
 213 713 l 1,9,10
 187 758 187 758 92 788 c 1,11,-1
 61 797 l 1,12,-1
 63 832 l 1,13,-1
 340 912 l 1,14,-1
 399 918 l 1,15,-1
 399 220 l 2,16,17
 399 169 399 169 406.5 137 c 128,-1,18
 414 105 414 105 442 89 c 128,-1,19
 470 73 470 73 504.5 65 c 128,-1,20
 539 57 539 57 548 50 c 1,21,22
 548 17 548 17 547 0 c 1,23,-1
 51 0 l 1,24,25
 49 18 49 18 49 50 c 1,26,27
 59 56 59 56 92.5 67 c 128,-1,28
 126 78 126 78 149 88 c 128,-1,29
 172 98 172 98 192.5 122.5 c 128,-1,30
 213 147 213 147 213 181 c 2,8,-1
EndSplineSet
EndChar

StartChar: j
Encoding: 106 106 77
Width: 540
GlyphClass: 2
Flags: W
LayerCount: 2
Fore
SplineSet
198.5 1141.5 m 128,-1,1
 165 1175 165 1175 165 1223.5 c 128,-1,2
 165 1272 165 1272 198.5 1306 c 128,-1,3
 232 1340 232 1340 280.5 1340 c 128,-1,4
 329 1340 329 1340 362.5 1306 c 128,-1,5
 396 1272 396 1272 396 1223.5 c 128,-1,6
 396 1175 396 1175 362.5 1141.5 c 128,-1,7
 329 1108 329 1108 280.5 1108 c 128,-1,0
 232 1108 232 1108 198.5 1141.5 c 128,-1,1
201 88 m 1,8,-1
 201 710 l 1,9,10
 172 756 172 756 45 795 c 0,11,12
 41 797 41 797 39 797 c 1,13,-1
 39 832 l 1,14,-1
 319 911 l 1,15,-1
 387 918 l 1,16,-1
 387 125 l 2,17,18
 387 -87 387 -87 293.5 -187.5 c 128,-1,19
 200 -288 200 -288 14 -308 c 1,20,-1
 -1 -250 l 1,21,22
 93 -207 93 -207 127 -174 c 128,-1,23
 161 -141 161 -141 172 -106 c 0,24,25
 196 -35 196 -35 201 88 c 1,8,-1
EndSplineSet
EndChar

StartChar: k
Encoding: 107 107 78
Width: 1076
GlyphClass: 2
Flags: W
LayerCount: 2
Fore
SplineSet
747.5 830 m 128,-1,1
 683 830 683 830 683 855 c 0,2,3
 683 861 683 861 686 868 c 1,4,-1
 1080 868 l 1,5,-1
 1083 855 l 1,6,7
 1083 834 1083 834 1006.5 817.5 c 128,-1,8
 930 801 930 801 898 774 c 2,9,-1
 602 522 l 1,10,-1
 936 94 l 2,11,12
 947 81 947 81 992 66 c 128,-1,13
 1037 51 1037 51 1074.5 38 c 128,-1,14
 1112 25 1112 25 1112 14.5 c 128,-1,15
 1112 4 1112 4 1109 0 c 1,16,-1
 614 0 l 1,17,18
 609 10 609 10 609 12 c 0,19,20
 609 27 609 27 638.5 32 c 128,-1,21
 668 37 668 37 697 45 c 128,-1,22
 726 53 726 53 726 74 c 0,23,24
 726 83 726 83 713 97 c 1,25,-1
 463 420 l 1,26,-1
 398 420 l 1,27,-1
 398 116 l 2,28,29
 398 88 398 88 422 71.5 c 128,-1,30
 446 55 446 55 474 50 c 0,31,32
 550 38 550 38 550 14 c 0,33,34
 550 9 550 9 546 0 c 1,35,-1
 22 0 l 1,36,37
 19 7 19 7 19 12 c 0,38,39
 19 36 19 36 105.5 53.5 c 128,-1,40
 192 71 192 71 192 120 c 2,41,-1
 192 1122 l 2,42,43
 192 1152 192 1152 143 1171 c 128,-1,44
 94 1190 94 1190 45 1202.5 c 128,-1,45
 -4 1215 -4 1215 -4 1225.5 c 128,-1,46
 -4 1236 -4 1236 0 1244 c 1,47,-1
 398 1314 l 1,48,-1
 398 475 l 1,49,-1
 460 475 l 1,50,-1
 810 778 l 1,51,52
 812 783 812 783 812 789 c 0,53,0
 812 830 812 830 747.5 830 c 128,-1,1
EndSplineSet
EndChar

StartChar: l
Encoding: 108 108 79
Width: 573
GlyphClass: 2
Flags: W
LayerCount: 2
Fore
SplineSet
198 228 m 2,0,-1
 197 1169 l 1,1,2
 175 1206 175 1206 68 1246 c 1,3,-1
 32 1258 l 1,4,-1
 34 1293 l 1,5,-1
 312 1369 l 1,6,-1
 384 1376 l 1,7,-1
 384 234 l 2,8,9
 384 150 384 150 418.5 104.5 c 128,-1,10
 453 59 453 59 533 50 c 1,11,-1
 531 0 l 1,12,-1
 39 0 l 1,13,14
 38 34 38 34 38 50 c 1,15,16
 51 59 51 59 90 69 c 0,17,18
 182 93 182 93 190 138 c 128,-1,19
 198 183 198 183 198 228 c 2,0,-1
EndSplineSet
EndChar

StartChar: m
Encoding: 109 109 80
Width: 1768
GlyphClass: 2
Flags: W
LayerCount: 2
Fore
SplineSet
1216 819 m 0,0,1
 1098 819 1098 819 985 694 c 1,2,3
 991 625 991 625 991 472 c 2,4,-1
 991 230 l 2,5,6
 991 173 991 173 996.5 143 c 128,-1,7
 1002 113 1002 113 1027 96.5 c 128,-1,8
 1052 80 1052 80 1092.5 68.5 c 128,-1,9
 1133 57 1133 57 1145 50 c 1,10,-1
 1143 0 l 1,11,-1
 643 0 l 1,12,13
 641 34 641 34 641 50 c 1,14,15
 653 57 653 57 687 64 c 0,16,17
 771 83 771 83 782 117 c 1,18,19
 804 160 804 160 804 229 c 2,20,-1
 804 577 l 2,21,22
 804 694 804 694 767 756 c 128,-1,23
 730 818 730 818 648.5 818 c 128,-1,24
 567 818 567 818 508.5 781 c 128,-1,25
 450 744 450 744 392 678 c 1,26,-1
 392 235 l 2,27,28
 392 182 392 182 397 146.5 c 128,-1,29
 402 111 402 111 426.5 95 c 128,-1,30
 451 79 451 79 491 68 c 128,-1,31
 531 57 531 57 544 50 c 1,32,-1
 542 0 l 1,33,-1
 49 0 l 1,34,35
 48 34 48 34 48 50 c 1,36,37
 58 56 58 56 96 66 c 0,38,39
 184 87 184 87 194 136 c 1,40,41
 205 175 205 175 205 222 c 2,42,-1
 205 724 l 1,43,44
 193 748 193 748 151.5 770 c 128,-1,45
 110 792 110 792 75 802 c 2,46,-1
 40 813 l 1,47,-1
 43 847 l 1,48,-1
 322 915 l 1,49,-1
 383 915 l 1,50,-1
 392 771 l 1,51,52
 465 849 465 849 538.5 887.5 c 128,-1,53
 612 926 612 926 712 926 c 0,54,55
 905 926 905 926 972 765 c 1,56,57
 1020 818 1020 818 1059 850 c 0,58,59
 1151 924 1151 924 1280.5 924 c 128,-1,60
 1410 924 1410 924 1489.5 862.5 c 128,-1,61
 1569 801 1569 801 1578.5 691.5 c 128,-1,62
 1588 582 1588 582 1588 487 c 2,63,-1
 1588 225 l 2,64,65
 1588 175 1588 175 1594 143.5 c 128,-1,66
 1600 112 1600 112 1623 96 c 128,-1,67
 1646 80 1646 80 1683 68 c 128,-1,68
 1720 56 1720 56 1731 50 c 1,69,-1
 1729 0 l 1,70,-1
 1248 0 l 1,71,72
 1246 34 1246 34 1246 50 c 1,73,74
 1258 56 1258 56 1297 68 c 0,75,76
 1383 93 1383 93 1393 138 c 0,77,78
 1401 171 1401 171 1401 225 c 2,79,-1
 1401 622 l 2,80,81
 1401 716 1401 716 1353 767.5 c 128,-1,82
 1305 819 1305 819 1216 819 c 0,0,1
EndSplineSet
EndChar

StartChar: n
Encoding: 110 110 81
Width: 1204
GlyphClass: 2
Flags: W
LayerCount: 2
Fore
SplineSet
385 668 m 1,0,-1
 385 222 l 2,1,2
 385 136 385 136 428.5 97.5 c 128,-1,3
 472 59 472 59 561 50 c 1,4,-1
 559 0 l 1,5,-1
 44 0 l 1,6,7
 43 16 43 16 43 32 c 128,-1,8
 43 48 43 48 44 54 c 1,9,10
 148 77 148 77 172 104 c 0,11,12
 199 135 199 135 199 185 c 2,13,-1
 199 727 l 1,14,15
 187 750 187 750 147.5 771 c 128,-1,16
 108 792 108 792 74 802 c 2,17,-1
 40 811 l 1,18,-1
 43 845 l 1,19,-1
 316 913 l 1,20,-1
 377 917 l 1,21,-1
 388 755 l 1,22,23
 443 829 443 829 528.5 877.5 c 128,-1,24
 614 926 614 926 713 926 c 0,25,26
 858 926 858 926 938 844 c 128,-1,27
 1018 762 1018 762 1025 599 c 0,28,29
 1028 535 1028 535 1028 468 c 2,30,-1
 1028 245 l 2,31,32
 1028 145 1028 145 1040.5 125.5 c 128,-1,33
 1053 106 1053 106 1058.5 99 c 128,-1,34
 1064 92 1064 92 1078.5 85.5 c 128,-1,35
 1093 79 1093 79 1102.5 75.5 c 128,-1,36
 1112 72 1112 72 1135 65.5 c 128,-1,37
 1158 59 1158 59 1173 54 c 1,38,39
 1174 48 1174 48 1174 32 c 2,40,-1
 1173 0 l 1,41,-1
 680 0 l 1,42,43
 678 34 678 34 678 50 c 1,44,45
 689 54 689 54 721 63 c 128,-1,46
 753 72 753 72 772.5 79.5 c 128,-1,47
 792 87 792 87 812 105.5 c 128,-1,48
 832 124 832 124 836.5 151 c 128,-1,49
 841 178 841 178 841 226 c 2,50,-1
 841 518 l 2,51,52
 841 680 841 680 808 734 c 0,53,54
 778 783 778 783 756 794 c 0,55,56
 706 818 706 818 651 818 c 0,57,58
 527 818 527 818 385 668 c 1,0,-1
EndSplineSet
EndChar

StartChar: o
Encoding: 111 111 82
Width: 1111
GlyphClass: 2
Flags: W
LayerCount: 2
Fore
SplineSet
282 515 m 0,0,1
 282 401 282 401 316 297.5 c 128,-1,2
 350 194 350 194 418 126 c 128,-1,3
 486 58 486 58 573 58 c 0,4,5
 700 58 700 58 766 149 c 128,-1,6
 832 240 832 240 832 378 c 128,-1,7
 832 516 832 516 797.5 622.5 c 128,-1,8
 763 729 763 729 696 794 c 128,-1,9
 629 859 629 859 543 859 c 0,10,11
 426 859 426 859 354 773 c 128,-1,12
 282 687 282 687 282 515 c 0,0,1
121.5 263 m 128,-1,14
 82 353 82 353 82 473 c 128,-1,15
 82 593 82 593 147 702 c 128,-1,16
 212 811 212 811 318.5 868.5 c 128,-1,17
 425 926 425 926 553.5 926 c 128,-1,18
 682 926 682 926 790.5 870 c 128,-1,19
 899 814 899 814 964 706 c 128,-1,20
 1029 598 1029 598 1029 457 c 128,-1,21
 1029 316 1029 316 964 205.5 c 128,-1,22
 899 95 899 95 793 37.5 c 128,-1,23
 687 -20 687 -20 576.5 -20 c 128,-1,24
 466 -20 466 -20 379 15 c 128,-1,25
 292 50 292 50 226.5 111.5 c 128,-1,13
 161 173 161 173 121.5 263 c 128,-1,14
EndSplineSet
EndChar

StartChar: p
Encoding: 112 112 83
Width: 1159
GlyphClass: 2
Flags: W
LayerCount: 2
Fore
SplineSet
372 677 m 1,0,-1
 372 347 l 2,1,2
 372 222 372 222 441 143.5 c 128,-1,3
 510 65 510 65 633.5 65 c 128,-1,4
 757 65 757 65 822 162 c 128,-1,5
 887 259 887 259 887 433 c 128,-1,6
 887 607 887 607 807.5 701.5 c 128,-1,7
 728 796 728 796 611.5 796 c 128,-1,8
 495 796 495 796 372 677 c 1,0,-1
186 714 m 1,9,10
 160 761 160 761 20 814 c 1,11,-1
 20 848 l 1,12,-1
 290 915 l 1,13,-1
 358 918 l 1,14,-1
 366 754 l 1,15,16
 440 836 440 836 515 881 c 128,-1,17
 590 926 590 926 686 926 c 0,18,19
 858 926 858 926 965.5 804.5 c 128,-1,20
 1073 683 1073 683 1073 470 c 128,-1,21
 1073 257 1073 257 943.5 119 c 128,-1,22
 814 -19 814 -19 617 -19 c 0,23,24
 481 -19 481 -19 372 75 c 1,25,-1
 372 -144 l 2,26,27
 372 -236 372 -236 415.5 -276.5 c 128,-1,28
 459 -317 459 -317 556 -328 c 1,29,-1
 554 -378 l 1,30,-1
 27 -378 l 1,31,32
 25 -344 25 -344 25 -328 c 1,33,34
 186 -306 186 -306 186 -153 c 2,35,-1
 186 714 l 1,9,10
EndSplineSet
EndChar

StartChar: q
Encoding: 113 113 84
Width: 1134
GlyphClass: 2
Flags: W
LayerCount: 2
Fore
SplineSet
791 236 m 1,0,-1
 791 624 l 1,1,2
 778 729 778 729 709.5 791 c 128,-1,3
 641 853 641 853 523.5 853 c 128,-1,4
 406 853 406 853 335.5 753 c 128,-1,5
 265 653 265 653 265 487 c 128,-1,6
 265 321 265 321 346 217 c 128,-1,7
 427 113 427 113 547 113 c 128,-1,8
 667 113 667 113 791 236 c 1,0,-1
792 -186 m 2,9,-1
 792 144 l 1,10,11
 706 55 706 55 632 16.5 c 128,-1,12
 558 -22 558 -22 458 -22 c 128,-1,13
 358 -22 358 -22 267 43 c 128,-1,14
 176 108 176 108 130 210.5 c 128,-1,15
 84 313 84 313 84 432 c 0,16,17
 84 665 84 665 214 794.5 c 128,-1,18
 344 924 344 924 531.5 924 c 128,-1,19
 719 924 719 924 869 848 c 1,20,-1
 869 885 l 1,21,22
 876 902 876 902 904 914 c 128,-1,23
 932 926 932 926 954.5 926 c 128,-1,24
 977 926 977 926 977 898 c 2,25,-1
 977 -138 l 2,26,27
 977 -224 977 -224 1011.5 -269 c 128,-1,28
 1046 -314 1046 -314 1131 -329 c 1,29,-1
 1129 -378 l 1,30,-1
 612 -378 l 1,31,32
 610 -344 610 -344 610 -329 c 1,33,34
 621 -325 621 -325 653.5 -316 c 128,-1,35
 686 -307 686 -307 704.5 -299 c 128,-1,36
 723 -291 723 -291 746 -277 c 0,37,38
 792 -249 792 -249 792 -186 c 2,9,-1
EndSplineSet
EndChar

StartChar: r
Encoding: 114 114 85
Width: 786
GlyphClass: 2
Flags: W
LayerCount: 2
Fore
SplineSet
388 633 m 1,0,-1
 388 261 l 2,1,2
 388 171 388 171 396.5 138.5 c 128,-1,3
 405 106 405 106 427 91.5 c 128,-1,4
 449 77 449 77 473 72.5 c 128,-1,5
 497 68 497 68 532 62 c 128,-1,6
 567 56 567 56 584 50 c 1,7,-1
 583 0 l 1,8,-1
 47 0 l 1,9,10
 46 20 46 20 46 35.5 c 128,-1,11
 46 51 46 51 47 54 c 1,12,13
 61 58 61 58 89.5 65 c 128,-1,14
 118 72 118 72 128.5 75.5 c 128,-1,15
 139 79 139 79 157.5 90 c 128,-1,16
 176 101 176 101 182 115 c 0,17,18
 201 155 201 155 201 215 c 2,19,-1
 201 723 l 1,20,21
 176 766 176 766 77 796 c 1,22,-1
 44 805 l 1,23,-1
 46 840 l 1,24,-1
 312 916 l 1,25,-1
 369 916 l 1,26,-1
 385 732 l 1,27,28
 441 835 441 835 501.5 878 c 128,-1,29
 562 921 562 921 630.5 921 c 128,-1,30
 699 921 699 921 740.5 886.5 c 128,-1,31
 782 852 782 852 782 815.5 c 128,-1,32
 782 779 782 779 759 735.5 c 128,-1,33
 736 692 736 692 701 692 c 128,-1,34
 666 692 666 692 645 708 c 128,-1,35
 624 724 624 724 614 743 c 0,36,37
 587 794 587 794 551 794 c 0,38,39
 517 794 517 794 498 778.5 c 128,-1,40
 479 763 479 763 470 755.5 c 128,-1,41
 461 748 461 748 447 727.5 c 128,-1,42
 433 707 433 707 428 699 c 0,43,44
 404 664 404 664 388 633 c 1,0,-1
EndSplineSet
EndChar

StartChar: s
Encoding: 115 115 86
Width: 807
GlyphClass: 2
Flags: W
LayerCount: 2
Fore
SplineSet
659 853 m 1,0,-1
 665 631 l 1,1,2
 651 630 651 630 618 630 c 1,3,4
 589 731 589 731 530.5 795 c 128,-1,5
 472 859 472 859 395 859 c 0,6,7
 245 859 245 859 245 738 c 0,8,9
 245 668 245 668 336 609 c 0,10,11
 383 579 383 579 441 549.5 c 128,-1,12
 499 520 499 520 514 512 c 0,13,14
 626 452 626 452 677.5 389.5 c 128,-1,15
 729 327 729 327 729 237 c 0,16,17
 729 113 729 113 640.5 46.5 c 128,-1,18
 552 -20 552 -20 410 -20 c 0,19,20
 328 -20 328 -20 244 -0.5 c 128,-1,21
 160 19 160 19 106 52 c 1,22,-1
 106 296 l 1,23,24
 145 301 145 301 159 301 c 1,25,26
 182 190 182 190 240.5 120 c 128,-1,27
 299 50 299 50 386.5 50 c 128,-1,28
 474 50 474 50 522.5 86.5 c 128,-1,29
 571 123 571 123 571 183 c 0,30,31
 571 247 571 247 506 292 c 0,32,33
 472 315 472 315 437 334 c 0,34,35
 295 409 295 409 231 448 c 1,36,37
 91 536 91 536 91 684 c 0,38,39
 91 799 91 799 174.5 862.5 c 128,-1,40
 258 926 258 926 401 926 c 128,-1,41
 544 926 544 926 659 853 c 1,0,-1
EndSplineSet
EndChar

StartChar: t
Encoding: 116 116 87
Width: 670
GlyphClass: 2
Flags: W
LayerCount: 2
Fore
SplineSet
622 815 m 1,0,-1
 373 815 l 1,1,-1
 373 314 l 2,2,3
 373 177 373 177 381.5 156 c 128,-1,4
 390 135 390 135 399 120 c 128,-1,5
 408 105 408 105 423 100 c 0,6,7
 460 86 460 86 516.5 86 c 128,-1,8
 573 86 573 86 645 108 c 1,9,-1
 653 35 l 1,10,11
 538 -20 538 -20 411 -20 c 128,-1,12
 284 -20 284 -20 235 52.5 c 128,-1,13
 186 125 186 125 186 317 c 2,14,-1
 186 815 l 1,15,-1
 37 815 l 1,16,-1
 37 859 l 1,17,18
 142 901 142 901 200 967 c 0,19,20
 253 1026 253 1026 291.5 1087.5 c 128,-1,21
 330 1149 330 1149 348 1149 c 0,22,23
 371 1149 371 1149 371 1110 c 2,24,-1
 371 899 l 1,25,-1
 622 899 l 1,26,-1
 622 815 l 1,0,-1
EndSplineSet
EndChar

StartChar: u
Encoding: 117 117 88
Width: 1191
GlyphClass: 2
Flags: W
LayerCount: 2
Fore
SplineSet
1160 85 m 1,0,1
 1160 85 1160 85 1157 32 c 1,2,-1
 829 -15 l 1,3,-1
 821 145 l 1,4,5
 673 -20 673 -20 490 -20 c 0,6,7
 230 -20 230 -20 198 292 c 0,8,9
 192 352 192 352 192 429 c 2,10,-1
 192 645 l 2,11,12
 192 755 192 755 168 776.5 c 128,-1,13
 144 798 144 798 118 807 c 0,14,15
 70 824 70 824 26 828 c 1,16,-1
 26 878 l 1,17,-1
 378 904 l 1,18,-1
 378 440 l 2,19,20
 378 250 378 250 416 174 c 128,-1,21
 454 98 454 98 554 98 c 0,22,23
 693 98 693 98 816 220 c 1,24,-1
 816 643 l 2,25,26
 816 702 816 702 808 743 c 0,27,28
 796 812 796 812 642 829 c 1,29,-1
 642 878 l 1,30,-1
 1002 904 l 1,31,-1
 1002 201 l 2,32,33
 1002 114 1002 114 1111 94 c 0,34,35
 1127 91 1127 91 1160 85 c 1,0,1
EndSplineSet
EndChar

StartChar: v
Encoding: 118 118 89
Width: 969
GlyphClass: 2
Flags: W
LayerCount: 2
Fore
SplineSet
446 899 m 1,0,-1
 451 845 l 1,1,2
 350 817 350 817 336 797.5 c 128,-1,3
 322 778 322 778 322 764 c 128,-1,4
 322 750 322 750 327 733 c 1,5,-1
 531 230 l 1,6,-1
 703 649 l 2,7,8
 731 718 731 718 729.5 754 c 128,-1,9
 728 790 728 790 697.5 808.5 c 128,-1,10
 667 827 667 827 601 843 c 1,11,12
 600 849 600 849 600 866 c 2,13,-1
 601 899 l 1,14,-1
 973 899 l 1,15,16
 975 882 975 882 975 848 c 1,17,18
 968 843 968 843 928.5 826.5 c 128,-1,19
 889 810 889 810 862.5 784 c 128,-1,20
 836 758 836 758 813 706 c 2,21,-1
 503 -12 l 1,22,23
 491 -18 491 -18 472.5 -18 c 128,-1,24
 454 -18 454 -18 443 -12 c 1,25,-1
 137 724 l 2,26,27
 110 791 110 791 92 804.5 c 128,-1,28
 74 818 74 818 64 822 c 128,-1,29
 54 826 54 826 33.5 832.5 c 128,-1,30
 13 839 13 839 -4 847 c 1,31,-1
 -4 899 l 1,32,-1
 446 899 l 1,0,-1
EndSplineSet
EndChar

StartChar: w
Encoding: 119 119 90
Width: 1434
GlyphClass: 2
Flags: W
LayerCount: 2
Fore
SplineSet
414 851 m 1,0,1
 313 817 313 817 313 766 c 0,2,3
 313 737 313 737 319 719 c 2,4,-1
 504 243 l 1,5,-1
 687 688 l 1,6,7
 668 756 668 756 626 802 c 128,-1,8
 584 848 584 848 519 851 c 1,9,-1
 521 899 l 1,10,-1
 963 899 l 1,11,12
 965 865 965 865 965 851 c 1,13,14
 952 845 952 845 927 836.5 c 128,-1,15
 902 828 902 828 888 822 c 0,16,17
 850 806 850 806 850 776.5 c 128,-1,18
 850 747 850 747 868 698 c 2,19,-1
 1031 251 l 1,20,-1
 1187 672 l 2,21,22
 1206 721 1206 721 1206 748.5 c 128,-1,23
 1206 776 1206 776 1202 790 c 128,-1,24
 1198 804 1198 804 1184 813.5 c 128,-1,25
 1170 823 1170 823 1162 826.5 c 128,-1,26
 1154 830 1154 830 1126 837 c 128,-1,27
 1098 844 1098 844 1085 848 c 1,28,29
 1083 862 1083 862 1083 871.5 c 128,-1,30
 1083 881 1083 881 1085 899 c 1,31,-1
 1436 899 l 1,32,-1
 1436 846 l 1,33,34
 1393 840 1393 840 1343 797.5 c 128,-1,35
 1293 755 1293 755 1278 714 c 2,36,-1
 1008 -14 l 1,37,38
 998 -20 998 -20 978.5 -20 c 128,-1,39
 959 -20 959 -20 947 -14 c 1,40,-1
 720 596 l 1,41,-1
 479 -14 l 1,42,43
 467 -20 467 -20 446.5 -20 c 128,-1,44
 426 -20 426 -20 416 -14 c 1,45,-1
 137 699 l 2,46,47
 96 806 96 806 51 831 c 0,48,49
 29 843 29 843 -1 850 c 1,50,-1
 1 899 l 1,51,-1
 413 899 l 1,52,53
 414 882 414 882 414 851 c 1,0,1
EndSplineSet
EndChar

StartChar: x
Encoding: 120 120 91
Width: 1008
GlyphClass: 2
Flags: W
LayerCount: 2
Fore
SplineSet
171 152 m 2,0,-1
 418 431 l 1,1,-1
 151 772 l 2,2,3
 121 811 121 811 72.5 830.5 c 128,-1,4
 24 850 24 850 22 851 c 1,5,-1
 23 899 l 1,6,-1
 466 899 l 1,7,8
 467 866 467 866 467 851 c 1,9,10
 379 824 379 824 379 779 c 0,11,12
 379 771 379 771 388 748 c 1,13,-1
 528 561 l 1,14,-1
 650 710 l 2,15,16
 681 748 681 748 681 774 c 128,-1,17
 681 800 681 800 653 820.5 c 128,-1,18
 625 841 625 841 580 848 c 1,19,-1
 580 899 l 1,20,-1
 950 899 l 1,21,22
 951 866 951 866 951 850 c 1,23,24
 945 847 945 847 916.5 837 c 128,-1,25
 888 827 888 827 870 820 c 0,26,27
 820 798 820 798 783 753 c 2,28,-1
 577 501 l 1,29,-1
 847 159 l 2,30,31
 888 106 888 106 915 88 c 128,-1,32
 942 70 942 70 1002 47 c 1,33,-1
 1000 0 l 1,34,-1
 523 0 l 1,35,36
 522 32 522 32 522 48 c 1,37,38
 536 55 536 55 570 65 c 0,39,40
 640 86 640 86 640 115 c 0,41,42
 640 137 640 137 615 165 c 1,43,-1
 459 376 l 1,44,-1
 323 225 l 2,45,46
 267 164 267 164 267 113 c 0,47,48
 267 89 267 89 296.5 75.5 c 128,-1,49
 326 62 326 62 382 51 c 1,50,51
 383 45 383 45 383 30 c 2,52,-1
 382 0 l 1,53,-1
 -1 0 l 1,54,55
 -3 31 -3 31 -3 48 c 1,56,57
 4 52 4 52 41 67 c 0,58,59
 128 102 128 102 171 152 c 2,0,-1
EndSplineSet
EndChar

StartChar: y
Encoding: 121 121 92
Width: 971
GlyphClass: 2
Flags: W
LayerCount: 2
Fore
SplineSet
465 0 m 1,0,-1
 153 712 l 2,1,2
 111 807 111 807 78 823 c 0,3,4
 65 829 65 829 38.5 834.5 c 128,-1,5
 12 840 12 840 -5 847 c 1,6,-1
 -5 899 l 1,7,-1
 464 899 l 1,8,9
 469 874 469 874 469 866.5 c 128,-1,10
 469 859 469 859 460 852.5 c 128,-1,11
 451 846 451 846 436 839.5 c 128,-1,12
 421 833 421 833 417 830 c 1,13,14
 334 824 334 824 334 776 c 0,15,16
 334 762 334 762 347 721 c 1,17,-1
 554 227 l 1,18,-1
 723 675 l 2,19,20
 738 714 738 714 738 750 c 0,21,22
 738 820 738 820 608 843 c 1,23,24
 607 849 607 849 607 866 c 2,25,-1
 608 899 l 1,26,-1
 975 899 l 1,27,28
 976 866 976 866 976 848 c 1,29,30
 963 838 963 838 939 827.5 c 128,-1,31
 915 817 915 817 897 809 c 0,32,33
 850 788 850 788 827 707 c 1,34,-1
 472 -167 l 2,35,36
 428 -277 428 -277 367.5 -336 c 128,-1,37
 307 -395 307 -395 227 -395 c 128,-1,38
 147 -395 147 -395 103.5 -363.5 c 128,-1,39
 60 -332 60 -332 60 -285 c 128,-1,40
 60 -238 60 -238 89 -212 c 128,-1,41
 118 -186 118 -186 151 -186 c 128,-1,42
 184 -186 184 -186 203 -197 c 128,-1,43
 222 -208 222 -208 232 -222 c 0,44,45
 258 -257 258 -257 292 -257 c 128,-1,46
 326 -257 326 -257 351 -237 c 128,-1,47
 376 -217 376 -217 397 -175 c 0,48,49
 431 -106 431 -106 465 0 c 1,0,-1
EndSplineSet
EndChar

StartChar: z
Encoding: 122 122 93
Width: 892
GlyphClass: 2
Flags: W
LayerCount: 2
Fore
SplineSet
768 899 m 2,0,1
 783 899 783 899 823 895 c 1,2,-1
 823 840 l 1,3,-1
 278 60 l 1,4,-1
 472 60 l 2,5,6
 555 60 555 60 643 86 c 0,7,8
 677 96 677 96 702.5 133 c 128,-1,9
 728 170 728 170 750 216 c 128,-1,10
 772 262 772 262 789 279 c 1,11,12
 798 279 798 279 815 278 c 128,-1,13
 832 277 832 277 840 277 c 1,14,-1
 811 -11 l 1,15,16
 686 0 686 0 652 0 c 2,17,-1
 44 0 l 1,18,-1
 30 33 l 1,19,-1
 607 838 l 1,20,-1
 438 838 l 2,21,22
 351 838 351 838 313 829 c 1,23,24
 273 824 273 824 241 793 c 128,-1,25
 209 762 209 762 178 720 c 128,-1,26
 147 678 147 678 124 662 c 1,27,-1
 79 664 l 1,28,-1
 100 925 l 1,29,30
 169 899 169 899 267 899 c 2,31,-1
 768 899 l 2,0,1
EndSplineSet
EndChar

StartChar: braceleft
Encoding: 123 123 94
Width: 827
GlyphClass: 2
Flags: W
LayerCount: 2
Fore
SplineSet
191 619 m 1,0,1
 191 653 191 653 213 667 c 1,2,3
 302 675 302 675 352.5 728.5 c 128,-1,4
 403 782 403 782 403 871 c 0,5,6
 403 919 403 919 389 1014 c 128,-1,7
 375 1109 375 1109 375 1157 c 0,8,9
 375 1313 375 1313 469.5 1400 c 128,-1,10
 564 1487 564 1487 724 1497 c 1,11,12
 729 1482 729 1482 729 1467.5 c 128,-1,13
 729 1453 729 1453 724 1440 c 1,14,15
 633 1428 633 1428 582.5 1387 c 128,-1,16
 532 1346 532 1346 532 1261 c 0,17,18
 532 1212 532 1212 553 1114.5 c 128,-1,19
 574 1017 574 1017 574 967 c 0,20,21
 574 841 574 841 501 755 c 128,-1,22
 428 669 428 669 304 632 c 1,23,24
 427 595 427 595 500.5 508 c 128,-1,25
 574 421 574 421 574 297 c 0,26,27
 574 245 574 245 552 145.5 c 128,-1,28
 530 46 530 46 530 -4 c 0,29,30
 530 -144 530 -144 724 -176 c 1,31,32
 732 -189 732 -189 732 -204.5 c 128,-1,33
 732 -220 732 -220 724 -233 c 1,34,35
 559 -223 559 -223 467.5 -133 c 128,-1,36
 376 -43 376 -43 376 120 c 0,37,38
 376 168 376 168 388.5 263 c 128,-1,39
 401 358 401 358 401 407 c 128,-1,40
 401 456 401 456 389 488.5 c 128,-1,41
 377 521 377 521 354 537.5 c 128,-1,42
 331 554 331 554 307 564 c 0,43,44
 218 599 218 599 191 619 c 1,0,1
EndSplineSet
EndChar

StartChar: bar
Encoding: 124 124 95
Width: 824
GlyphClass: 2
Flags: W
LayerCount: 2
Fore
SplineSet
438 1467 m 1,0,1
 469 1343 469 1343 469 1244 c 2,2,-1
 469 -88 l 2,3,4
 469 -242 469 -242 438 -315 c 1,5,6
 402 -314 402 -314 354 -283 c 1,7,-1
 354 1431 l 1,8,9
 379 1467 379 1467 434 1467 c 2,10,-1
 438 1467 l 1,0,1
EndSplineSet
EndChar

StartChar: braceright
Encoding: 125 125 96
Width: 827
GlyphClass: 2
Flags: W
LayerCount: 2
Fore
SplineSet
614 667 m 1,0,1
 637 653 637 653 637 619 c 1,2,3
 611 602 611 602 574.5 587 c 128,-1,4
 538 572 538 572 515 562.5 c 128,-1,5
 492 553 492 553 469 535 c 0,6,7
 424 500 424 500 424 399 c 0,8,9
 424 353 424 353 437.5 262.5 c 128,-1,10
 451 172 451 172 451 127 c 0,11,12
 451 -40 451 -40 361.5 -131 c 128,-1,13
 272 -222 272 -222 104 -233 c 1,14,15
 96 -225 96 -225 96 -206 c 128,-1,16
 96 -187 96 -187 104 -176 c 1,17,18
 297 -147 297 -147 297 -4 c 0,19,20
 297 46 297 46 275 145.5 c 128,-1,21
 253 245 253 245 253 297 c 0,22,23
 253 421 253 421 326.5 508 c 128,-1,24
 400 595 400 595 523 632 c 1,25,26
 399 668 399 668 326 755 c 128,-1,27
 253 842 253 842 253 967 c 0,28,29
 253 1017 253 1017 274 1114.5 c 128,-1,30
 295 1212 295 1212 295 1261 c 0,31,32
 295 1345 295 1345 244 1386.5 c 128,-1,33
 193 1428 193 1428 104 1440 c 1,34,35
 98 1452 98 1452 98 1465.5 c 128,-1,36
 98 1479 98 1479 104 1497 c 1,37,38
 263 1487 263 1487 357.5 1400 c 128,-1,39
 452 1313 452 1313 452 1157 c 0,40,41
 452 1108 452 1108 438 1011.5 c 128,-1,42
 424 915 424 915 424 866 c 0,43,44
 424 778 424 778 475 726 c 128,-1,45
 526 674 526 674 614 667 c 1,0,1
EndSplineSet
EndChar

StartChar: asciitilde
Encoding: 126 126 97
Width: 858
GlyphClass: 2
Flags: W
LayerCount: 2
Fore
SplineSet
757 846 m 1,0,-1
 846 846 l 1,1,2
 846 726 846 726 794.5 654.5 c 128,-1,3
 743 583 743 583 645 583 c 0,4,5
 544 583 544 583 409.5 648 c 128,-1,6
 275 713 275 713 214 713 c 0,7,8
 111 713 111 713 97 596 c 1,9,-1
 6 596 l 1,10,11
 29 851 29 851 223 851 c 0,12,13
 283 851 283 851 366 817.5 c 128,-1,14
 449 784 449 784 524.5 751 c 128,-1,15
 600 718 600 718 642 718 c 0,16,17
 752 718 752 718 757 846 c 1,0,-1
EndSplineSet
EndChar

StartChar: exclamdown
Encoding: 161 161 98
Width: 567
GlyphClass: 2
Flags: W
LayerCount: 2
Fore
SplineSet
248 833 m 1,0,1
 248 927 248 927 283 927 c 0,2,3
 309 927 309 927 315 835 c 0,4,5
 316 820 316 820 318 808.5 c 128,-1,6
 320 797 320 797 341.5 658 c 128,-1,7
 363 519 363 519 374 442 c 0,8,9
 409 195 409 195 409 84 c 0,10,11
 409 27 409 27 373 -1 c 128,-1,12
 337 -29 337 -29 279 -29 c 0,13,14
 153 -29 153 -29 153 82 c 0,15,16
 153 229 153 229 197 503 c 128,-1,17
 241 777 241 777 248 833 c 1,0,1
197 1103.5 m 128,-1,19
 162 1140 162 1140 162 1190.5 c 128,-1,20
 162 1241 162 1241 197.5 1276.5 c 128,-1,21
 233 1312 233 1312 283.5 1312 c 128,-1,22
 334 1312 334 1312 370.5 1277 c 128,-1,23
 407 1242 407 1242 407 1191 c 128,-1,24
 407 1140 407 1140 370.5 1103.5 c 128,-1,25
 334 1067 334 1067 283 1067 c 128,-1,18
 232 1067 232 1067 197 1103.5 c 128,-1,19
EndSplineSet
EndChar

StartChar: cent
Encoding: 162 162 99
Width: 1049
GlyphClass: 2
Flags: W
LayerCount: 2
Fore
SplineSet
485 165 m 1,0,-1
 611 846 l 1,1,2
 487 846 487 846 402 766 c 0,3,4
 311 681 311 681 311 530 c 128,-1,5
 311 379 311 379 354 293.5 c 128,-1,6
 397 208 397 208 485 165 c 1,0,-1
596 923 m 1,7,-1
 627 922 l 1,8,-1
 657 1107 l 2,9,10
 667 1167 667 1167 704 1223 c 1,11,12
 737 1223 737 1223 755 1221 c 1,13,14
 753 1159 753 1159 743 1097 c 2,15,-1
 714 916 l 1,16,17
 814 901 814 901 873.5 853.5 c 128,-1,18
 933 806 933 806 933 735 c 0,19,20
 933 692 933 692 907 665.5 c 128,-1,21
 881 639 881 639 845.5 639 c 128,-1,22
 810 639 810 639 794 653.5 c 128,-1,23
 778 668 778 668 773.5 691 c 128,-1,24
 769 714 769 714 765 739 c 0,25,26
 755 803 755 803 691 830 c 1,27,-1
 563 139 l 1,28,29
 611 122 611 122 668 122 c 0,30,31
 801 122 801 122 891 212 c 1,32,33
 908 204 908 204 923 189 c 1,34,35
 920 176 920 176 907 142 c 0,36,37
 882 76 882 76 789.5 29.5 c 128,-1,38
 697 -17 697 -17 604 -19 c 1,39,40
 568 -29 568 -29 536 -29 c 2,41,-1
 527 -29 l 1,42,43
 510 -175 510 -175 462 -253 c 1,44,45
 414 -253 414 -253 396 -201 c 1,46,-1
 448 6 l 1,47,48
 301 44 301 44 213 162.5 c 128,-1,49
 125 281 125 281 125 447 c 0,50,51
 125 629 125 629 243 770 c 0,52,53
 300 839 300 839 392 881 c 128,-1,54
 484 923 484 923 596 923 c 1,7,-1
EndSplineSet
EndChar

StartChar: sterling
Encoding: 163 163 100
Width: 1238
GlyphClass: 2
Flags: W
LayerCount: 2
Fore
SplineSet
732 988 m 1,0,-1
 752 1071 l 1,1,2
 752 1111 752 1111 725 1137.5 c 128,-1,3
 698 1164 698 1164 654.5 1164 c 128,-1,4
 611 1164 611 1164 576.5 1135.5 c 128,-1,5
 542 1107 542 1107 524 1062 c 0,6,7
 490 978 490 978 490 887 c 0,8,9
 490 867 490 867 501 666 c 1,10,-1
 729 666 l 1,11,12
 735 647 735 647 735 615.5 c 128,-1,13
 735 584 735 584 729 574 c 1,14,-1
 501 574 l 1,15,-1
 516 359 l 1,16,17
 516 308 516 308 496 242 c 1,18,19
 502 240 502 240 550.5 218.5 c 128,-1,20
 599 197 599 197 621 188 c 0,21,22
 695 160 695 160 741 160 c 128,-1,23
 787 160 787 160 820.5 175.5 c 128,-1,24
 854 191 854 191 873 213.5 c 128,-1,25
 892 236 892 236 905 258.5 c 128,-1,26
 918 281 918 281 927.5 296.5 c 128,-1,27
 937 312 937 312 944.5 312 c 128,-1,28
 952 312 952 312 965 307 c 1,29,30
 954 171 954 171 937 119 c 0,31,32
 894 -11 894 -11 746 -11 c 0,33,34
 696 -11 696 -11 634 10.5 c 128,-1,35
 572 32 572 32 536 51.5 c 128,-1,36
 500 71 500 71 436 109 c 1,37,38
 354 -11 354 -11 231 -11 c 0,39,40
 159 -11 159 -11 112 38.5 c 128,-1,41
 65 88 65 88 65 159.5 c 128,-1,42
 65 231 65 231 111 270.5 c 128,-1,43
 157 310 157 310 224 310 c 128,-1,44
 291 310 291 310 367 288 c 1,45,-1
 302 574 l 1,46,-1
 265 573 l 1,47,48
 153 573 153 573 153 620 c 128,-1,49
 153 667 153 667 250 667 c 1,50,-1
 285 666 l 1,51,52
 275 796 275 796 275 865 c 0,53,54
 275 1021 275 1021 382 1115.5 c 128,-1,55
 489 1210 489 1210 647 1210 c 0,56,57
 748 1210 748 1210 833 1162 c 0,58,59
 927 1110 927 1110 927 1005 c 0,60,61
 927 956 927 956 896.5 928.5 c 128,-1,62
 866 901 866 901 826 901 c 128,-1,63
 786 901 786 901 759 924 c 128,-1,64
 732 947 732 947 732 988 c 1,0,-1
248 73 m 128,-1,66
 284 73 284 73 314 96.5 c 128,-1,67
 344 120 344 120 359 155 c 1,68,69
 271 205 271 205 238 205 c 0,70,71
 175 205 175 205 175 158 c 0,72,73
 175 121 175 121 193.5 97 c 128,-1,65
 212 73 212 73 248 73 c 128,-1,66
EndSplineSet
EndChar

StartChar: currency
Encoding: 164 164 101
Width: 1188
GlyphClass: 2
Flags: W
LayerCount: 2
Fore
SplineSet
408.5 906 m 128,-1,1
 331 829 331 829 331 716.5 c 128,-1,2
 331 604 331 604 404.5 524.5 c 128,-1,3
 478 445 478 445 590 445 c 128,-1,4
 702 445 702 445 779.5 522 c 128,-1,5
 857 599 857 599 857 711 c 128,-1,6
 857 823 857 823 783 903 c 128,-1,7
 709 983 709 983 597.5 983 c 128,-1,0
 486 983 486 983 408.5 906 c 128,-1,1
817 1044 m 1,8,9
 824 1053 824 1053 847.5 1083.5 c 128,-1,10
 871 1114 871 1114 882 1128 c 0,11,12
 915 1168 915 1168 957 1194 c 1,13,14
 1007 1163 1007 1163 1039 1109 c 1,15,16
 1014 1069 1014 1069 968.5 1020.5 c 128,-1,17
 923 972 923 972 912 959 c 1,18,19
 998 848 998 848 998 714.5 c 128,-1,20
 998 581 998 581 914 470 c 1,21,22
 921 461 921 461 974.5 405.5 c 128,-1,23
 1028 350 1028 350 1046 318 c 1,24,25
 1010 268 1010 268 959 238 c 1,26,27
 927 257 927 257 902 286.5 c 128,-1,28
 877 316 877 316 850 349.5 c 128,-1,29
 823 383 823 383 822 384 c 1,30,31
 720 318 720 318 599.5 318 c 128,-1,32
 479 318 479 318 373 382 c 1,33,34
 366 373 366 373 342.5 342.5 c 128,-1,35
 319 312 319 312 308 298 c 0,36,37
 270 254 270 254 231 233 c 1,38,39
 177 269 177 269 149 317 c 1,40,41
 179 361 179 361 223 408 c 128,-1,42
 267 455 267 455 277 467 c 1,43,44
 191 579 191 579 191 713 c 128,-1,45
 191 847 191 847 275 958 c 1,46,47
 267 968 267 968 214 1023 c 128,-1,48
 161 1078 161 1078 142 1110 c 1,49,50
 182 1162 182 1162 230 1190 c 1,51,52
 272 1163 272 1163 299 1129.5 c 128,-1,53
 326 1096 326 1096 346.5 1070 c 128,-1,54
 367 1044 367 1044 369 1042 c 1,55,56
 477 1109 477 1109 595 1109 c 128,-1,57
 713 1109 713 1109 817 1044 c 1,8,9
EndSplineSet
EndChar

StartChar: yen
Encoding: 165 165 102
Width: 1340
GlyphClass: 2
Flags: W
LayerCount: 2
Fore
SplineSet
1088 265 m 0,0,1
 1088 210 1088 210 995 210 c 2,2,-1
 755 210 l 1,3,-1
 755 124 l 2,4,5
 755 89 755 89 791.5 72 c 128,-1,6
 828 55 828 55 872 53 c 0,7,8
 988 48 988 48 988 17 c 0,9,10
 988 12 988 12 984 0 c 1,11,-1
 314 0 l 1,12,13
 309 12 309 12 309 18 c 0,14,15
 309 48 309 48 390 53 c 0,16,17
 486 59 486 59 513 78.5 c 128,-1,18
 540 98 540 98 540 130 c 2,19,-1
 540 210 l 1,20,-1
 463 210 l 2,21,22
 289 210 289 210 260 230 c 0,23,24
 249 238 249 238 249 258 c 0,25,26
 249 300 249 300 370 302 c 1,27,-1
 540 303 l 1,28,-1
 540 395 l 1,29,-1
 389 391 l 1,30,31
 318 391 318 391 283.5 403.5 c 128,-1,32
 249 416 249 416 249 452 c 0,33,34
 249 464 249 464 254.5 469.5 c 128,-1,35
 260 475 260 475 282 480 c 0,36,37
 320 487 320 487 463 487 c 2,38,-1
 540 487 l 1,39,-1
 540 530 l 1,40,-1
 260 1030 l 2,41,42
 249 1050 249 1050 147.5 1102 c 128,-1,43
 46 1154 46 1154 46 1158.5 c 128,-1,44
 46 1163 46 1163 50 1176 c 1,45,-1
 676 1176 l 1,46,47
 680 1167 680 1167 680 1158 c 0,48,49
 680 1142 680 1142 633 1127.5 c 128,-1,50
 586 1113 586 1113 538.5 1097 c 128,-1,51
 491 1081 491 1081 491 1059 c 0,52,53
 491 1052 491 1052 496 1040 c 1,54,-1
 726 630 l 1,55,-1
 940 1040 l 2,56,57
 946 1050 946 1050 946 1063.5 c 128,-1,58
 946 1077 946 1077 925 1088.5 c 128,-1,59
 904 1100 904 1100 876 1106 c 0,60,61
 758 1129 758 1129 758 1159 c 0,62,63
 758 1163 758 1163 762 1176 c 1,64,-1
 1258 1176 l 1,65,66
 1262 1167 1262 1167 1262 1156.5 c 128,-1,67
 1262 1146 1262 1146 1232 1135 c 128,-1,68
 1202 1124 1202 1124 1157 1116 c 0,69,70
 1055 1100 1055 1100 1021 1040 c 2,71,-1
 755 580 l 1,72,-1
 755 487 l 1,73,-1
 984 487 l 2,74,75
 1033 487 1033 487 1060 471 c 128,-1,76
 1087 455 1087 455 1087 436.5 c 128,-1,77
 1087 418 1087 418 1065 405.5 c 128,-1,78
 1043 393 1043 393 1006 393 c 2,79,-1
 755 393 l 1,80,-1
 755 307 l 1,81,-1
 1011 307 l 2,82,83
 1048 307 1048 307 1068 294.5 c 128,-1,84
 1088 282 1088 282 1088 265 c 0,0,1
EndSplineSet
EndChar

StartChar: brokenbar
Encoding: 166 166 103
Width: 826
GlyphClass: 2
Flags: W
LayerCount: 2
Fore
SplineSet
477 183 m 1,0,-1
 473 -17 l 1,1,2
 473 -170 473 -170 438 -229 c 1,3,4
 409 -229 409 -229 386.5 -215 c 128,-1,5
 364 -201 364 -201 355 -197 c 1,6,-1
 355 407 l 1,7,8
 377 443 377 443 438 443 c 1,9,10
 477 369 477 369 477 183 c 1,0,-1
355 1343 m 1,11,12
 377 1379 377 1379 438 1379 c 1,13,14
 470 1301 470 1301 470 1247 c 2,15,-1
 470 739 l 1,16,17
 434 707 434 707 387 707 c 1,18,19
 355 799 355 799 355 1010 c 2,20,-1
 355 1343 l 1,11,12
EndSplineSet
EndChar

StartChar: section
Encoding: 167 167 104
Width: 856
GlyphClass: 2
Flags: W
LayerCount: 2
Fore
SplineSet
234 1043 m 1,0,1
 187 973 187 973 187 873 c 128,-1,2
 187 773 187 773 221 685.5 c 128,-1,3
 255 598 255 598 309.5 529.5 c 128,-1,4
 364 461 364 461 422 399 c 0,5,6
 574 234 574 234 624 110 c 1,7,-1
 626 107 l 1,8,9
 659 173 659 173 659 252.5 c 128,-1,10
 659 332 659 332 630 422 c 128,-1,11
 601 512 601 512 559.5 590.5 c 128,-1,12
 518 669 518 669 456 758 c 0,13,14
 356 901 356 901 234 1043 c 1,0,1
195 1073 m 1,15,16
 181 1108 181 1108 181 1152 c 0,17,18
 181 1248 181 1248 250 1304 c 128,-1,19
 319 1360 319 1360 417 1360 c 0,20,21
 520 1360 520 1360 592 1334 c 0,22,23
 727 1287 727 1287 727 1181 c 0,24,25
 727 1160 727 1160 705.5 1147 c 128,-1,26
 684 1134 684 1134 662 1134 c 128,-1,27
 640 1134 640 1134 610.5 1159.5 c 128,-1,28
 581 1185 581 1185 555.5 1215 c 128,-1,29
 530 1245 530 1245 491 1270.5 c 128,-1,30
 452 1296 452 1296 402 1296 c 128,-1,31
 352 1296 352 1296 306.5 1266.5 c 128,-1,32
 261 1237 261 1237 261 1190 c 128,-1,33
 261 1143 261 1143 287.5 1102 c 128,-1,34
 314 1061 314 1061 356.5 1019.5 c 128,-1,35
 399 978 399 978 450.5 930.5 c 128,-1,36
 502 883 502 883 554 825.5 c 128,-1,37
 606 768 606 768 648 704 c 1,38,39
 744 562 744 562 744 394.5 c 128,-1,40
 744 227 744 227 658 76 c 1,41,42
 683 26 683 26 683 -21 c 0,43,44
 683 -113 683 -113 605.5 -167.5 c 128,-1,45
 528 -222 528 -222 432 -222 c 0,46,47
 281 -222 281 -222 186 -166 c 0,48,49
 105 -119 105 -119 105 -34 c 0,50,51
 105 -3 105 -3 124.5 14 c 128,-1,52
 144 31 144 31 170.5 31 c 128,-1,53
 197 31 197 31 212.5 17.5 c 128,-1,54
 228 4 228 4 235.5 -16 c 128,-1,55
 243 -36 243 -36 257 -59 c 128,-1,56
 271 -82 271 -82 288 -102 c 0,57,58
 328 -149 328 -149 429 -149 c 0,59,60
 525 -149 525 -149 576 -100 c 0,61,62
 605 -72 605 -72 605 -27.5 c 128,-1,63
 605 17 605 17 578 65 c 128,-1,64
 551 113 551 113 507.5 156.5 c 128,-1,65
 464 200 464 200 411 247 c 128,-1,66
 358 294 358 294 305.5 348 c 128,-1,67
 253 402 253 402 210 460 c 0,68,69
 112 592 112 592 112 751 c 128,-1,70
 112 910 112 910 195 1073 c 1,15,16
EndSplineSet
EndChar

StartChar: dieresis
Encoding: 168 168 105
Width: 1121
GlyphClass: 2
Flags: W
LayerCount: 2
Fore
SplineSet
260.5 1269 m 128,-1,1
 292 1301 292 1301 337.5 1301 c 128,-1,2
 383 1301 383 1301 415 1269 c 128,-1,3
 447 1237 447 1237 447 1191.5 c 128,-1,4
 447 1146 447 1146 415 1114.5 c 128,-1,5
 383 1083 383 1083 337.5 1083 c 128,-1,6
 292 1083 292 1083 260.5 1114.5 c 128,-1,7
 229 1146 229 1146 229 1191.5 c 128,-1,0
 229 1237 229 1237 260.5 1269 c 128,-1,1
700.5 1269 m 128,-1,9
 732 1301 732 1301 777.5 1301 c 128,-1,10
 823 1301 823 1301 855 1269 c 128,-1,11
 887 1237 887 1237 887 1191.5 c 128,-1,12
 887 1146 887 1146 855 1114.5 c 128,-1,13
 823 1083 823 1083 777.5 1083 c 128,-1,14
 732 1083 732 1083 700.5 1114.5 c 128,-1,15
 669 1146 669 1146 669 1191.5 c 128,-1,8
 669 1237 669 1237 700.5 1269 c 128,-1,9
EndSplineSet
EndChar

StartChar: copyright
Encoding: 169 169 106
Width: 1507
GlyphClass: 2
Flags: W
LayerCount: 2
Fore
SplineSet
1304.5 398 m 128,-1,1
 1350 507 1350 507 1350 631 c 128,-1,2
 1350 755 1350 755 1306.5 868.5 c 128,-1,3
 1263 982 1263 982 1185.5 1066.5 c 128,-1,4
 1108 1151 1108 1151 994.5 1200 c 128,-1,5
 881 1249 881 1249 730.5 1249 c 128,-1,6
 580 1249 580 1249 445 1169 c 128,-1,7
 310 1089 310 1089 236 956 c 128,-1,8
 162 823 162 823 162 657 c 128,-1,9
 162 491 162 491 239 348.5 c 128,-1,10
 316 206 316 206 456 123.5 c 128,-1,11
 596 41 596 41 772 41 c 0,12,13
 890 41 890 41 997 87 c 128,-1,14
 1104 133 1104 133 1181.5 211 c 128,-1,0
 1259 289 1259 289 1304.5 398 c 128,-1,1
1378.5 916.5 m 128,-1,16
 1435 790 1435 790 1435 623 c 128,-1,17
 1435 456 1435 456 1343.5 302 c 128,-1,18
 1252 148 1252 148 1096 62.5 c 128,-1,19
 940 -23 940 -23 757.5 -23 c 128,-1,20
 575 -23 575 -23 420 61.5 c 128,-1,21
 265 146 265 146 169 301 c 128,-1,22
 73 456 73 456 73 621.5 c 128,-1,23
 73 787 73 787 129 913 c 128,-1,24
 185 1039 185 1039 278.5 1126 c 128,-1,25
 372 1213 372 1213 496.5 1263.5 c 128,-1,26
 621 1314 621 1314 754 1314 c 128,-1,27
 887 1314 887 1314 1011 1264.5 c 128,-1,28
 1135 1215 1135 1215 1228.5 1129 c 128,-1,15
 1322 1043 1322 1043 1378.5 916.5 c 128,-1,16
1080 1080 m 1,29,-1
 1101 840 l 1,30,31
 1089 838 1089 838 1071 838 c 1,32,33
 992 1055 992 1055 775 1055 c 0,34,35
 639 1055 639 1055 555 950.5 c 128,-1,36
 471 846 471 846 471 667.5 c 128,-1,37
 471 489 471 489 558 385.5 c 128,-1,38
 645 282 645 282 801 282 c 0,39,40
 893 282 893 282 955 308 c 128,-1,41
 1017 334 1017 334 1088 392 c 1,42,43
 1099 389 1099 389 1114 376 c 1,44,45
 1074 298 1074 298 973.5 251.5 c 128,-1,46
 873 205 873 205 763 205 c 0,47,48
 568 205 568 205 439 329.5 c 128,-1,49
 310 454 310 454 310 644 c 128,-1,50
 310 834 310 834 439 959 c 128,-1,51
 568 1084 568 1084 756 1096 c 1,52,53
 821 1096 821 1096 897 1075 c 128,-1,54
 973 1054 973 1054 989.5 1054 c 128,-1,55
 1006 1054 1006 1054 1016 1080 c 1,56,-1
 1080 1080 l 1,29,-1
EndSplineSet
EndChar

StartChar: ordfeminine
Encoding: 170 170 107
Width: 708
GlyphClass: 2
Flags: W
LayerCount: 2
Fore
SplineSet
439 688 m 1,0,-1
 439 855 l 1,1,2
 426 851 426 851 393.5 841.5 c 128,-1,3
 361 832 361 832 340.5 825.5 c 128,-1,4
 320 819 320 819 291.5 805.5 c 128,-1,5
 263 792 263 792 246 778 c 0,6,7
 205 743 205 743 205 700 c 0,8,9
 205 619 205 619 289 619 c 0,10,11
 358 619 358 619 439 688 c 1,0,-1
662 602 m 1,12,13
 629 546 629 546 532 546 c 0,14,15
 492 546 492 546 468 574 c 128,-1,16
 444 602 444 602 441 644 c 1,17,18
 326 546 326 546 227 546 c 0,19,20
 164 546 164 546 117 579 c 128,-1,21
 70 612 70 612 70 666 c 128,-1,22
 70 720 70 720 95.5 755 c 128,-1,23
 121 790 121 790 167.5 811.5 c 128,-1,24
 214 833 214 833 257 845.5 c 128,-1,25
 300 858 300 858 357 871.5 c 128,-1,26
 414 885 414 885 439 893 c 1,27,-1
 439 959 l 2,28,29
 439 1035 439 1035 413 1076 c 128,-1,30
 387 1117 387 1117 314 1117 c 0,31,32
 266 1117 266 1117 235.5 1096.5 c 128,-1,33
 205 1076 205 1076 205 1061 c 128,-1,34
 205 1046 205 1046 217 1026 c 128,-1,35
 229 1006 229 1006 229 990.5 c 128,-1,36
 229 975 229 975 200 955 c 128,-1,37
 171 935 171 935 149.5 935 c 128,-1,38
 128 935 128 935 110 964 c 128,-1,39
 92 993 92 993 92 1024.5 c 128,-1,40
 92 1056 92 1056 118.5 1086.5 c 128,-1,41
 145 1117 145 1117 186 1133 c 0,42,43
 267 1164 267 1164 345 1164 c 0,44,45
 472 1164 472 1164 519 1110.5 c 128,-1,46
 566 1057 566 1057 566 928 c 1,47,-1
 560 780 l 1,48,49
 560 659 560 659 571.5 646.5 c 128,-1,50
 583 634 583 634 598.5 634 c 128,-1,51
 614 634 614 634 646 651 c 1,52,-1
 662 602 l 1,12,13
EndSplineSet
EndChar

StartChar: guillemotleft
Encoding: 171 171 108
Width: 794
GlyphClass: 2
Flags: W
LayerCount: 2
Fore
SplineSet
228 507 m 1,0,1
 249 465 249 465 301 374 c 0,2,3
 415 173 415 173 442 85 c 1,4,5
 424 63 424 63 400 63 c 1,6,7
 370 83 370 83 339 124 c 2,8,-1
 45 507 l 1,9,-1
 346 885 l 2,10,11
 352 893 352 893 362.5 906.5 c 128,-1,12
 373 920 373 920 381 930.5 c 128,-1,13
 389 941 389 941 396 947 c 1,14,15
 430 947 430 947 449 922 c 1,16,17
 424 842 424 842 337 695.5 c 128,-1,18
 250 549 250 549 228 507 c 1,0,1
693 808 m 2,19,-1
 540 507 l 1,20,-1
 689 200 l 2,21,22
 701 175 701 175 710 134 c 1,23,24
 693 113 693 113 669 113 c 1,25,26
 645 128 645 128 613 172 c 2,27,-1
 369 507 l 1,28,29
 543 744 543 744 665 898 c 1,30,31
 700 898 700 898 718 872 c 1,32,33
 708 837 708 837 693 808 c 2,19,-1
EndSplineSet
EndChar

StartChar: logicalnot
Encoding: 172 172 109
Width: 1345
GlyphClass: 2
Flags: W
LayerCount: 2
Fore
SplineSet
141 893 m 1,0,-1
 314 893 l 2,1,2
 560 893 560 893 1048 895 c 0,3,4
 1108 895 1108 895 1183 885 c 1,5,6
 1198 786 1198 786 1198 620 c 2,7,-1
 1198 403 l 2,8,9
 1198 317 1198 317 1167 286 c 1,10,11
 1140 286 1140 286 1097.5 299 c 128,-1,12
 1055 312 1055 312 1043 314 c 1,13,-1
 1043 742 l 1,14,-1
 230 742 l 2,15,16
 142 742 142 742 109 773 c 1,17,18
 109 805 109 805 123 842.5 c 128,-1,19
 137 880 137 880 141 893 c 1,0,-1
EndSplineSet
EndChar

StartChar: uni00AD
Encoding: 173 173 110
Width: 772
GlyphClass: 2
Flags: W
LayerCount: 2
Fore
SplineSet
586 391 m 2,0,-1
 151 391 l 1,1,2
 124 404 124 404 122 421 c 128,-1,3
 120 438 120 438 120 472 c 128,-1,4
 120 506 120 506 124 525 c 1,5,6
 159 530 159 530 221 530 c 2,7,-1
 586 530 l 2,8,9
 643 530 643 530 685 524 c 1,10,11
 689 504 689 504 689 458 c 128,-1,12
 689 412 689 412 685 394 c 1,13,14
 658 391 658 391 586 391 c 2,0,-1
EndSplineSet
EndChar

StartChar: registered
Encoding: 174 174 111
Width: 1507
GlyphClass: 2
Flags: W
LayerCount: 2
Fore
SplineSet
1273.5 333.5 m 128,-1,1
 1350 468 1350 468 1350 634 c 128,-1,2
 1350 800 1350 800 1274.5 942 c 128,-1,3
 1199 1084 1199 1084 1060.5 1166.5 c 128,-1,4
 922 1249 922 1249 754 1249 c 128,-1,5
 586 1249 586 1249 451.5 1172.5 c 128,-1,6
 317 1096 317 1096 239.5 962 c 128,-1,7
 162 828 162 828 162 659.5 c 128,-1,8
 162 491 162 491 239 348.5 c 128,-1,9
 316 206 316 206 456 123.5 c 128,-1,10
 596 41 596 41 763.5 41 c 128,-1,11
 931 41 931 41 1064 120 c 128,-1,0
 1197 199 1197 199 1273.5 333.5 c 128,-1,1
1343 985 m 128,-1,13
 1435 831 1435 831 1435 644.5 c 128,-1,14
 1435 458 1435 458 1344 304 c 128,-1,15
 1253 150 1253 150 1097 63.5 c 128,-1,16
 941 -23 941 -23 778.5 -23 c 128,-1,17
 616 -23 616 -23 490.5 29.5 c 128,-1,18
 365 82 365 82 273.5 170.5 c 128,-1,19
 182 259 182 259 127.5 383.5 c 128,-1,20
 73 508 73 508 73 669 c 128,-1,21
 73 830 73 830 165.5 984 c 128,-1,22
 258 1138 258 1138 414.5 1226 c 128,-1,23
 571 1314 571 1314 755 1314 c 128,-1,24
 939 1314 939 1314 1095 1226.5 c 128,-1,12
 1251 1139 1251 1139 1343 985 c 128,-1,13
630 1018 m 1,25,-1
 630 680 l 1,26,27
 789 684 789 684 848 724 c 0,28,29
 910 766 910 766 910 853.5 c 128,-1,30
 910 941 910 941 849.5 982.5 c 128,-1,31
 789 1024 789 1024 697 1024 c 0,32,33
 663 1024 663 1024 630 1018 c 1,25,-1
1064 857 m 0,34,35
 1064 697 1064 697 838 652 c 1,36,37
 844 642 844 642 876 588.5 c 128,-1,38
 908 535 908 535 934.5 493.5 c 128,-1,39
 961 452 961 452 996 402 c 0,40,41
 1069 294 1069 294 1109 282 c 1,42,43
 1112 274 1112 274 1129 266.5 c 128,-1,44
 1146 259 1146 259 1146 241 c 1,45,-1
 947 241 l 1,46,47
 794 477 794 477 701 641 c 1,48,-1
 630 644 l 1,49,-1
 630 338 l 2,50,51
 630 316 630 316 643.5 302 c 128,-1,52
 657 288 657 288 670 283.5 c 128,-1,53
 683 279 683 279 710.5 273.5 c 128,-1,54
 738 268 738 268 745 266 c 1,55,-1
 744 241 l 1,56,-1
 378 241 l 1,57,-1
 376 266 l 1,58,59
 386 270 386 270 405 274.5 c 128,-1,60
 424 279 424 279 435.5 283 c 128,-1,61
 447 287 447 287 460 295 c 0,62,63
 485 310 485 310 485 349 c 2,64,-1
 485 951 l 2,65,66
 485 1000 485 1000 432 1025 c 0,67,68
 415 1033 415 1033 384 1045 c 1,69,-1
 385 1069 l 1,70,-1
 746 1069 l 2,71,72
 859 1069 859 1069 931 1036 c 0,73,74
 1064 974 1064 974 1064 857 c 0,34,35
EndSplineSet
EndChar

StartChar: macron
Encoding: 175 175 112
Width: 772
GlyphClass: 2
Flags: W
LayerCount: 2
Fore
SplineSet
691 1302 m 1,0,-1
 89 1302 l 1,1,-1
 89 1430 l 1,2,-1
 691 1430 l 1,3,-1
 691 1302 l 1,0,-1
EndSplineSet
EndChar

StartChar: degree
Encoding: 176 176 113
Width: 703
GlyphClass: 2
Flags: W
LayerCount: 2
Fore
SplineSet
522.5 1216 m 128,-1,1
 593 1145 593 1145 593 1045.5 c 128,-1,2
 593 946 593 946 522.5 874.5 c 128,-1,3
 452 803 452 803 350 803 c 128,-1,4
 248 803 248 803 177 873.5 c 128,-1,5
 106 944 106 944 106 1044.5 c 128,-1,6
 106 1145 106 1145 177.5 1216 c 128,-1,7
 249 1287 249 1287 350.5 1287 c 128,-1,0
 452 1287 452 1287 522.5 1216 c 128,-1,1
487 911.5 m 128,-1,9
 543 968 543 968 543 1044.5 c 128,-1,10
 543 1121 543 1121 487 1177 c 128,-1,11
 431 1233 431 1233 352 1233 c 128,-1,12
 273 1233 273 1233 216.5 1177 c 128,-1,13
 160 1121 160 1121 160 1043.5 c 128,-1,14
 160 966 160 966 216 910.5 c 128,-1,15
 272 855 272 855 351.5 855 c 128,-1,8
 431 855 431 855 487 911.5 c 128,-1,9
EndSplineSet
EndChar

StartChar: plusminus
Encoding: 177 177 114
Width: 1099
GlyphClass: 2
Flags: W
LayerCount: 2
Fore
SplineSet
480 312 m 1,0,-1
 482 505 l 1,1,-1
 159 505 l 1,2,3
 126 524 126 524 116.5 549 c 128,-1,4
 107 574 107 574 107 618 c 1,5,6
 171 642 171 642 321 642 c 1,7,-1
 482 639 l 1,8,-1
 480 831 l 1,9,10
 480 940 480 940 490 1012 c 1,11,12
 520 1015 520 1015 554.5 1015 c 128,-1,13
 589 1015 589 1015 608 1012 c 1,14,15
 619 937 619 937 619 825 c 1,16,17
 619 825 619 825 617 639 c 1,18,-1
 785 640 l 2,19,20
 908 640 908 640 990 629 c 1,21,22
 993 599 993 599 993 569.5 c 128,-1,23
 993 540 993 540 990 512 c 1,24,25
 914 503 914 503 810 503 c 1,26,-1
 617 505 l 1,27,-1
 618 337 l 2,28,29
 618 214 618 214 607 132 c 1,30,31
 577 129 577 129 548 129 c 128,-1,32
 519 129 519 129 489 132 c 1,33,34
 480 208 480 208 480 312 c 1,0,-1
EndSplineSet
EndChar

StartChar: acute
Encoding: 180 180 115
Width: 968
GlyphClass: 2
Flags: W
LayerCount: 2
Fore
SplineSet
646 1544 m 128,-1,1
 671 1518 671 1518 671 1489 c 128,-1,2
 671 1460 671 1460 646.5 1438.5 c 128,-1,3
 622 1417 622 1417 478 1284 c 128,-1,4
 334 1151 334 1151 302.5 1123.5 c 128,-1,5
 271 1096 271 1096 254 1096 c 0,6,7
 231 1096 231 1096 231 1122 c 0,8,9
 231 1136 231 1136 242 1151 c 128,-1,10
 253 1166 253 1166 529 1536 c 0,11,12
 554 1570 554 1570 587.5 1570 c 128,-1,0
 621 1570 621 1570 646 1544 c 128,-1,1
EndSplineSet
EndChar

StartChar: paragraph
Encoding: 182 182 116
Width: 1029
GlyphClass: 2
Flags: W
LayerCount: 2
Fore
SplineSet
835 1204 m 1,0,-1
 836 -112 l 2,1,2
 836 -139 836 -139 962 -146 c 0,3,4
 1005 -149 1005 -149 1005 -158 c 2,5,-1
 1005 -224 l 1,6,-1
 744 -224 l 1,7,-1
 744 1220 l 1,8,-1
 604 1220 l 1,9,-1
 604 -224 l 1,10,-1
 313 -224 l 1,11,-1
 313 -158 l 2,12,13
 313 -149 313 -149 362.5 -146 c 128,-1,14
 412 -143 412 -143 462 -136.5 c 128,-1,15
 512 -130 512 -130 512 -112 c 2,16,-1
 512 577 l 1,17,18
 22 577 22 577 22 935 c 0,19,20
 22 1303 22 1303 535 1303 c 2,21,-1
 1003 1303 l 1,22,-1
 1005 1264 l 1,23,24
 992 1252 992 1252 921.5 1241 c 128,-1,25
 851 1230 851 1230 835 1204 c 1,0,-1
EndSplineSet
EndChar

StartChar: cedilla
Encoding: 184 184 117
Width: 691
GlyphClass: 2
Flags: W
LayerCount: 2
Fore
SplineSet
358 11 m 1,0,1
 375 -62 375 -62 382 -94 c 1,2,3
 462 -105 462 -105 502.5 -147.5 c 128,-1,4
 543 -190 543 -190 543 -258.5 c 128,-1,5
 543 -327 543 -327 475.5 -376 c 128,-1,6
 408 -425 408 -425 329 -425 c 128,-1,7
 250 -425 250 -425 176 -393 c 1,8,-1
 189 -336 l 1,9,10
 229 -356 229 -356 272.5 -356 c 128,-1,11
 316 -356 316 -356 348 -331.5 c 128,-1,12
 380 -307 380 -307 380 -268 c 0,13,14
 380 -171 380 -171 228 -164 c 1,15,-1
 275 11 l 1,16,-1
 358 11 l 1,0,1
EndSplineSet
EndChar

StartChar: ordmasculine
Encoding: 186 186 118
Width: 791
GlyphClass: 2
Flags: W
LayerCount: 2
Fore
SplineSet
258 1060 m 128,-1,1
 209 1001 209 1001 209 881 c 128,-1,2
 209 761 209 761 267 681.5 c 128,-1,3
 325 602 325 602 404.5 602 c 128,-1,4
 484 602 484 602 536 658.5 c 128,-1,5
 588 715 588 715 588 808 c 0,6,7
 588 919 588 919 540 1014 c 0,8,9
 516 1061 516 1061 476 1090 c 128,-1,10
 436 1119 436 1119 371.5 1119 c 128,-1,0
 307 1119 307 1119 258 1060 c 128,-1,1
168.5 635 m 128,-1,12
 72 723 72 723 72 858 c 128,-1,13
 72 993 72 993 167 1078.5 c 128,-1,14
 262 1164 262 1164 396.5 1164 c 128,-1,15
 531 1164 531 1164 625 1080.5 c 128,-1,16
 719 997 719 997 719 858 c 128,-1,17
 719 719 719 719 625.5 633 c 128,-1,18
 532 547 532 547 398.5 547 c 128,-1,11
 265 547 265 547 168.5 635 c 128,-1,12
EndSplineSet
EndChar

StartChar: guillemotright
Encoding: 187 187 119
Width: 794
GlyphClass: 2
Flags: W
LayerCount: 2
Fore
SplineSet
352 85 m 1,0,1
 386 198 386 198 466.5 334.5 c 128,-1,2
 547 471 547 471 566 507 c 1,3,4
 548 539 548 539 493 628 c 0,5,6
 377 816 377 816 345 921 c 1,7,8
 363 946 363 946 398 946 c 1,9,10
 490 847 490 847 599.5 701 c 128,-1,11
 709 555 709 555 748 507 c 1,12,-1
 461 132 l 2,13,14
 426 86 426 86 394 63 c 1,15,16
 371 63 371 63 352 85 c 1,0,1
425 507 m 1,17,18
 197 164 197 164 125 112 c 1,19,20
 103 112 103 112 84 134 c 1,21,22
 103 231 103 231 173 357.5 c 128,-1,23
 243 484 243 484 254 507 c 1,24,25
 242 531 242 531 196 612 c 0,26,27
 97 783 97 783 76 872 c 1,28,29
 95 897 95 897 129 897 c 1,30,31
 193 825 193 825 303 674 c 128,-1,32
 413 523 413 523 425 507 c 1,17,18
EndSplineSet
EndChar

StartChar: onequarter
Encoding: 188 188 120
Width: 1894
GlyphClass: 2
Flags: W
LayerCount: 2
Fore
SplineSet
431 571 m 0,0,1
 448 561 448 561 484 560 c 128,-1,2
 520 559 520 559 526 548 c 1,3,-1
 526 512 l 1,4,-1
 115 512 l 1,5,-1
 115 547 l 1,6,7
 146 562 146 562 178 564.5 c 128,-1,8
 210 567 210 567 223 574 c 0,9,10
 247 588 247 588 247 663 c 2,11,-1
 247 1084 l 2,12,13
 247 1148 247 1148 227.5 1161 c 128,-1,14
 208 1174 208 1174 194 1177.5 c 128,-1,15
 180 1181 180 1181 157 1186.5 c 128,-1,16
 134 1192 134 1192 117 1199 c 1,17,-1
 119 1234 l 1,18,19
 259 1250 259 1250 364 1301 c 1,20,21
 381 1301 381 1301 398 1295 c 1,22,-1
 397 685 l 2,23,24
 397 591 397 591 431 571 c 0,0,1
543 -77 m 1,25,26
 525 -81 525 -81 489 -81 c 2,27,-1
 456 -81 l 1,28,29
 461 -65 461 -65 472 -27 c 0,30,31
 496 56 496 56 515 91 c 2,32,-1
 1024 1045 l 2,33,34
 1038 1071 1038 1071 1069.5 1136.5 c 128,-1,35
 1101 1202 1101 1202 1122 1244 c 0,36,37
 1182 1362 1182 1362 1253 1410 c 1,38,39
 1305 1410 1305 1410 1343 1386 c 1,40,-1
 1265 1254 l 1,41,42
 1036 875 1036 875 967.5 747.5 c 128,-1,43
 899 620 899 620 856.5 533.5 c 128,-1,44
 814 447 814 447 786.5 387.5 c 128,-1,45
 759 328 759 328 710 222.5 c 128,-1,46
 661 117 661 117 642 75.5 c 128,-1,47
 623 34 623 34 543 -77 c 1,25,26
1202 325 m 1,48,-1
 1465 325 l 1,49,-1
 1465 716 l 1,50,-1
 1202 325 l 1,48,-1
1774 367 m 1,51,-1
 1745 251 l 1,52,-1
 1617 251 l 1,53,-1
 1617 155 l 2,54,55
 1617 135 1617 135 1632 121 c 128,-1,56
 1647 107 1647 107 1663.5 102 c 128,-1,57
 1680 97 1680 97 1707 91.5 c 128,-1,58
 1734 86 1734 86 1742 84 c 1,59,-1
 1742 47 l 1,60,-1
 1342 47 l 1,61,-1
 1342 83 l 1,62,63
 1349 86 1349 86 1388.5 93.5 c 128,-1,64
 1428 101 1428 101 1447.5 114.5 c 128,-1,65
 1467 128 1467 128 1467 155 c 2,66,-1
 1467 251 l 1,67,-1
 1116 251 l 1,68,-1
 1111 319 l 1,69,-1
 1477 840 l 1,70,71
 1615 846 1615 846 1617 846 c 1,72,-1
 1617 328 l 1,73,74
 1687 328 1687 328 1701 338 c 128,-1,75
 1715 348 1715 348 1725.5 363 c 128,-1,76
 1736 378 1736 378 1745 386 c 1,77,78
 1766 386 1766 386 1774 367 c 1,51,-1
EndSplineSet
EndChar

StartChar: onehalf
Encoding: 189 189 121
Width: 1831
GlyphClass: 2
Flags: W
LayerCount: 2
Fore
SplineSet
428 571 m 0,0,1
 445 561 445 561 481 560 c 128,-1,2
 517 559 517 559 525 548 c 1,3,-1
 523 512 l 1,4,-1
 114 512 l 1,5,-1
 112 547 l 1,6,7
 144 562 144 562 176 564.5 c 128,-1,8
 208 567 208 567 220 574 c 0,9,10
 244 587 244 587 244 663 c 2,11,-1
 244 1084 l 2,12,13
 244 1148 244 1148 224.5 1161 c 128,-1,14
 205 1174 205 1174 192 1177.5 c 128,-1,15
 179 1181 179 1181 156 1186.5 c 128,-1,16
 133 1192 133 1192 116 1199 c 1,17,-1
 116 1234 l 1,18,19
 256 1250 256 1250 361 1301 c 1,20,21
 379 1301 379 1301 395 1295 c 1,22,-1
 394 685 l 2,23,24
 394 591 394 591 428 571 c 0,0,1
1571 45 m 1,25,-1
 1266 46 l 2,26,27
 1165 46 1165 46 1114 45 c 1,28,-1
 1110 88 l 1,29,30
 1134 116 1134 116 1191.5 173.5 c 128,-1,31
 1249 231 1249 231 1294.5 280.5 c 128,-1,32
 1340 330 1340 330 1388 390 c 0,33,34
 1492 518 1492 518 1492 620 c 0,35,36
 1492 679 1492 679 1457 720 c 128,-1,37
 1422 761 1422 761 1364 761 c 0,38,39
 1253 761 1253 761 1152 636 c 1,40,-1
 1109 654 l 1,41,42
 1121 685 1121 685 1141 713 c 1,43,-1
 1142 718 l 1,44,45
 1245 842 1245 842 1390 842 c 0,46,47
 1498 842 1498 842 1575.5 784 c 128,-1,48
 1653 726 1653 726 1653 621 c 0,49,50
 1653 519 1653 519 1545 407 c 0,51,52
 1466 325 1466 325 1373 248.5 c 128,-1,53
 1280 172 1280 172 1253 145 c 1,54,-1
 1462 145 l 2,55,56
 1529 145 1529 145 1561 160.5 c 128,-1,57
 1593 176 1593 176 1608.5 217 c 128,-1,58
 1624 258 1624 258 1635 269 c 1,59,-1
 1679 269 l 1,60,-1
 1636 45 l 1,61,-1
 1571 45 l 1,25,-1
543 -77 m 1,62,63
 525 -81 525 -81 489 -81 c 2,64,-1
 456 -81 l 1,65,66
 462 -63 462 -63 472 -26 c 0,67,68
 493 51 493 51 515 91 c 2,69,-1
 1024 1045 l 2,70,71
 1039 1072 1039 1072 1069.5 1137.5 c 128,-1,72
 1100 1203 1100 1203 1122 1245 c 0,73,74
 1181 1360 1181 1360 1253 1410 c 1,75,76
 1305 1410 1305 1410 1343 1386 c 1,77,78
 1303 1318 1303 1318 1214 1170 c 0,79,80
 1024 855 1024 855 956.5 728 c 128,-1,81
 889 601 889 601 819 444 c 0,82,83
 655 78 655 78 543 -77 c 1,62,63
EndSplineSet
EndChar

StartChar: threequarters
Encoding: 190 190 122
Width: 1931
GlyphClass: 2
Flags: W
LayerCount: 2
Fore
SplineSet
643 -77 m 1,0,1
 625 -81 625 -81 589 -81 c 2,2,-1
 556 -81 l 1,3,4
 561 -65 561 -65 572 -27 c 0,5,6
 596 56 596 56 615 91 c 2,7,-1
 1124 1045 l 2,8,9
 1138 1071 1138 1071 1169.5 1136.5 c 128,-1,10
 1201 1202 1201 1202 1222 1244 c 0,11,12
 1282 1362 1282 1362 1353 1410 c 1,13,14
 1405 1410 1405 1410 1443 1386 c 1,15,-1
 1365 1254 l 1,16,17
 1136 875 1136 875 1067.5 747.5 c 128,-1,18
 999 620 999 620 956.5 533.5 c 128,-1,19
 914 447 914 447 886.5 387.5 c 128,-1,20
 859 328 859 328 810 222.5 c 128,-1,21
 761 117 761 117 742 75.5 c 128,-1,22
 723 34 723 34 643 -77 c 1,0,1
1202 325 m 1,23,-1
 1465 325 l 1,24,-1
 1465 716 l 1,25,-1
 1202 325 l 1,23,-1
1774 367 m 1,26,-1
 1745 251 l 1,27,-1
 1617 251 l 1,28,-1
 1617 155 l 2,29,30
 1617 135 1617 135 1632 121 c 128,-1,31
 1647 107 1647 107 1663.5 102 c 128,-1,32
 1680 97 1680 97 1707 91.5 c 128,-1,33
 1734 86 1734 86 1742 84 c 1,34,-1
 1742 47 l 1,35,-1
 1342 47 l 1,36,-1
 1342 83 l 1,37,38
 1349 86 1349 86 1388.5 93.5 c 128,-1,39
 1428 101 1428 101 1447.5 114.5 c 128,-1,40
 1467 128 1467 128 1467 155 c 2,41,-1
 1467 251 l 1,42,-1
 1116 251 l 1,43,-1
 1111 319 l 1,44,-1
 1477 840 l 1,45,46
 1615 846 1615 846 1617 846 c 1,47,-1
 1617 328 l 1,48,49
 1687 328 1687 328 1701 338 c 128,-1,50
 1715 348 1715 348 1725.5 363 c 128,-1,51
 1736 378 1736 378 1745 386 c 1,52,53
 1766 386 1766 386 1774 367 c 1,26,-1
205 566 m 1,54,-1
 190 504 l 1,55,56
 190 478 190 478 234 462.5 c 128,-1,57
 278 447 278 447 310 447 c 0,58,59
 403 447 403 447 457 511 c 128,-1,60
 511 575 511 575 511 671 c 128,-1,61
 511 767 511 767 464.5 831.5 c 128,-1,62
 418 896 418 896 325 896 c 0,63,64
 294 896 294 896 251 887 c 1,65,-1
 217 925 l 1,66,67
 220 926 220 926 241 936.5 c 128,-1,68
 262 947 262 947 284.5 958.5 c 128,-1,69
 307 970 307 970 348 995 c 128,-1,70
 389 1020 389 1020 414 1042 c 0,71,72
 477 1097 477 1097 477 1150 c 0,73,74
 477 1257 477 1257 372 1257 c 0,75,76
 328 1257 328 1257 260 1219.5 c 128,-1,77
 192 1182 192 1182 155 1182 c 0,78,79
 142 1182 142 1182 142 1201 c 1,80,-1
 145 1213 l 1,81,82
 182 1266 182 1266 251 1296.5 c 128,-1,83
 320 1327 320 1327 398 1327 c 128,-1,84
 476 1327 476 1327 535.5 1281 c 128,-1,85
 595 1235 595 1235 595 1152 c 128,-1,86
 595 1069 595 1069 538 1014 c 128,-1,87
 481 959 481 959 397 950 c 1,88,89
 521 950 521 950 598.5 873.5 c 128,-1,90
 676 797 676 797 676 673 c 0,91,92
 676 523 676 523 520 447 c 0,93,94
 433 405 433 405 328 405 c 0,95,96
 241 405 241 405 178 427 c 0,97,98
 59 469 59 469 59 554 c 0,99,100
 59 586 59 586 82.5 609.5 c 128,-1,101
 106 633 106 633 134.5 633 c 128,-1,102
 163 633 163 633 184 612.5 c 128,-1,103
 205 592 205 592 205 566 c 1,54,-1
EndSplineSet
EndChar

StartChar: questiondown
Encoding: 191 191 123
Width: 806
GlyphClass: 2
Flags: W
LayerCount: 2
Fore
SplineSet
494 1080 m 128,-1,1
 443 1080 443 1080 405.5 1117 c 128,-1,2
 368 1154 368 1154 368 1205 c 128,-1,3
 368 1256 368 1256 405.5 1292.5 c 128,-1,4
 443 1329 443 1329 493.5 1329 c 128,-1,5
 544 1329 544 1329 580.5 1292 c 128,-1,6
 617 1255 617 1255 617 1204.5 c 128,-1,7
 617 1154 617 1154 581 1117 c 128,-1,0
 545 1080 545 1080 494 1080 c 128,-1,1
460 958 m 1,8,-1
 541 958 l 1,9,10
 544 930 544 930 558.5 856 c 128,-1,11
 573 782 573 782 573 748 c 128,-1,12
 573 714 573 714 545.5 686 c 128,-1,13
 518 658 518 658 477.5 634.5 c 128,-1,14
 437 611 437 611 389 579 c 128,-1,15
 341 547 341 547 300 514 c 0,16,17
 205 436 205 436 205 337 c 128,-1,18
 205 238 205 238 278.5 168 c 128,-1,19
 352 98 352 98 446 98 c 0,20,21
 491 98 491 98 532 141 c 0,22,23
 550 159 550 159 568 177 c 0,24,25
 609 220 609 220 647.5 220 c 128,-1,26
 686 220 686 220 708 194.5 c 128,-1,27
 730 169 730 169 730 132.5 c 128,-1,28
 730 96 730 96 705.5 65.5 c 128,-1,29
 681 35 681 35 641 18 c 0,30,31
 565 -13 565 -13 471.5 -13 c 128,-1,32
 378 -13 378 -13 284 36 c 128,-1,33
 190 85 190 85 129 169.5 c 128,-1,34
 68 254 68 254 68 336 c 128,-1,35
 68 418 68 418 89.5 476 c 128,-1,36
 111 534 111 534 145.5 572 c 128,-1,37
 180 610 180 610 222 641.5 c 128,-1,38
 264 673 264 673 306 700.5 c 128,-1,39
 348 728 348 728 382 757 c 0,40,41
 460 822 460 822 460 919 c 2,42,-1
 460 958 l 1,8,-1
EndSplineSet
EndChar

StartChar: AE
Encoding: 198 198 130
Width: 1966
GlyphClass: 2
Flags: W
LayerCount: 2
Fore
SplineSet
502 685 m 1,0,-1
 831 685 l 1,1,-1
 745 1130 l 1,2,-1
 502 685 l 1,0,-1
601 1224 m 1,3,4
 646 1314 646 1314 656 1324 c 1,5,6
 757 1324 757 1324 808 1305 c 1,7,-1
 1546 1305 l 2,8,9
 1572 1305 1572 1305 1603 1323 c 1,10,11
 1637 1323 1637 1323 1685 1320 c 1,12,-1
 1741 997 l 1,13,14
 1707 995 1707 995 1690 995 c 1,15,16
 1641 1026 1641 1026 1600 1112 c 1,17,18
 1563 1192 1563 1192 1508 1207 c 1,19,20
 1397 1231 1397 1231 1224 1231 c 2,21,-1
 1124 1231 l 2,22,23
 1003 1231 1003 1231 928 1209 c 1,24,25
 936 1172 936 1172 1045 719 c 1,26,-1
 1308 719 l 2,27,28
 1392 719 1392 719 1452 729 c 1,29,30
 1481 737 1481 737 1494 756.5 c 128,-1,31
 1507 776 1507 776 1514 795.5 c 128,-1,32
 1521 815 1521 815 1524 828 c 1,33,34
 1529 844 1529 844 1540 893 c 1,35,36
 1552 893 1552 893 1594 891 c 1,37,-1
 1689 466 l 1,38,39
 1649 464 1649 464 1631 464 c 1,40,41
 1525 598 1525 598 1472 624 c 0,42,43
 1444 637 1444 637 1415 638 c 1,44,-1
 1060 638 l 1,45,-1
 1142 256 l 2,46,47
 1145 246 1145 246 1151.5 219.5 c 128,-1,48
 1158 193 1158 193 1160.5 183.5 c 128,-1,49
 1163 174 1163 174 1169.5 154 c 128,-1,50
 1176 134 1176 134 1181 125.5 c 128,-1,51
 1186 117 1186 117 1194 105 c 0,52,53
 1208 84 1208 84 1232 78 c 128,-1,54
 1256 72 1256 72 1341 70 c 1,55,-1
 1471 73 l 1,56,57
 1587 73 1587 73 1653 101 c 1,58,59
 1715 116 1715 116 1748 196 c 0,60,61
 1785 286 1785 286 1835 325 c 1,62,63
 1858 325 1858 325 1889 322 c 1,64,-1
 1833 -20 l 1,65,66
 1777 -22 1777 -22 1760.5 -22 c 128,-1,67
 1744 -22 1744 -22 1727 -11 c 128,-1,68
 1710 0 1710 0 1692 0 c 2,69,-1
 735 0 l 1,70,71
 735 44 735 44 736 52 c 1,72,73
 841 75 841 75 880 110 c 0,74,75
 917 144 917 144 917 193 c 1,76,-1
 912 241 l 1,77,-1
 845 609 l 1,78,-1
 461 609 l 1,79,-1
 323 358 l 2,80,81
 318 349 318 349 298 314.5 c 128,-1,82
 278 280 278 280 270 265 c 0,83,84
 245 218 245 218 245 187 c 128,-1,85
 245 156 245 156 254 139 c 128,-1,86
 263 122 263 122 275.5 111.5 c 128,-1,87
 288 101 288 101 309.5 92.5 c 128,-1,88
 331 84 331 84 349 79 c 128,-1,89
 367 74 367 74 394 67 c 128,-1,90
 421 60 421 60 438 55 c 1,91,-1
 435 25 l 1,92,-1
 433 0 l 1,93,-1
 -47 0 l 1,94,-1
 -48 25 l 2,95,96
 -48 34 -48 34 -46 52 c 1,97,98
 -35 58 -35 58 -2.5 72.5 c 128,-1,99
 30 87 30 87 50 98 c 0,100,101
 110 130 110 130 144 192 c 0,102,103
 552 935 552 935 594 1012.5 c 128,-1,104
 636 1090 636 1090 636 1144 c 128,-1,105
 636 1198 636 1198 601 1224 c 1,3,4
EndSplineSet
EndChar

StartChar: Eth
Encoding: 208 208 140
Width: 1595
GlyphClass: 2
Flags: W
LayerCount: 2
Fore
SplineSet
665 1225 m 2,0,-1
 497 1225 l 1,1,-1
 497 271 l 2,2,3
 497 86 497 86 645 80 c 0,4,5
 701 77 701 77 780.5 77 c 128,-1,6
 860 77 860 77 944.5 107.5 c 128,-1,7
 1029 138 1029 138 1087 190 c 128,-1,8
 1145 242 1145 242 1186 311 c 0,9,10
 1264 445 1264 445 1264 593 c 128,-1,11
 1264 741 1264 741 1228.5 851 c 128,-1,12
 1193 961 1193 961 1122 1046 c 0,13,14
 972 1225 972 1225 665 1225 c 2,0,-1
282 219 m 2,15,-1
 282 1010 l 2,16,17
 282 1139 282 1139 252 1172 c 0,18,19
 226 1200 226 1200 182.5 1214 c 128,-1,20
 139 1228 139 1228 106 1237 c 128,-1,21
 73 1246 73 1246 58 1251 c 1,22,23
 58 1264 58 1264 60 1302 c 1,24,-1
 652 1302 l 2,25,26
 908 1302 908 1302 1065 1255 c 128,-1,27
 1222 1208 1222 1208 1334 1087 c 1,28,29
 1502 911 1502 911 1502 658 c 0,30,31
 1502 447 1502 447 1384 281 c 0,32,33
 1258 103 1258 103 1037 36 c 0,34,35
 918 0 918 0 779 0 c 2,36,-1
 60 0 l 1,37,38
 58 36 58 36 58 52 c 1,39,40
 74 57 74 57 116.5 66.5 c 128,-1,41
 159 76 159 76 180.5 84 c 128,-1,42
 202 92 202 92 230 108 c 1,43,44
 282 140 282 140 282 219 c 2,15,-1
691 580 m 1,45,-1
 89 580 l 1,46,-1
 89 708 l 1,47,-1
 691 708 l 1,48,-1
 691 580 l 1,45,-1
EndSplineSet
EndChar

StartChar: multiply
Encoding: 215 215 147
Width: 1098
GlyphClass: 2
Flags: W
LayerCount: 2
Fore
SplineSet
141 932 m 1,0,1
 177 982 177 982 234 1023 c 1,2,3
 304 964 304 964 417 850 c 128,-1,4
 530 736 530 736 549 717 c 1,5,6
 562 730 562 730 609.5 778.5 c 128,-1,7
 657 827 657 827 680 849.5 c 128,-1,8
 703 872 703 872 741 910 c 0,9,10
 808 976 808 976 864 1023 c 1,11,12
 917 984 917 984 957 932 c 1,13,14
 938 908 938 908 883 853 c 2,15,-1
 648 618 l 1,16,17
 670 596 670 596 726.5 540 c 128,-1,18
 783 484 783 484 814 452 c 0,19,20
 902 365 902 365 956 303 c 1,21,22
 917 250 917 250 864 211 c 1,23,24
 829 238 829 238 784 284 c 2,25,-1
 549 519 l 1,26,-1
 315 285 l 2,27,28
 269 239 269 239 235 212 c 1,29,30
 182 251 182 251 143 304 c 1,31,32
 170 338 170 338 215 383 c 2,33,-1
 450 618 l 1,34,-1
 215 853 l 2,35,36
 160 908 160 908 141 932 c 1,0,1
EndSplineSet
EndChar

StartChar: Oslash
Encoding: 216 216 148
Width: 1579
GlyphClass: 2
Flags: W
LayerCount: 2
Fore
SplineSet
1117 1046 m 1,0,1
 820 628 820 628 558 171 c 1,2,3
 669 51 669 51 839.5 51 c 128,-1,4
 1010 51 1010 51 1128.5 194.5 c 128,-1,5
 1247 338 1247 338 1247 598.5 c 128,-1,6
 1247 859 1247 859 1117 1046 c 1,0,1
479 247 m 1,7,-1
 1045 1127 l 1,8,9
 925 1250 925 1250 751.5 1250 c 128,-1,10
 578 1250 578 1250 456 1108 c 128,-1,11
 334 966 334 966 334 723 c 0,12,13
 334 582 334 582 373 456.5 c 128,-1,14
 412 331 412 331 479 247 c 1,7,-1
1323 1356 m 1,15,-1
 1216 1189 l 1,16,17
 1340 1096 1340 1096 1410 957 c 128,-1,18
 1480 818 1480 818 1480 633.5 c 128,-1,19
 1480 449 1480 449 1382.5 293.5 c 128,-1,20
 1285 138 1285 138 1124.5 56 c 128,-1,21
 964 -26 964 -26 782 -26 c 128,-1,22
 600 -26 600 -26 478 57 c 1,23,24
 474 50 474 50 461 25.5 c 128,-1,25
 448 1 448 1 443.5 -6.5 c 128,-1,26
 439 -14 439 -14 427.5 -34 c 128,-1,27
 416 -54 416 -54 410.5 -61.5 c 128,-1,28
 405 -69 405 -69 393.5 -83.5 c 128,-1,29
 382 -98 382 -98 374 -106 c 0,30,31
 351 -126 351 -126 330 -136 c 1,32,33
 290 -118 290 -118 271 -71 c 1,34,35
 294 -34 294 -34 315 -5 c 1,36,-1
 382 105 l 1,37,38
 101 293 101 293 101 641 c 0,39,40
 101 794 101 794 156 924 c 128,-1,41
 211 1054 211 1054 305.5 1141.5 c 128,-1,42
 400 1229 400 1229 526.5 1278 c 128,-1,43
 653 1327 653 1327 815.5 1327 c 128,-1,44
 978 1327 978 1327 1122 1241 c 1,45,46
 1133 1261 1133 1261 1150 1295.5 c 128,-1,47
 1167 1330 1167 1330 1176 1347 c 0,48,49
 1202 1392 1202 1392 1256 1413 c 1,50,51
 1298 1401 1298 1401 1323 1356 c 1,15,-1
EndSplineSet
EndChar

StartChar: Thorn
Encoding: 222 222 154
Width: 1294
GlyphClass: 2
Flags: W
LayerCount: 2
Fore
SplineSet
489 957 m 1,0,-1
 489 380 l 1,1,2
 587 375 587 375 673 375 c 128,-1,3
 759 375 759 375 833.5 402 c 128,-1,4
 908 429 908 429 957 493.5 c 128,-1,5
 1006 558 1006 558 1006 654 c 0,6,7
 1006 798 1006 798 920 865 c 0,8,9
 860 912 860 912 806.5 925.5 c 128,-1,10
 753 939 753 939 721.5 944.5 c 128,-1,11
 690 950 690 950 642 953 c 0,12,13
 579 957 579 957 489 957 c 1,0,-1
273 214 m 2,14,-1
 273 1048 l 2,15,16
 273 1164 273 1164 236 1190 c 0,17,18
 216 1205 216 1205 194 1210 c 0,19,20
 109 1230 109 1230 68 1251 c 1,21,-1
 68 1302 l 1,22,-1
 701 1302 l 1,23,-1
 703 1250 l 1,24,25
 686 1244 686 1244 645 1232 c 128,-1,26
 604 1220 604 1220 584 1211 c 128,-1,27
 564 1202 564 1202 538 1184 c 0,28,29
 489 1152 489 1152 489 1072 c 2,30,-1
 489 1033 l 1,31,-1
 568 1033 l 2,32,33
 758 1033 758 1033 833.5 1021 c 128,-1,34
 909 1009 909 1009 961 995.5 c 128,-1,35
 1013 982 1013 982 1051 963.5 c 128,-1,36
 1089 945 1089 945 1126.5 917 c 128,-1,37
 1164 889 1164 889 1188 854 c 0,38,39
 1240 777 1240 777 1240 688.5 c 128,-1,40
 1240 600 1240 600 1218 543 c 128,-1,41
 1196 486 1196 486 1156.5 446.5 c 128,-1,42
 1117 407 1117 407 1067 378 c 128,-1,43
 1017 349 1017 349 958 332 c 0,44,45
 840 300 840 300 725.5 300 c 128,-1,46
 611 300 611 300 489 308 c 1,47,48
 489 156 489 156 524 122 c 0,49,50
 559 89 559 89 603.5 78 c 128,-1,51
 648 67 648 67 678 60.5 c 128,-1,52
 708 54 708 54 719 51 c 1,53,-1
 717 0 l 1,54,-1
 68 0 l 1,55,-1
 66 52 l 1,56,57
 83 58 83 58 112.5 66.5 c 128,-1,58
 142 75 142 75 160.5 80.5 c 128,-1,59
 179 86 179 86 203 97.5 c 128,-1,60
 227 109 227 109 240 123 c 0,61,62
 273 157 273 157 273 214 c 2,14,-1
EndSplineSet
EndChar

StartChar: germandbls
Encoding: 223 223 155
Width: 1200
GlyphClass: 2
Flags: W
LayerCount: 2
Fore
SplineSet
197 252 m 2,0,-1
 197 795 l 1,1,-1
 107 795 l 1,2,3
 107 799 107 799 106 809.5 c 128,-1,4
 105 820 105 820 105.5 825 c 128,-1,5
 106 830 106 830 108 837 c 0,6,7
 113 850 113 850 134 850 c 2,8,-1
 144 850 l 2,9,10
 173 850 173 850 185 862 c 1,11,12
 198 895 198 895 212 970 c 0,13,14
 244 1142 244 1142 330 1221 c 0,15,16
 440 1322 440 1322 617 1322 c 128,-1,17
 794 1322 794 1322 907.5 1240.5 c 128,-1,18
 1021 1159 1021 1159 1021 1037 c 128,-1,19
 1021 915 1021 915 958 848.5 c 128,-1,20
 895 782 895 782 764 744 c 1,21,-1
 764 741 l 1,22,23
 928 721 928 721 1025.5 613.5 c 128,-1,24
 1123 506 1123 506 1123 365 c 0,25,26
 1123 223 1123 223 1033 106 c 0,27,28
 990 51 990 51 919.5 17 c 128,-1,29
 849 -17 849 -17 760 -17 c 128,-1,30
 671 -17 671 -17 615 26 c 128,-1,31
 559 69 559 69 559 133 c 0,32,33
 559 168 559 168 583 191.5 c 128,-1,34
 607 215 607 215 639 215 c 128,-1,35
 671 215 671 215 686 201.5 c 128,-1,36
 701 188 701 188 704.5 168 c 128,-1,37
 708 148 708 148 709 128 c 0,38,39
 711 78 711 78 745 73 c 1,40,41
 757 59 757 59 792 59 c 0,42,43
 849 59 849 59 892.5 131.5 c 128,-1,44
 936 204 936 204 936 328 c 128,-1,45
 936 452 936 452 866 547.5 c 128,-1,46
 796 643 796 643 663 674 c 1,47,48
 631 685 631 685 584 707 c 1,49,50
 584 741 584 741 597 769 c 1,51,52
 840 793 840 793 840 1020 c 0,53,54
 840 1125 840 1125 771 1185.5 c 128,-1,55
 702 1246 702 1246 603 1246 c 128,-1,56
 504 1246 504 1246 448.5 1177 c 128,-1,57
 393 1108 393 1108 386 978 c 0,58,59
 383 923 383 923 383 866 c 2,60,-1
 383 249 l 2,61,62
 383 153 383 153 407 116 c 1,63,64
 413 78 413 78 451 73 c 0,65,66
 491 68 491 68 502 50 c 1,67,68
 502 17 502 17 500 0 c 1,69,-1
 41 0 l 1,70,71
 39 18 39 18 39 52 c 1,72,73
 57 67 57 67 101 79 c 1,74,75
 178 102 178 102 188 156 c 0,76,77
 197 201 197 201 197 252 c 2,0,-1
EndSplineSet
EndChar

StartChar: ae
Encoding: 230 230 162
Width: 1447
GlyphClass: 2
Flags: W
LayerCount: 2
Fore
SplineSet
805 544 m 1,0,-1
 1114 583 l 1,1,2
 1159 592 1159 592 1197 614 c 1,3,4
 1182 734 1182 734 1139 793 c 128,-1,5
 1096 852 1096 852 1003.5 852 c 128,-1,6
 911 852 911 852 859 769 c 128,-1,7
 807 686 807 686 805 544 c 1,0,-1
657 185 m 1,8,9
 619 283 619 283 617 446 c 1,10,11
 314 383 314 383 274 282 c 0,12,13
 262 252 262 252 262 202 c 128,-1,14
 262 152 262 152 300 122 c 128,-1,15
 338 92 338 92 399 92 c 128,-1,16
 460 92 460 92 533 119.5 c 128,-1,17
 606 147 606 147 657 185 c 1,8,9
1382 554 m 1,18,-1
 804 486 l 1,19,-1
 804 462 l 2,20,21
 804 283 804 283 863 205.5 c 128,-1,22
 922 128 922 128 1083 128 c 0,23,24
 1169 128 1169 128 1227 147 c 128,-1,25
 1285 166 1285 166 1345 208 c 1,26,27
 1364 194 1364 194 1374 179 c 1,28,29
 1348 114 1348 114 1290 68 c 0,30,31
 1182 -20 1182 -20 1021 -20 c 0,32,33
 820 -20 820 -20 690 132 c 1,34,35
 607 60 607 60 501 20 c 128,-1,36
 395 -20 395 -20 296 -20 c 128,-1,37
 197 -20 197 -20 133 30.5 c 128,-1,38
 69 81 69 81 69 172 c 0,39,40
 69 278 69 278 134 335 c 0,41,42
 201 394 201 394 275.5 416.5 c 128,-1,43
 350 439 350 439 394 449.5 c 128,-1,44
 438 460 438 460 504.5 475 c 128,-1,45
 571 490 571 490 613 501 c 1,46,-1
 613 622 l 2,47,48
 613 852 613 852 448 852 c 0,49,50
 372 852 372 852 309 814 c 0,51,52
 272 791 272 791 272 765.5 c 128,-1,53
 272 740 272 740 289.5 710.5 c 128,-1,54
 307 681 307 681 307 664.5 c 128,-1,55
 307 648 307 648 266.5 613 c 128,-1,56
 226 578 226 578 191.5 578 c 128,-1,57
 157 578 157 578 130 623.5 c 128,-1,58
 103 669 103 669 103 713.5 c 128,-1,59
 103 758 103 758 132 796 c 128,-1,60
 161 834 161 834 204 857.5 c 128,-1,61
 247 881 247 881 301 896 c 0,62,63
 397 924 397 924 486 924 c 0,64,65
 692 924 692 924 759 791 c 1,66,67
 855 926 855 926 1049 926 c 0,68,69
 1201 926 1201 926 1291.5 819.5 c 128,-1,70
 1382 713 1382 713 1382 554 c 1,18,-1
EndSplineSet
EndChar

StartChar: eth
Encoding: 240 240 172
Width: 1074
GlyphClass: 2
Flags: W
LayerCount: 2
Fore
SplineSet
612 1104 m 1,0,1
 576 1090 576 1090 395 1004 c 1,2,3
 366 1021 366 1021 356 1055 c 1,4,5
 390 1093 390 1093 467.5 1125 c 128,-1,6
 545 1157 545 1157 564 1167 c 1,7,8
 492 1250 492 1250 352 1347 c 1,9,-1
 399 1380 l 1,10,11
 577 1310 577 1310 676 1218 c 1,12,-1
 846 1306 l 1,13,14
 923 1306 923 1306 929 1262 c 1,15,16
 907 1235 907 1235 827.5 1200.5 c 128,-1,17
 748 1166 748 1166 734 1159 c 1,18,19
 858 1033 858 1033 924 861 c 128,-1,20
 990 689 990 689 990 507 c 0,21,22
 990 296 990 296 868 140 c 0,23,24
 810 66 810 66 721 22 c 128,-1,25
 632 -22 632 -22 525 -22 c 0,26,27
 333 -22 333 -22 199 114 c 128,-1,28
 65 250 65 250 65 443 c 0,29,30
 65 573 65 573 117 682 c 128,-1,31
 169 791 169 791 270 858.5 c 128,-1,32
 371 926 371 926 499 926 c 128,-1,33
 627 926 627 926 731 837 c 1,34,-1
 734 839 l 1,35,36
 706 982 706 982 612 1104 c 1,0,1
271.5 591 m 128,-1,38
 265 543 265 543 265 485 c 128,-1,39
 265 427 265 427 280 356.5 c 128,-1,40
 295 286 295 286 324.5 217 c 128,-1,41
 354 148 354 148 408 102.5 c 128,-1,42
 462 57 462 57 532 57 c 128,-1,43
 602 57 602 57 655.5 91 c 128,-1,44
 709 125 709 125 738 181 c 0,45,46
 793 290 793 290 793 434 c 128,-1,47
 793 578 793 578 772.5 648 c 128,-1,48
 752 718 752 718 674 783.5 c 128,-1,49
 596 849 596 849 527 849 c 128,-1,50
 458 849 458 849 413 827 c 128,-1,51
 368 805 368 805 341 770 c 128,-1,52
 314 735 314 735 296 687 c 128,-1,37
 278 639 278 639 271.5 591 c 128,-1,38
EndSplineSet
EndChar

StartChar: divide
Encoding: 247 247 179
Width: 1262
GlyphClass: 2
Flags: W
LayerCount: 2
Fore
SplineSet
630 888 m 128,-1,1
 580 888 580 888 545 922.5 c 128,-1,2
 510 957 510 957 510 1005.5 c 128,-1,3
 510 1054 510 1054 545.5 1090 c 128,-1,4
 581 1126 581 1126 630.5 1126 c 128,-1,5
 680 1126 680 1126 716 1090 c 128,-1,6
 752 1054 752 1054 752 1006.5 c 128,-1,7
 752 959 752 959 716 923.5 c 128,-1,0
 680 888 680 888 630 888 c 128,-1,1
630 125 m 128,-1,9
 580 125 580 125 545 159.5 c 128,-1,10
 510 194 510 194 510 242.5 c 128,-1,11
 510 291 510 291 545.5 326.5 c 128,-1,12
 581 362 581 362 630.5 362 c 128,-1,13
 680 362 680 362 716 326.5 c 128,-1,14
 752 291 752 291 752 243 c 128,-1,15
 752 195 752 195 716 160 c 128,-1,8
 680 125 680 125 630 125 c 128,-1,9
1123 551 m 1,16,-1
 243 548 l 2,17,18
 143 548 143 548 106 579 c 1,19,20
 106 622 106 622 121 656 c 128,-1,21
 136 690 136 690 138 699 c 1,22,-1
 1018 700 l 2,23,24
 1083 700 1083 700 1155 669 c 1,25,26
 1155 583 1155 583 1123 551 c 1,16,-1
EndSplineSet
EndChar

StartChar: oslash
Encoding: 248 248 180
Width: 1111
GlyphClass: 2
Flags: W
LayerCount: 2
Fore
SplineSet
762 698 m 1,0,1
 592 458 592 458 417 144 c 1,2,3
 487 62 487 62 570 62 c 0,4,5
 697 62 697 62 766 151.5 c 128,-1,6
 835 241 835 241 835 372 c 0,7,8
 835 562 835 562 762 698 c 1,0,1
354 219 m 1,9,-1
 708 772 l 1,10,11
 643 860 643 860 535 860 c 0,12,13
 403 860 403 860 339 750 c 0,14,15
 282 653 282 653 282 499 c 128,-1,16
 282 345 282 345 354 219 c 1,9,-1
949 970 m 1,17,-1
 852 821 l 1,18,19
 938 759 938 759 983.5 662.5 c 128,-1,20
 1029 566 1029 566 1029 456 c 0,21,22
 1029 252 1029 252 896 116 c 128,-1,23
 763 -20 763 -20 559 -20 c 0,24,25
 446 -20 446 -20 348 42 c 1,26,27
 344 34 344 34 333 8 c 128,-1,28
 322 -18 322 -18 315 -31 c 128,-1,29
 308 -44 308 -44 296 -64 c 1,30,31
 272 -100 272 -100 236 -114 c 1,32,33
 201 -103 201 -103 184 -35 c 1,34,-1
 262 91 l 1,35,36
 82 234 82 234 82 446 c 128,-1,37
 82 658 82 658 216.5 792 c 128,-1,38
 351 926 351 926 549 926 c 0,39,40
 672 926 672 926 776 867 c 1,41,42
 790 882 790 882 821 949 c 128,-1,43
 852 1016 852 1016 875 1026 c 1,44,45
 934 1011 934 1011 949 970 c 1,17,-1
EndSplineSet
EndChar

StartChar: thorn
Encoding: 254 254 186
Width: 1134
GlyphClass: 2
Flags: W
LayerCount: 2
Fore
SplineSet
352 677 m 1,0,-1
 352 339 l 2,1,2
 352 213 352 213 398 144 c 0,3,4
 450 66 450 66 605 66 c 0,5,6
 727 66 727 66 794.5 161.5 c 128,-1,7
 862 257 862 257 862 423 c 0,8,9
 862 697 862 697 691 775 c 0,10,11
 645 796 645 796 594 796 c 0,12,13
 475 796 475 796 352 677 c 1,0,-1
352 35 m 1,14,-1
 352 -144 l 2,15,16
 352 -205 352 -205 361 -239 c 128,-1,17
 370 -273 370 -273 401.5 -288.5 c 128,-1,18
 433 -304 433 -304 477.5 -312 c 128,-1,19
 522 -320 522 -320 536 -328 c 1,20,21
 536 -342 536 -342 534 -378 c 1,22,-1
 8 -378 l 1,23,24
 5 -351 5 -351 5 -328 c 1,25,26
 15 -320 15 -320 49 -313 c 0,27,28
 134 -295 134 -295 144 -255 c 1,29,30
 166 -206 166 -206 166 -146 c 2,31,-1
 166 1165 l 1,32,33
 150 1190 150 1190 80 1217.5 c 128,-1,34
 10 1245 10 1245 -1 1256 c 1,35,36
 -1 1279 -1 1279 1 1290 c 1,37,38
 187 1342 187 1342 280 1369 c 1,39,-1
 352 1376 l 1,40,-1
 352 764 l 1,41,42
 500 926 500 926 664 926 c 128,-1,43
 828 926 828 926 938 800 c 128,-1,44
 1048 674 1048 674 1048 481 c 0,45,46
 1048 248 1048 248 912 112 c 0,47,48
 782 -18 782 -18 592 -18 c 0,49,50
 466 -18 466 -18 352 35 c 1,14,-1
EndSplineSet
EndChar

StartChar: dcroat
Encoding: 273 273 203
Width: 1187
GlyphClass: 2
Flags: W
LayerCount: 2
Fore
SplineSet
1121 981 m 1,0,-1
 519 981 l 1,1,-1
 519 1109 l 1,2,-1
 1121 1109 l 1,3,-1
 1121 981 l 1,0,-1
799 222 m 1,4,-1
 799 510 l 2,5,6
 799 607 799 607 782 666.5 c 128,-1,7
 765 726 765 726 713 772 c 0,8,9
 629 846 629 846 522 846 c 128,-1,10
 415 846 415 846 340.5 737 c 128,-1,11
 266 628 266 628 266 477 c 0,12,13
 266 267 266 267 398 157 c 0,14,15
 467 99 467 99 562 99 c 0,16,17
 707 99 707 99 799 222 c 1,4,-1
544 923 m 0,18,19
 643 923 643 923 799 849 c 1,20,-1
 799 1175 l 1,21,22
 774 1214 774 1214 665 1253 c 2,23,-1
 629 1266 l 1,24,-1
 631 1301 l 1,25,-1
 913 1369 l 1,26,-1
 985 1376 l 1,27,-1
 985 199 l 2,28,29
 985 135 985 135 1040 112 c 0,30,31
 1101 87 1101 87 1147 87 c 1,32,-1
 1147 32 l 1,33,-1
 880 -12 l 1,34,-1
 813 -12 l 1,35,-1
 804 143 l 1,36,37
 662 -20 662 -20 488 -20 c 128,-1,38
 314 -20 314 -20 197 101 c 128,-1,39
 80 222 80 222 80 429.5 c 128,-1,40
 80 637 80 637 212 780 c 128,-1,41
 344 923 344 923 544 923 c 0,18,19
EndSplineSet
EndChar

StartChar: gcommaaccent
Encoding: 291 291 215
Width: 965
GlyphClass: 2
Flags: W
LayerCount: 2
Fore
SplineSet
560 1 m 2,0,-1
 481 2 l 2,1,2
 409 3 409 3 303 15 c 1,3,4
 206 -68 206 -68 206 -137 c 0,5,6
 206 -174 206 -174 234.5 -201.5 c 128,-1,7
 263 -229 263 -229 307 -242 c 0,8,9
 390 -268 390 -268 455.5 -268 c 128,-1,10
 521 -268 521 -268 577.5 -259 c 128,-1,11
 634 -250 634 -250 685.5 -232.5 c 128,-1,12
 737 -215 737 -215 770 -185 c 128,-1,13
 803 -155 803 -155 803 -118 c 0,14,15
 803 -3 803 -3 560 1 c 2,0,-1
334 791 m 128,-1,17
 288 730 288 730 288 625 c 128,-1,18
 288 520 288 520 335.5 447 c 128,-1,19
 383 374 383 374 470 374 c 0,20,21
 637 374 637 374 637 597 c 0,22,23
 637 717 637 717 584 784.5 c 128,-1,24
 531 852 531 852 455.5 852 c 128,-1,16
 380 852 380 852 334 791 c 128,-1,17
229 24 m 1,25,26
 110 73 110 73 110 163 c 0,27,28
 110 216 110 216 153 261 c 128,-1,29
 196 306 196 306 275 352 c 1,30,31
 110 445 110 445 110 613 c 0,32,33
 110 750 110 750 208 838 c 128,-1,34
 306 926 306 926 441 926 c 128,-1,35
 576 926 576 926 677 873 c 1,36,37
 803 892 803 892 894 892 c 1,38,-1
 941 888 l 1,39,-1
 926 761 l 1,40,41
 878 775 878 775 770 796 c 2,42,-1
 733 803 l 1,43,44
 763 770 763 770 787.5 717.5 c 128,-1,45
 812 665 812 665 812 626 c 0,46,47
 812 525 812 525 758 451 c 0,48,49
 655 308 655 308 458 308 c 0,50,51
 408 308 408 308 330 326 c 1,52,53
 323 320 323 320 306.5 310 c 128,-1,54
 290 300 290 300 282 294 c 0,55,56
 259 275 259 275 259 251.5 c 128,-1,57
 259 228 259 228 267 218 c 128,-1,58
 275 208 275 208 294 201.5 c 128,-1,59
 313 195 313 195 335 191.5 c 128,-1,60
 357 188 357 188 394.5 185.5 c 128,-1,61
 432 183 432 183 466 182 c 0,62,63
 552 178 552 178 667.5 170 c 128,-1,64
 783 162 783 162 861 105 c 128,-1,65
 939 48 939 48 939 -47 c 128,-1,66
 939 -142 939 -142 870 -211 c 0,67,68
 732 -351 732 -351 442 -351 c 0,69,70
 274 -351 274 -351 175 -300 c 128,-1,71
 76 -249 76 -249 76 -184 c 0,72,73
 76 -89 76 -89 229 24 c 1,25,26
617 1595 m 1,74,75
 645 1572 645 1572 653 1539 c 1,76,77
 557 1488 557 1488 534 1470.5 c 128,-1,78
 511 1453 511 1453 500 1438 c 0,79,80
 474 1402 474 1402 474 1356 c 1,81,82
 505 1312 505 1312 560 1303 c 0,83,84
 665 1284 665 1284 665 1190 c 0,85,86
 665 1134 665 1134 626.5 1097 c 128,-1,87
 588 1060 588 1060 516.5 1060 c 128,-1,88
 445 1060 445 1060 395 1117.5 c 128,-1,89
 345 1175 345 1175 345 1277.5 c 128,-1,90
 345 1380 345 1380 419 1476.5 c 128,-1,91
 493 1573 493 1573 617 1595 c 1,74,75
EndSplineSet
EndChar

StartChar: Hbar
Encoding: 294 294 216
Width: 1624
GlyphClass: 2
Flags: W
LayerCount: 2
Fore
SplineSet
931 18 m 0,0,1
 931 55 931 55 1036 55 c 0,2,3
 1075 55 1075 55 1108 73 c 128,-1,4
 1141 91 1141 91 1141 130 c 2,5,-1
 1141 576 l 1,6,-1
 484 576 l 1,7,-1
 484 124 l 2,8,9
 484 89 484 89 519 72 c 128,-1,10
 554 55 554 55 596 53 c 0,11,12
 708 48 708 48 708 17 c 0,13,14
 708 12 708 12 704 0 c 1,15,-1
 69 0 l 1,16,17
 64 12 64 12 64 18 c 0,18,19
 64 48 64 48 136 53 c 0,20,21
 222 59 222 59 245.5 78.5 c 128,-1,22
 269 98 269 98 269 130 c 2,23,-1
 269 1030 l 2,24,25
 269 1064 269 1064 237 1084.5 c 128,-1,26
 205 1105 205 1105 167 1110 c 0,27,28
 65 1125 65 1125 65 1159 c 0,29,30
 65 1163 65 1163 69 1176 c 1,31,-1
 700 1176 l 1,32,33
 705 1159 705 1159 705 1158 c 0,34,35
 705 1126 705 1126 594 1113 c 0,36,37
 553 1108 553 1108 518.5 1087.5 c 128,-1,38
 484 1067 484 1067 484 1030 c 2,39,-1
 484 925 l 1,40,-1
 1141 925 l 1,41,-1
 1141 1030 l 2,42,43
 1141 1065 1141 1065 1108.5 1085.5 c 128,-1,44
 1076 1106 1076 1106 1036 1112 c 0,45,46
 932 1126 932 1126 932 1159 c 0,47,48
 932 1163 932 1163 936 1176 c 1,49,-1
 1555 1176 l 1,50,51
 1560 1159 1560 1159 1560 1158 c 0,52,53
 1560 1128 1560 1128 1458 1112 c 0,54,55
 1420 1106 1420 1106 1388 1085 c 128,-1,56
 1356 1064 1356 1064 1356 1030 c 2,57,-1
 1356 124 l 2,58,59
 1356 89 1356 89 1388.5 72 c 128,-1,60
 1421 55 1421 55 1460 53 c 0,61,62
 1563 48 1563 48 1563 17 c 0,63,64
 1563 12 1563 12 1559 0 c 1,65,-1
 936 0 l 1,66,67
 931 12 931 12 931 18 c 0,0,1
484 636 m 1,68,-1
 1141 636 l 1,69,-1
 1141 807 l 1,70,-1
 484 807 l 1,71,-1
 484 636 l 1,68,-1
EndSplineSet
EndChar

StartChar: hbar
Encoding: 295 295 217
Width: 1240
GlyphClass: 2
Flags: W
LayerCount: 2
Fore
SplineSet
603 960 m 1,0,-1
 1 960 l 1,1,-1
 1 1088 l 1,2,-1
 603 1088 l 1,3,-1
 603 960 l 1,0,-1
1012 568 m 2,4,-1
 1012 221 l 2,5,6
 1012 170 1012 170 1021 137 c 128,-1,7
 1030 104 1030 104 1056.5 88.5 c 128,-1,8
 1083 73 1083 73 1118.5 65 c 128,-1,9
 1154 57 1154 57 1164 50 c 1,10,-1
 1162 0 l 1,11,-1
 670 0 l 1,12,13
 668 34 668 34 668 50 c 1,14,15
 677 54 677 54 718 65 c 0,16,17
 807 88 807 88 816.5 133.5 c 128,-1,18
 826 179 826 179 826 214 c 2,19,-1
 826 577 l 2,20,21
 826 687 826 687 779.5 752.5 c 128,-1,22
 733 818 733 818 634 818 c 0,23,24
 503 818 503 818 375 684 c 1,25,-1
 375 233 l 2,26,27
 375 115 375 115 418 91 c 0,28,29
 447 75 447 75 492 65.5 c 128,-1,30
 537 56 537 56 549 50 c 1,31,-1
 548 0 l 1,32,-1
 15 0 l 1,33,34
 13 34 13 34 13 50 c 1,35,36
 22 59 22 59 56 64 c 0,37,38
 145 77 145 77 154 109 c 1,39,40
 188 150 188 150 188 233 c 2,41,-1
 188 1164 l 1,42,43
 175 1184 175 1184 132 1207.5 c 128,-1,44
 89 1231 89 1231 52 1244 c 1,45,-1
 16 1258 l 1,46,-1
 17 1293 l 1,47,-1
 303 1369 l 1,48,-1
 375 1376 l 1,49,-1
 375 768 l 1,50,51
 455 847 455 847 530 886.5 c 128,-1,52
 605 926 605 926 705 926 c 0,53,54
 844 926 844 926 928 837.5 c 128,-1,55
 1012 749 1012 749 1012 568 c 2,4,-1
EndSplineSet
EndChar

StartChar: dotlessi
Encoding: 305 305 227
Width: 589
GlyphClass: 2
Flags: W
LayerCount: 2
Fore
SplineSet
219 181 m 2,0,-1
 219 707 l 1,1,2
 202 736 202 736 140.5 756.5 c 128,-1,3
 79 777 79 777 67 791 c 1,4,5
 67 800 67 800 69 826 c 1,6,-1
 346 906 l 1,7,-1
 405 912 l 1,8,-1
 405 220 l 2,9,10
 405 169 405 169 412.5 137 c 128,-1,11
 420 105 420 105 449 89 c 128,-1,12
 478 73 478 73 514 65 c 128,-1,13
 550 57 550 57 559 50 c 1,14,15
 559 34 559 34 557 0 c 1,16,-1
 49 0 l 1,17,18
 47 18 47 18 47 50 c 1,19,20
 58 56 58 56 91.5 67 c 128,-1,21
 125 78 125 78 150.5 88 c 128,-1,22
 176 98 176 98 197.5 122.5 c 128,-1,23
 219 147 219 147 219 181 c 2,0,-1
EndSplineSet
EndChar

StartChar: kgreenlandic
Encoding: 312 312 234
Width: 1136
GlyphClass: 2
Flags: W
LayerCount: 2
Fore
SplineSet
764.5 830 m 128,-1,1
 700 830 700 830 700 855 c 0,2,3
 700 861 700 861 703 868 c 1,4,-1
 1097 868 l 1,5,-1
 1100 855 l 1,6,7
 1100 834 1100 834 1024 817.5 c 128,-1,8
 948 801 948 801 915 774 c 2,9,-1
 619 522 l 1,10,-1
 953 94 l 2,11,12
 964 81 964 81 1009 66 c 128,-1,13
 1054 51 1054 51 1091.5 38 c 128,-1,14
 1129 25 1129 25 1129 14.5 c 128,-1,15
 1129 4 1129 4 1126 0 c 1,16,-1
 631 0 l 1,17,18
 626 10 626 10 626 12 c 0,19,20
 626 27 626 27 655 32 c 128,-1,21
 684 37 684 37 713.5 45 c 128,-1,22
 743 53 743 53 743 74 c 0,23,24
 743 83 743 83 730 97 c 1,25,-1
 480 420 l 1,26,-1
 415 420 l 1,27,-1
 415 116 l 2,28,29
 415 88 415 88 438.5 71.5 c 128,-1,30
 462 55 462 55 491 50 c 0,31,32
 567 39 567 39 567 14 c 0,33,34
 567 9 567 9 563 0 c 1,35,-1
 39 0 l 1,36,37
 36 7 36 7 36 12 c 0,38,39
 36 36 36 36 122.5 53.5 c 128,-1,40
 209 71 209 71 209 120 c 2,41,-1
 209 748 l 2,42,43
 209 797 209 797 122.5 814.5 c 128,-1,44
 36 832 36 832 36 856 c 0,45,46
 36 861 36 861 39 868 c 1,47,-1
 563 868 l 1,48,49
 567 859 567 859 567 854 c 0,50,51
 567 827 567 827 491 817 c 0,52,53
 462 813 462 813 438.5 796.5 c 128,-1,54
 415 780 415 780 415 752 c 2,55,-1
 415 475 l 1,56,-1
 477 475 l 1,57,-1
 827 778 l 1,58,59
 829 783 829 783 829 789 c 0,60,0
 829 830 829 830 764.5 830 c 128,-1,1
EndSplineSet
EndChar

StartChar: Ldot
Encoding: 319 319 241
Width: 1121
GlyphClass: 2
Flags: W
LayerCount: 2
Fore
SplineSet
663 504.5 m 128,-1,1
 618 548 618 548 618 607.5 c 128,-1,2
 618 667 618 667 663 712 c 128,-1,3
 708 757 708 757 771 757 c 128,-1,4
 834 757 834 757 879 712 c 128,-1,5
 924 667 924 667 924 609.5 c 128,-1,6
 924 552 924 552 879 506.5 c 128,-1,7
 834 461 834 461 771 461 c 128,-1,0
 708 461 708 461 663 504.5 c 128,-1,1
276 240 m 2,8,-1
 276 1034 l 2,9,10
 276 1153 276 1153 246 1186 c 0,11,12
 223 1210 223 1210 179.5 1220 c 128,-1,13
 136 1230 136 1230 102.5 1237 c 128,-1,14
 69 1244 69 1244 46 1251 c 1,15,-1
 48 1302 l 1,16,-1
 723 1302 l 1,17,18
 724 1267 724 1267 724 1250 c 1,19,20
 703 1241 703 1241 643 1230.5 c 128,-1,21
 583 1220 583 1220 546 1202 c 128,-1,22
 509 1184 509 1184 500.5 1145.5 c 128,-1,23
 492 1107 492 1107 492 1040 c 2,24,-1
 492 312 l 2,25,26
 492 158 492 158 541 110 c 0,27,28
 562 90 562 90 601.5 83 c 128,-1,29
 641 76 641 76 709 76 c 2,30,-1
 857 77 l 2,31,32
 975 78 975 78 1038 105 c 128,-1,33
 1101 132 1101 132 1148 217 c 1,34,35
 1194 315 1194 315 1222 344 c 1,36,-1
 1282 342 l 1,37,-1
 1219 -11 l 1,38,39
 1095 0 1095 0 1000 0 c 2,40,-1
 47 0 l 1,41,42
 45 36 45 36 45 54 c 1,43,44
 67 62 67 62 110 73 c 128,-1,45
 153 84 153 84 175.5 93 c 128,-1,46
 198 102 198 102 225 120 c 0,47,48
 276 153 276 153 276 240 c 2,8,-1
EndSplineSet
EndChar

StartChar: ldot
Encoding: 320 320 242
Width: 852
GlyphClass: 2
Flags: W
LayerCount: 2
Fore
SplineSet
526 650.5 m 128,-1,1
 481 694 481 694 481 753.5 c 128,-1,2
 481 813 481 813 526 858 c 128,-1,3
 571 903 571 903 634 903 c 128,-1,4
 697 903 697 903 742 858 c 128,-1,5
 787 813 787 813 787 755.5 c 128,-1,6
 787 698 787 698 741.5 652.5 c 128,-1,7
 696 607 696 607 633.5 607 c 128,-1,0
 571 607 571 607 526 650.5 c 128,-1,1
198 228 m 2,8,-1
 197 1169 l 1,9,10
 175 1206 175 1206 68 1246 c 1,11,-1
 32 1258 l 1,12,-1
 34 1293 l 1,13,-1
 312 1369 l 1,14,-1
 384 1376 l 1,15,-1
 384 234 l 2,16,17
 384 179 384 179 389.5 144.5 c 128,-1,18
 395 110 395 110 421.5 93.5 c 128,-1,19
 448 77 448 77 485 67 c 128,-1,20
 522 57 522 57 533 50 c 1,21,-1
 531 0 l 1,22,-1
 39 0 l 1,23,24
 38 34 38 34 38 50 c 1,25,26
 51 59 51 59 90 69 c 0,27,28
 182 93 182 93 190 138 c 128,-1,29
 198 183 198 183 198 228 c 2,8,-1
EndSplineSet
EndChar

StartChar: Lslash
Encoding: 321 321 243
Width: 1272
GlyphClass: 2
Flags: W
LayerCount: 2
Fore
SplineSet
788 831 m 0,0,1
 831 831 831 831 831 787 c 0,2,3
 831 769 831 769 809 757 c 0,4,5
 782 742 782 742 718 716 c 2,6,-1
 491 624 l 1,7,-1
 491 136 l 2,8,9
 491 56 491 56 536 56 c 1,10,-1
 842 67 l 2,11,12
 909 69 909 69 940 96.5 c 128,-1,13
 971 124 971 124 998.5 235 c 128,-1,14
 1026 346 1026 346 1057 346 c 1,15,-1
 1081 341 l 1,16,-1
 1053 -20 l 1,17,18
 1050 -26 1050 -26 1045 -26 c 1,19,20
 955 0 955 0 886 0 c 2,21,-1
 50 0 l 1,22,23
 46 11 46 11 46 27 c 128,-1,24
 46 43 46 43 69.5 52 c 128,-1,25
 93 61 93 61 127 64 c 128,-1,26
 161 67 161 67 195 72 c 0,27,28
 276 82 276 82 276 142 c 2,29,-1
 276 537 l 1,30,-1
 243 524 l 1,31,32
 163 491 163 491 141.5 491 c 128,-1,33
 120 491 120 491 108 503.5 c 128,-1,34
 96 516 96 516 96 534 c 128,-1,35
 96 552 96 552 120.5 568.5 c 128,-1,36
 145 585 145 585 206 609 c 2,37,-1
 276 637 l 1,38,-1
 276 1038 l 2,39,40
 276 1075 276 1075 247 1093 c 128,-1,41
 218 1111 218 1111 181 1114 c 0,42,43
 76 1121 76 1121 48 1159 c 1,44,45
 48 1163 48 1163 52 1176 c 1,46,-1
 722 1176 l 1,47,48
 726 1167 726 1167 726 1157 c 0,49,50
 726 1125 726 1125 643 1120 c 0,51,52
 545 1114 545 1114 518 1095 c 128,-1,53
 491 1076 491 1076 491 1044 c 2,54,-1
 491 724 l 1,55,-1
 683 802 l 2,56,57
 756 831 756 831 788 831 c 0,0,1
EndSplineSet
EndChar

StartChar: lslash
Encoding: 322 322 244
Width: 578
GlyphClass: 2
Flags: W
LayerCount: 2
Fore
SplineSet
195 724 m 1,0,-1
 195 1122 l 2,1,2
 195 1152 195 1152 146 1171 c 128,-1,3
 97 1190 97 1190 48 1202.5 c 128,-1,4
 -1 1215 -1 1215 -1 1225.5 c 128,-1,5
 -1 1236 -1 1236 3 1244 c 1,6,-1
 402 1314 l 1,7,-1
 402 779 l 1,8,-1
 445 791 l 2,9,10
 506 808 506 808 548 808 c 128,-1,11
 590 808 590 808 590 767 c 0,12,13
 590 745 590 745 568.5 733.5 c 128,-1,14
 547 722 547 722 469 702 c 2,15,-1
 402 684 l 1,16,-1
 402 120 l 2,17,18
 402 89 402 89 430 72 c 128,-1,19
 458 55 458 55 491 52 c 0,20,21
 580 44 580 44 580 18 c 0,22,23
 580 8 580 8 576 0 c 1,24,-1
 16 0 l 1,25,26
 12 12 12 12 12 17 c 0,27,28
 12 48 12 48 104 58 c 0,29,30
 138 61 138 61 167 77.5 c 128,-1,31
 196 94 196 94 196 126 c 2,32,-1
 195 629 l 1,33,-1
 167 621 l 2,34,35
 94 601 94 601 64 601 c 0,36,37
 23 601 23 601 23 645 c 0,38,39
 23 664 23 664 47.5 677 c 128,-1,40
 72 690 72 690 141 709 c 2,41,-1
 195 724 l 1,0,-1
EndSplineSet
EndChar

StartChar: Eng
Encoding: 330 330 251
Width: 1482
GlyphClass: 2
Flags: W
LayerCount: 2
Fore
SplineSet
1211 1026 m 2,0,-1
 1211 117 l 2,1,2
 1211 -153 1211 -153 1114 -257 c 0,3,4
 1063 -312 1063 -312 999 -312 c 128,-1,5
 935 -312 935 -312 884.5 -273.5 c 128,-1,6
 834 -235 834 -235 834 -201 c 128,-1,7
 834 -167 834 -167 856 -146.5 c 128,-1,8
 878 -126 878 -126 912.5 -126 c 128,-1,9
 947 -126 947 -126 970 -143.5 c 128,-1,10
 993 -161 993 -161 993 -183.5 c 128,-1,11
 993 -206 993 -206 1007 -221.5 c 128,-1,12
 1021 -237 1021 -237 1037 -237 c 128,-1,13
 1053 -237 1053 -237 1067 -228.5 c 128,-1,14
 1081 -220 1081 -220 1096.5 -197.5 c 128,-1,15
 1112 -175 1112 -175 1124 -141 c 0,16,17
 1151 -60 1151 -60 1151 79 c 1,18,-1
 334 952 l 1,19,-1
 362 150 l 2,20,21
 364 79 364 79 446 67 c 0,22,23
 479 62 479 62 512 60 c 0,24,25
 593 55 593 55 593 20 c 0,26,27
 593 14 593 14 587 0 c 1,28,-1
 51 0 l 1,29,30
 47 8 47 8 47 22 c 0,31,32
 47 59 47 59 156 68 c 0,33,34
 198 72 198 72 238 94 c 128,-1,35
 278 116 278 116 288 157 c 1,36,-1
 288 1022 l 2,37,38
 288 1058 288 1058 257.5 1079.5 c 128,-1,39
 227 1101 227 1101 189 1108 c 0,40,41
 82 1126 82 1126 62 1158 c 1,42,-1
 66 1176 l 1,43,-1
 438 1176 l 1,44,-1
 1131 405 l 1,45,-1
 1131 1040 l 2,46,47
 1131 1093 1131 1093 1050 1110 c 0,48,49
 1016 1117 1016 1117 982 1122 c 0,50,51
 901 1134 901 1134 901 1158 c 0,52,53
 901 1163 901 1163 906 1176 c 1,54,-1
 1452 1176 l 1,55,56
 1456 1163 1456 1163 1456 1159 c 0,57,58
 1456 1139 1456 1139 1395 1129.5 c 128,-1,59
 1334 1120 1334 1120 1298 1112 c 0,60,61
 1211 1091 1211 1091 1211 1026 c 2,0,-1
EndSplineSet
EndChar

StartChar: eng
Encoding: 331 331 252
Width: 1211
GlyphClass: 2
Flags: W
LayerCount: 2
Fore
SplineSet
56 0 m 1,0,-1
 51 18 l 1,1,2
 51 37 51 37 111.5 48 c 128,-1,3
 172 59 172 59 194 73 c 128,-1,4
 216 87 216 87 216 126 c 2,5,-1
 216 732 l 2,6,7
 216 761 216 761 187 776 c 128,-1,8
 158 791 158 791 122 793 c 0,9,10
 29 798 29 798 29 824 c 0,11,12
 29 829 29 829 34 842 c 1,13,-1
 402 880 l 1,14,-1
 422 732 l 1,15,16
 554 902 554 902 731 902 c 0,17,18
 1077 902 1077 902 1077 463 c 2,19,-1
 1077 119 l 2,20,21
 1077 -137 1077 -137 933 -242 c 0,22,23
 858 -296 858 -296 773.5 -296 c 128,-1,24
 689 -296 689 -296 636 -266.5 c 128,-1,25
 583 -237 583 -237 583 -198 c 0,26,27
 583 -117 583 -117 658 -117 c 0,28,29
 717 -117 717 -117 730 -154 c 0,30,31
 736 -170 736 -170 740 -186 c 0,32,33
 748 -224 748 -224 781 -224 c 0,34,35
 829 -224 829 -224 858 -132 c 0,36,37
 881 -57 881 -57 881 82 c 2,38,-1
 881 431 l 2,39,40
 881 626 881 626 868.5 672.5 c 128,-1,41
 856 719 856 719 841.5 749.5 c 128,-1,42
 827 780 827 780 806 796 c 0,43,44
 757 833 757 833 684 833 c 0,45,46
 552 833 552 833 422 640 c 1,47,-1
 422 120 l 2,48,49
 422 89 422 89 451.5 72 c 128,-1,50
 481 55 481 55 516 52 c 0,51,52
 610 44 610 44 610 18 c 0,53,54
 610 8 610 8 606 0 c 1,55,-1
 56 0 l 1,0,-1
EndSplineSet
EndChar

StartChar: OE
Encoding: 338 338 259
Width: 2091
GlyphClass: 2
Flags: W
LayerCount: 2
Fore
SplineSet
325 718 m 0,0,1
 325 409 325 409 478 219 c 0,2,3
 589 80 589 80 769 80 c 0,4,5
 1028 80 1028 80 1067 101 c 1,6,7
 1067 632 1067 632 1062 1209 c 1,8,9
 947 1224 947 1224 725 1224 c 0,10,11
 544 1224 544 1224 434.5 1087.5 c 128,-1,12
 325 951 325 951 325 718 c 0,0,1
1149 1195 m 2,13,-1
 1154 718 l 1,14,15
 1534 720 1534 720 1644 732 c 1,16,17
 1690 744 1690 744 1714 796 c 0,18,19
 1723 816 1723 816 1736 849 c 128,-1,20
 1749 882 1749 882 1756 896 c 1,21,22
 1795 896 1795 896 1819 894 c 1,23,-1
 1819 460 l 1,24,25
 1788 457 1788 457 1756 457 c 1,26,27
 1708 585 1708 585 1670 612 c 1,28,29
 1631 642 1631 642 1518 642 c 2,30,-1
 1156 642 l 1,31,32
 1156 262 1156 262 1155 105 c 0,33,34
 1155 68 1155 68 1174 68 c 0,35,36
 1578 71 1578 71 1626 71.5 c 128,-1,37
 1674 72 1674 72 1737 86 c 128,-1,38
 1800 100 1800 100 1829.5 129 c 128,-1,39
 1859 158 1859 158 1874 190 c 0,40,41
 1919 285 1919 285 1962 322 c 1,42,43
 1997 322 1997 322 2021 320 c 1,44,-1
 1969 -21 l 1,45,46
 1937 -29 1937 -29 1924.5 -29 c 128,-1,47
 1912 -29 1912 -29 1873 -15 c 128,-1,48
 1834 -1 1834 -1 1810 -1 c 2,49,-1
 758 -1 l 2,50,51
 556 -1 556 -1 402.5 87 c 128,-1,52
 249 175 249 175 170 323.5 c 128,-1,53
 91 472 91 472 91 637.5 c 128,-1,54
 91 803 91 803 144 926 c 128,-1,55
 197 1049 197 1049 290 1130 c 1,56,57
 484 1302 484 1302 773 1302 c 2,58,-1
 1276 1302 l 1,59,-1
 1553 1301 l 2,60,61
 1728 1301 1728 1301 1846 1322 c 1,62,63
 1893 1322 1893 1322 1953 1319 c 1,64,-1
 1953 992 l 1,65,66
 1926 989 1926 989 1902 989 c 1,67,68
 1874 1017 1874 1017 1848.5 1082.5 c 128,-1,69
 1823 1148 1823 1148 1796 1176 c 128,-1,70
 1769 1204 1769 1204 1730 1211 c 128,-1,71
 1691 1218 1691 1218 1626.5 1222.5 c 128,-1,72
 1562 1227 1562 1227 1519 1228 c 0,73,74
 1433 1230 1433 1230 1260 1230 c 0,75,76
 1149 1230 1149 1230 1149 1195 c 2,13,-1
EndSplineSet
EndChar

StartChar: oe
Encoding: 339 339 260
Width: 1620
GlyphClass: 2
Flags: W
LayerCount: 2
Fore
SplineSet
967 590 m 1,0,-1
 1281 597 l 2,1,2
 1333 599 1333 599 1365 612 c 1,3,4
 1360 732 1360 732 1312.5 796 c 128,-1,5
 1265 860 1265 860 1175.5 860 c 128,-1,6
 1086 860 1086 860 1031.5 785.5 c 128,-1,7
 977 711 977 711 967 590 c 1,0,-1
286 504 m 0,8,9
 286 46 286 46 564 46 c 0,10,11
 736 46 736 46 778 268 c 0,12,13
 789 327 789 327 789 429 c 128,-1,14
 789 531 789 531 763.5 631.5 c 128,-1,15
 738 732 738 732 675.5 796 c 128,-1,16
 613 860 613 860 509.5 860 c 128,-1,17
 406 860 406 860 346 767.5 c 128,-1,18
 286 675 286 675 286 504 c 0,8,9
879 755 m 1,19,20
 998 928 998 928 1208 928 c 0,21,22
 1371 928 1371 928 1461 817.5 c 128,-1,23
 1551 707 1551 707 1556 529 c 1,24,-1
 966 529 l 1,25,26
 970 330 970 330 1048.5 225.5 c 128,-1,27
 1127 121 1127 121 1278 121 c 0,28,29
 1354 121 1354 121 1406 141 c 128,-1,30
 1458 161 1458 161 1517 205 c 1,31,32
 1535 197 1535 197 1547 183 c 1,33,34
 1529 122 1529 122 1474 74 c 1,35,36
 1362 -21 1362 -21 1217 -21 c 0,37,38
 999 -21 999 -21 879 154 c 1,39,40
 751 -21 751 -21 552 -21 c 128,-1,41
 353 -21 353 -21 220 111 c 128,-1,42
 87 243 87 243 87 451 c 0,43,44
 87 636 87 636 208 778 c 0,45,46
 266 845 266 845 352 885.5 c 128,-1,47
 438 926 438 926 539 926 c 0,48,49
 747 926 747 926 879 755 c 1,19,20
EndSplineSet
EndChar

StartChar: Tbar
Encoding: 358 358 277
Width: 1180
GlyphClass: 2
Flags: W
LayerCount: 2
Fore
SplineSet
979 1179 m 1,0,-1
 1072 1193 l 1,1,-1
 1100 1193 l 1,2,-1
 1145 872 l 1,3,4
 1137 868 1137 868 1127 868 c 0,5,6
 1103 868 1103 868 1076.5 956 c 128,-1,7
 1050 1044 1050 1044 1026.5 1077 c 128,-1,8
 1003 1110 1003 1110 958 1112 c 2,9,-1
 685 1120 l 1,10,-1
 685 699 l 1,11,-1
 888 699 l 1,12,-1
 888 627 l 1,13,-1
 685 627 l 1,14,-1
 685 124 l 2,15,16
 685 89 685 89 721.5 72.5 c 128,-1,17
 758 56 758 56 802 54 c 0,18,19
 919 51 919 51 919 17 c 0,20,21
 919 12 919 12 915 0 c 1,22,-1
 245 0 l 1,23,24
 241 7 241 7 241 18 c 0,25,26
 241 49 241 49 322 52 c 1,27,28
 416 57 416 57 443 77 c 128,-1,29
 470 97 470 97 470 130 c 2,30,-1
 470 627 l 1,31,-1
 256 627 l 1,32,-1
 256 699 l 1,33,-1
 470 699 l 1,34,-1
 470 1120 l 1,35,-1
 239 1112 l 2,36,37
 193 1111 193 1111 167 1076 c 128,-1,38
 141 1041 141 1041 110.5 954.5 c 128,-1,39
 80 868 80 868 57 868 c 0,40,41
 52 868 52 868 40 872 c 1,42,-1
 73 1189 l 1,43,-1
 109 1191 l 1,44,45
 135 1191 135 1191 172.5 1183 c 128,-1,46
 210 1175 210 1175 225 1173 c 1,47,-1
 979 1179 l 1,0,-1
EndSplineSet
EndChar

StartChar: tbar
Encoding: 359 359 278
Width: 656
GlyphClass: 2
Flags: W
LayerCount: 2
Fore
SplineSet
654 35 m 1,0,1
 536 -20 536 -20 410.5 -20 c 128,-1,2
 285 -20 285 -20 236 52.5 c 128,-1,3
 187 125 187 125 187 317 c 2,4,-1
 187 402 l 1,5,-1
 28 402 l 1,6,-1
 28 530 l 1,7,-1
 187 530 l 1,8,-1
 187 815 l 1,9,-1
 38 815 l 1,10,-1
 38 859 l 1,11,12
 132 898 132 898 166 932 c 128,-1,13
 200 966 200 966 211.5 977 c 128,-1,14
 223 988 223 988 242.5 1015 c 128,-1,15
 262 1042 262 1042 268.5 1051.5 c 128,-1,16
 275 1061 275 1061 295.5 1093 c 128,-1,17
 316 1125 316 1125 323.5 1137 c 128,-1,18
 331 1149 331 1149 349 1149 c 0,19,20
 372 1149 372 1149 372 1110 c 2,21,-1
 372 899 l 1,22,-1
 623 899 l 1,23,-1
 623 815 l 1,24,-1
 374 815 l 1,25,-1
 374 530 l 1,26,-1
 630 530 l 1,27,-1
 630 402 l 1,28,-1
 374 402 l 1,29,-1
 374 314 l 2,30,31
 374 177 374 177 382.5 156 c 128,-1,32
 391 135 391 135 400 120 c 128,-1,33
 409 105 409 105 424 100 c 0,34,35
 461 86 461 86 517.5 86 c 128,-1,36
 574 86 574 86 646 108 c 1,37,-1
 654 35 l 1,0,1
EndSplineSet
EndChar

StartChar: florin
Encoding: 402 402 296
Width: 952
GlyphClass: 2
Flags: W
LayerCount: 2
Fore
SplineSet
265 863 m 1,0,-1
 451 863 l 1,1,2
 508 1137 508 1137 604 1253 c 0,3,4
 643 1301 643 1301 705.5 1334 c 128,-1,5
 768 1367 768 1367 826 1367 c 128,-1,6
 884 1367 884 1367 919 1357.5 c 128,-1,7
 954 1348 954 1348 982 1321.5 c 128,-1,8
 1010 1295 1010 1295 1010 1257 c 128,-1,9
 1010 1219 1010 1219 984.5 1194.5 c 128,-1,10
 959 1170 959 1170 926.5 1170 c 128,-1,11
 894 1170 894 1170 876 1189.5 c 128,-1,12
 858 1209 858 1209 852 1232 c 0,13,14
 834 1294 834 1294 795 1294 c 0,15,16
 702 1294 702 1294 652 1008 c 0,17,18
 644 966 644 966 637 920 c 128,-1,19
 630 874 630 874 628 863 c 1,20,-1
 822 863 l 1,21,-1
 805 794 l 1,22,-1
 611 794 l 1,23,-1
 486 161 l 2,24,25
 390 -330 390 -330 88 -330 c 0,26,27
 -30 -330 -30 -330 -71 -274 c 0,28,29
 -88 -250 -88 -250 -88 -216.5 c 128,-1,30
 -88 -183 -88 -183 -63.5 -159 c 128,-1,31
 -39 -135 -39 -135 -8 -135 c 128,-1,32
 23 -135 23 -135 43 -154 c 128,-1,33
 63 -173 63 -173 72 -196 c 0,34,35
 98 -257 98 -257 135 -257 c 0,36,37
 189 -257 189 -257 222 -186 c 0,38,39
 250 -127 250 -127 275 -8 c 1,40,-1
 434 794 l 1,41,-1
 248 794 l 1,42,-1
 265 863 l 1,0,-1
EndSplineSet
EndChar

StartChar: uni0237
Encoding: 567 567 303
Width: 540
GlyphClass: 2
Flags: W
LayerCount: 2
Fore
SplineSet
201 88 m 1,0,-1
 201 710 l 1,1,2
 172 756 172 756 45 795 c 0,3,4
 41 797 41 797 39 797 c 1,5,-1
 39 832 l 1,6,-1
 319 911 l 1,7,-1
 387 918 l 1,8,-1
 387 125 l 2,9,10
 387 -87 387 -87 293.5 -187.5 c 128,-1,11
 200 -288 200 -288 14 -308 c 1,12,-1
 -1 -250 l 1,13,14
 93 -207 93 -207 127 -174 c 128,-1,15
 161 -141 161 -141 172 -106 c 0,16,17
 196 -35 196 -35 201 88 c 1,0,-1
EndSplineSet
EndChar

StartChar: circumflex
Encoding: 710 710 304
Width: 1032
GlyphClass: 2
Flags: W
LayerCount: 2
Fore
SplineSet
508 1350 m 1,0,1
 507 1349 507 1349 469 1307.5 c 128,-1,2
 431 1266 431 1266 400 1232.5 c 128,-1,3
 369 1199 369 1199 330 1158 c 0,4,5
 244 1068 244 1068 228.5 1068 c 128,-1,6
 213 1068 213 1068 213 1080 c 128,-1,7
 213 1092 213 1092 307 1280 c 128,-1,8
 401 1468 401 1468 422 1507 c 0,9,10
 458 1571 458 1571 508 1571 c 128,-1,11
 558 1571 558 1571 588 1516 c 128,-1,12
 618 1461 618 1461 710.5 1276.5 c 128,-1,13
 803 1092 803 1092 803 1080 c 128,-1,14
 803 1068 803 1068 786 1068 c 0,15,16
 766 1068 766 1068 547 1308 c 0,17,18
 509 1349 509 1349 508 1350 c 1,0,1
EndSplineSet
EndChar

StartChar: caron
Encoding: 711 711 305
Width: 1032
GlyphClass: 2
Flags: W
LayerCount: 2
Fore
SplineSet
599 674 m 1,0,1
 524 654 524 654 462 654 c 1,2,3
 423 686 423 686 344.5 826.5 c 128,-1,4
 266 967 266 967 237 1040 c 1,5,6
 245 1053 245 1053 273 1053 c 1,7,8
 322 1028 322 1028 378 967 c 128,-1,9
 434 906 434 906 475 860 c 128,-1,10
 516 814 516 814 527 802 c 1,11,12
 535 812 535 812 574.5 861.5 c 128,-1,13
 614 911 614 911 638 938 c 1,14,15
 710 1024 710 1024 756 1053 c 1,16,17
 784 1053 784 1053 792 1040 c 1,18,19
 753 945 753 945 717.5 882.5 c 128,-1,20
 682 820 682 820 648.5 761.5 c 128,-1,21
 615 703 615 703 599 674 c 1,0,1
EndSplineSet
EndChar

StartChar: breve
Encoding: 728 728 306
Width: 691
GlyphClass: 2
Flags: W
LayerCount: 2
Fore
SplineSet
100 914 m 1,0,-1
 157 914 l 1,1,2
 209 798 209 798 347 798 c 0,3,4
 415 798 415 798 466.5 826 c 128,-1,5
 518 854 518 854 535 914 c 1,6,-1
 593 914 l 1,7,8
 593 800 593 800 527 733.5 c 128,-1,9
 461 667 461 667 345.5 667 c 128,-1,10
 230 667 230 667 166.5 732 c 128,-1,11
 103 797 103 797 100 914 c 1,0,-1
EndSplineSet
EndChar

StartChar: dotaccent
Encoding: 729 729 307
Width: 691
GlyphClass: 2
Flags: W
LayerCount: 2
Fore
SplineSet
268.5 868 m 128,-1,1
 301 900 301 900 346 900 c 128,-1,2
 391 900 391 900 423 868 c 128,-1,3
 455 836 455 836 455 790.5 c 128,-1,4
 455 745 455 745 423 713.5 c 128,-1,5
 391 682 391 682 345.5 682 c 128,-1,6
 300 682 300 682 268 714 c 128,-1,7
 236 746 236 746 236 791 c 128,-1,0
 236 836 236 836 268.5 868 c 128,-1,1
EndSplineSet
EndChar

StartChar: ring
Encoding: 730 730 308
Width: 691
GlyphClass: 2
Flags: W
LayerCount: 2
Fore
SplineSet
346 1421 m 128,-1,1
 296 1421 296 1421 261.5 1386 c 128,-1,2
 227 1351 227 1351 227 1302.5 c 128,-1,3
 227 1254 227 1254 261.5 1219 c 128,-1,4
 296 1184 296 1184 346 1184 c 128,-1,5
 396 1184 396 1184 431 1219.5 c 128,-1,6
 466 1255 466 1255 466 1303 c 128,-1,7
 466 1351 466 1351 431 1386 c 128,-1,0
 396 1421 396 1421 346 1421 c 128,-1,1
346 1494 m 128,-1,9
 427 1494 427 1494 484 1437.5 c 128,-1,10
 541 1381 541 1381 541 1302.5 c 128,-1,11
 541 1224 541 1224 484 1167 c 128,-1,12
 427 1110 427 1110 345.5 1110 c 128,-1,13
 264 1110 264 1110 207.5 1166.5 c 128,-1,14
 151 1223 151 1223 151 1302 c 128,-1,15
 151 1381 151 1381 208 1437.5 c 128,-1,8
 265 1494 265 1494 346 1494 c 128,-1,9
EndSplineSet
EndChar

StartChar: ogonek
Encoding: 731 731 309
Width: 691
GlyphClass: 2
Flags: W
LayerCount: 2
Fore
SplineSet
575 -314 m 1,0,1
 470 -371 470 -371 382.5 -371 c 128,-1,2
 295 -371 295 -371 233 -322 c 128,-1,3
 171 -273 171 -273 171 -186 c 128,-1,4
 171 -99 171 -99 228 -46 c 128,-1,5
 285 7 285 7 375 23 c 1,6,7
 369 -1 369 -1 336 -50.5 c 128,-1,8
 303 -100 303 -100 303 -150.5 c 128,-1,9
 303 -201 303 -201 347 -232.5 c 128,-1,10
 391 -264 391 -264 443.5 -264 c 128,-1,11
 496 -264 496 -264 564 -234 c 1,12,-1
 575 -314 l 1,0,1
EndSplineSet
EndChar

StartChar: tilde
Encoding: 732 732 310
Width: 1121
GlyphClass: 2
Flags: W
LayerCount: 2
Fore
SplineSet
285 1131 m 1,0,-1
 247 1131 l 1,1,2
 253 1364 253 1364 407 1364 c 0,3,4
 455 1364 455 1364 516 1336.5 c 128,-1,5
 577 1309 577 1309 632 1281.5 c 128,-1,6
 687 1254 687 1254 719 1254 c 0,7,8
 786 1254 786 1254 805 1362 c 1,9,-1
 843 1362 l 1,10,11
 841 1245 841 1245 798.5 1183 c 128,-1,12
 756 1121 756 1121 695 1121 c 128,-1,13
 634 1121 634 1121 571 1150 c 128,-1,14
 508 1179 508 1179 452 1208 c 128,-1,15
 396 1237 396 1237 364 1237 c 0,16,17
 304 1237 304 1237 285 1131 c 1,0,-1
EndSplineSet
EndChar

StartChar: hungarumlaut
Encoding: 733 733 311
Width: 968
GlyphClass: 2
Flags: W
LayerCount: 2
Fore
SplineSet
821 1028 m 1,0,1
 804 992 804 992 687.5 825.5 c 128,-1,2
 571 659 571 659 550 642 c 1,3,4
 526 642 526 642 516 658 c 1,5,6
 520 684 520 684 586 866 c 128,-1,7
 652 1048 652 1048 670 1070 c 1,8,9
 740 1070 740 1070 821 1028 c 1,0,1
517 1027 m 1,10,11
 499 991 499 991 376 829 c 128,-1,12
 253 667 253 667 224 642 c 1,13,14
 203 642 203 642 192 656 c 1,15,16
 198 694 198 694 269 864.5 c 128,-1,17
 340 1035 340 1035 366 1070 c 1,18,19
 443 1070 443 1070 517 1027 c 1,10,11
EndSplineSet
EndChar

StartChar: uni0307
Encoding: 775 775 312
Width: 691
GlyphClass: 2
Flags: W
LayerCount: 2
Fore
SplineSet
268.5 868 m 128,-1,1
 301 900 301 900 346 900 c 128,-1,2
 391 900 391 900 423 868 c 128,-1,3
 455 836 455 836 455 790.5 c 128,-1,4
 455 745 455 745 423 713.5 c 128,-1,5
 391 682 391 682 345.5 682 c 128,-1,6
 300 682 300 682 268 714 c 128,-1,7
 236 746 236 746 236 791 c 128,-1,0
 236 836 236 836 268.5 868 c 128,-1,1
EndSplineSet
EndChar

StartChar: uni030F
Encoding: 783 783 313
Width: 968
GlyphClass: 2
Flags: W
LayerCount: 2
Fore
SplineSet
496 1027 m 1,0,1
 570 1070 570 1070 647 1070 c 1,2,3
 673 1035 673 1035 744 864.5 c 128,-1,4
 815 694 815 694 821 656 c 1,5,6
 810 642 810 642 789 642 c 1,7,8
 760 667 760 667 637 829 c 128,-1,9
 514 991 514 991 496 1027 c 1,0,1
192 1028 m 1,10,11
 272 1070 272 1070 343 1070 c 1,12,13
 361 1048 361 1048 427 866 c 128,-1,14
 493 684 493 684 497 658 c 1,15,16
 487 642 487 642 463 642 c 1,17,18
 442 659 442 659 325.5 825.5 c 128,-1,19
 209 992 209 992 192 1028 c 1,10,11
EndSplineSet
EndChar

StartChar: uni0311
Encoding: 785 785 314
Width: 691
GlyphClass: 2
Flags: W
LayerCount: 2
Fore
SplineSet
100 667 m 1,0,1
 103 784 103 784 166.5 849 c 128,-1,2
 230 914 230 914 345.5 914 c 128,-1,3
 461 914 461 914 527 847.5 c 128,-1,4
 593 781 593 781 593 667 c 1,5,-1
 535 667 l 1,6,7
 518 727 518 727 466.5 755 c 128,-1,8
 415 783 415 783 347 783 c 0,9,10
 209 783 209 783 157 667 c 1,11,-1
 100 667 l 1,0,1
EndSplineSet
EndChar

StartChar: uni0326
Encoding: 806 806 315
Width: 734
GlyphClass: 2
Flags: W
LayerCount: 2
Fore
SplineSet
250.5 -344 m 128,-1,1
 207 -302 207 -302 207 -240.5 c 128,-1,2
 207 -179 207 -179 250 -134.5 c 128,-1,3
 293 -90 293 -90 363 -90 c 128,-1,4
 433 -90 433 -90 479.5 -141 c 128,-1,5
 526 -192 526 -192 526 -312 c 0,6,7
 526 -376 526 -376 501.5 -429 c 128,-1,8
 477 -482 477 -482 440 -513 c 0,9,10
 362 -577 362 -577 290 -577 c 0,11,12
 248 -577 248 -577 248 -539 c 0,13,14
 248 -512 248 -512 310 -491 c 0,15,16
 334 -483 334 -483 353.5 -456 c 128,-1,17
 373 -429 373 -429 373 -386 c 1,18,0
 294 -386 294 -386 250.5 -344 c 128,-1,1
EndSplineSet
EndChar

StartChar: endash
Encoding: 8211 8211 316
Width: 929
GlyphClass: 2
Flags: W
LayerCount: 2
Fore
SplineSet
40 505 m 1,0,1
 118 525 118 525 268 525 c 2,2,-1
 831 525 l 1,3,4
 889 503 889 503 889 453 c 1,5,6
 826 435 826 435 710 435 c 2,7,-1
 98 435 l 2,8,9
 73 435 73 435 56.5 457.5 c 128,-1,10
 40 480 40 480 40 505 c 1,0,1
EndSplineSet
EndChar

StartChar: emdash
Encoding: 8212 8212 317
Width: 1649
GlyphClass: 2
Flags: W
LayerCount: 2
Fore
SplineSet
40 503 m 1,0,1
 169 525 169 525 393 525 c 2,2,-1
 1552 525 l 1,3,4
 1608 506 1608 506 1608 455 c 1,5,6
 1491 435 1491 435 1254 435 c 2,7,-1
 98 435 l 2,8,9
 74 435 74 435 57 457 c 128,-1,10
 40 479 40 479 40 503 c 1,0,1
EndSplineSet
EndChar

StartChar: quoteleft
Encoding: 8216 8216 318
Width: 544
GlyphClass: 2
Flags: W
LayerCount: 2
Fore
SplineSet
382 1327 m 1,0,1
 410 1304 410 1304 418 1271 c 1,2,3
 322 1220 322 1220 299 1202.5 c 128,-1,4
 276 1185 276 1185 266 1170 c 1,5,6
 239 1134 239 1134 239 1088 c 1,7,8
 270 1044 270 1044 325 1035 c 0,9,10
 430 1016 430 1016 430 922 c 0,11,12
 430 866 430 866 391.5 829 c 128,-1,13
 353 792 353 792 281.5 792 c 128,-1,14
 210 792 210 792 160 849.5 c 128,-1,15
 110 907 110 907 110 1009.5 c 128,-1,16
 110 1112 110 1112 184 1208.5 c 128,-1,17
 258 1305 258 1305 382 1327 c 1,0,1
EndSplineSet
EndChar

StartChar: quoteright
Encoding: 8217 8217 319
Width: 544
GlyphClass: 2
Flags: W
LayerCount: 2
Fore
SplineSet
165 793 m 1,0,1
 136 818 136 818 129 850 c 1,2,3
 142 857 142 857 171 872.5 c 128,-1,4
 200 888 200 888 214 896 c 128,-1,5
 228 904 228 904 249.5 920 c 128,-1,6
 271 936 271 936 282 950 c 0,7,8
 308 985 308 985 308 1033 c 1,9,10
 278 1076 278 1076 222 1085 c 0,11,12
 117 1103 117 1103 117 1199 c 0,13,14
 117 1254 117 1254 156.5 1291 c 128,-1,15
 196 1328 196 1328 267 1328 c 128,-1,16
 338 1328 338 1328 387.5 1271 c 128,-1,17
 437 1214 437 1214 437 1111 c 128,-1,18
 437 1008 437 1008 363 912 c 128,-1,19
 289 816 289 816 165 793 c 1,0,1
EndSplineSet
EndChar

StartChar: quotesinglbase
Encoding: 8218 8218 320
Width: 572
GlyphClass: 2
Flags: W
LayerCount: 2
Fore
SplineSet
195 -235 m 1,0,-1
 159 -179 l 1,1,2
 170 -173 170 -173 198.5 -158 c 128,-1,3
 227 -143 227 -143 240.5 -135 c 128,-1,4
 254 -127 254 -127 276.5 -111 c 128,-1,5
 299 -95 299 -95 310 -80 c 0,6,7
 338 -41 338 -41 338 4 c 1,8,9
 312 42 312 42 246 60 c 0,10,11
 181 77 181 77 164 104.5 c 128,-1,12
 147 132 147 132 147 180 c 128,-1,13
 147 228 147 228 187.5 264 c 128,-1,14
 228 300 228 300 299.5 300 c 128,-1,15
 371 300 371 300 419 240 c 128,-1,16
 467 180 467 180 467 76.5 c 128,-1,17
 467 -27 467 -27 390 -120.5 c 128,-1,18
 313 -214 313 -214 195 -235 c 1,0,-1
EndSplineSet
EndChar

StartChar: quotedblleft
Encoding: 8220 8220 321
Width: 962
GlyphClass: 2
Flags: W
LayerCount: 2
Fore
SplineSet
379 1327 m 1,0,1
 407 1304 407 1304 415 1271 c 1,2,3
 403 1264 403 1264 373.5 1248.5 c 128,-1,4
 344 1233 344 1233 330 1225 c 128,-1,5
 316 1217 316 1217 294.5 1201 c 128,-1,6
 273 1185 273 1185 262 1170 c 0,7,8
 236 1134 236 1134 236 1088 c 1,9,10
 267 1044 267 1044 322 1035 c 0,11,12
 427 1016 427 1016 427 922 c 0,13,14
 427 866 427 866 388 829 c 128,-1,15
 349 792 349 792 277.5 792 c 128,-1,16
 206 792 206 792 156.5 849.5 c 128,-1,17
 107 907 107 907 107 1009.5 c 128,-1,18
 107 1112 107 1112 181 1208.5 c 128,-1,19
 255 1305 255 1305 379 1327 c 1,0,1
804 1327 m 1,20,21
 832 1304 832 1304 840 1271 c 1,22,23
 828 1264 828 1264 798.5 1248.5 c 128,-1,24
 769 1233 769 1233 755 1225 c 128,-1,25
 741 1217 741 1217 719.5 1201 c 128,-1,26
 698 1185 698 1185 688 1170 c 1,27,28
 661 1134 661 1134 661 1088 c 1,29,30
 690 1045 690 1045 747 1035 c 0,31,32
 851 1016 851 1016 851 922 c 0,33,34
 851 866 851 866 812.5 829 c 128,-1,35
 774 792 774 792 703 792 c 128,-1,36
 632 792 632 792 582 849.5 c 128,-1,37
 532 907 532 907 532 1009.5 c 128,-1,38
 532 1112 532 1112 606 1208.5 c 128,-1,39
 680 1305 680 1305 804 1327 c 1,20,21
EndSplineSet
EndChar

StartChar: quotedblright
Encoding: 8221 8221 322
Width: 968
GlyphClass: 2
Flags: W
LayerCount: 2
Fore
SplineSet
162 793 m 1,0,1
 132 819 132 819 125 850 c 1,2,3
 138 857 138 857 167 872.5 c 128,-1,4
 196 888 196 888 210.5 896 c 128,-1,5
 225 904 225 904 246.5 920 c 128,-1,6
 268 936 268 936 278 950 c 0,7,8
 305 985 305 985 305 1033 c 1,9,10
 275 1076 275 1076 218 1085 c 0,11,12
 114 1103 114 1103 114 1199 c 0,13,14
 114 1254 114 1254 153 1291 c 128,-1,15
 192 1328 192 1328 263 1328 c 128,-1,16
 334 1328 334 1328 384 1271 c 128,-1,17
 434 1214 434 1214 434 1111 c 128,-1,18
 434 1008 434 1008 360 912 c 128,-1,19
 286 816 286 816 162 793 c 1,0,1
593 793 m 1,20,21
 564 818 564 818 557 850 c 1,22,23
 570 858 570 858 598.5 873 c 128,-1,24
 627 888 627 888 641.5 896 c 128,-1,25
 656 904 656 904 677 920 c 128,-1,26
 698 936 698 936 709 950 c 0,27,28
 736 984 736 984 736 1033 c 1,29,30
 706 1076 706 1076 650 1085 c 0,31,32
 546 1103 546 1103 546 1199 c 0,33,34
 546 1254 546 1254 584.5 1291 c 128,-1,35
 623 1328 623 1328 694 1328 c 128,-1,36
 765 1328 765 1328 815 1271 c 128,-1,37
 865 1214 865 1214 865 1111 c 128,-1,38
 865 1008 865 1008 791 912 c 128,-1,39
 717 816 717 816 593 793 c 1,20,21
EndSplineSet
EndChar

StartChar: quotedblbase
Encoding: 8222 8222 323
Width: 889
GlyphClass: 2
Flags: W
LayerCount: 2
Fore
SplineSet
135 -235 m 1,0,-1
 99 -179 l 1,1,2
 110 -173 110 -173 138.5 -158 c 128,-1,3
 167 -143 167 -143 180.5 -135 c 128,-1,4
 194 -127 194 -127 216.5 -111 c 128,-1,5
 239 -95 239 -95 250 -80 c 0,6,7
 278 -41 278 -41 278 4 c 1,8,9
 252 42 252 42 186 60 c 0,10,11
 121 77 121 77 104 104.5 c 128,-1,12
 87 132 87 132 87 180 c 128,-1,13
 87 228 87 228 127.5 264 c 128,-1,14
 168 300 168 300 239.5 300 c 128,-1,15
 311 300 311 300 359 240 c 128,-1,16
 407 180 407 180 407 76.5 c 128,-1,17
 407 -27 407 -27 330 -120.5 c 128,-1,18
 253 -214 253 -214 135 -235 c 1,0,-1
526 -235 m 1,19,-1
 490 -179 l 1,20,21
 501 -173 501 -173 529.5 -158 c 128,-1,22
 558 -143 558 -143 571.5 -135 c 128,-1,23
 585 -127 585 -127 607.5 -111 c 128,-1,24
 630 -95 630 -95 640 -80 c 0,25,26
 669 -41 669 -41 669 4 c 1,27,28
 643 42 643 42 576 60 c 0,29,30
 512 77 512 77 495 104.5 c 128,-1,31
 478 132 478 132 478 180 c 128,-1,32
 478 228 478 228 518.5 264 c 128,-1,33
 559 300 559 300 630.5 300 c 128,-1,34
 702 300 702 300 750 240 c 128,-1,35
 798 180 798 180 798 76.5 c 128,-1,36
 798 -27 798 -27 721 -120.5 c 128,-1,37
 644 -214 644 -214 526 -235 c 1,19,-1
EndSplineSet
EndChar

StartChar: dagger
Encoding: 8224 8224 324
Width: 1051
GlyphClass: 2
Flags: W
LayerCount: 2
Fore
SplineSet
113 896 m 0,0,1
 132 896 132 896 132 873 c 0,2,3
 132 849 132 849 151 846 c 2,4,-1
 468 801 l 1,5,-1
 418 1207 l 2,6,7
 413 1246 413 1246 392.5 1266.5 c 128,-1,8
 372 1287 372 1287 372 1290 c 0,9,10
 372 1312 372 1312 424 1312 c 2,11,-1
 620 1312 l 2,12,13
 672 1312 672 1312 672 1290 c 0,14,15
 672 1287 672 1287 662 1277 c 0,16,17
 631 1246 631 1246 626 1207 c 2,18,-1
 576 801 l 1,19,-1
 899 846 l 2,20,21
 916 849 916 849 919 872.5 c 128,-1,22
 922 896 922 896 938 896 c 0,23,24
 984 896 984 896 984 813 c 1,25,-1
 987 735 l 1,26,27
 987 618 987 618 939 618 c 0,28,29
 922 618 922 618 918 643 c 128,-1,30
 914 668 914 668 898 670 c 2,31,-1
 576 714 l 1,32,-1
 633 -118 l 2,33,34
 636 -157 636 -157 655.5 -177.5 c 128,-1,35
 675 -198 675 -198 675 -202 c 0,36,37
 675 -225 675 -225 625 -225 c 2,38,-1
 420 -225 l 2,39,40
 370 -225 370 -225 370 -202 c 0,41,42
 370 -198 370 -198 380 -188 c 0,43,44
 409 -157 409 -157 412 -118 c 2,45,-1
 468 714 l 1,46,-1
 151 669 l 2,47,48
 131 667 131 667 132 650 c 0,49,50
 134 617 134 617 112 617 c 0,51,52
 67 617 67 617 67 700 c 1,53,-1
 63 783 l 1,54,55
 63 896 63 896 113 896 c 0,0,1
EndSplineSet
EndChar

StartChar: bullet
Encoding: 8226 8226 325
Width: 736
GlyphClass: 2
Flags: W
LayerCount: 2
Fore
SplineSet
180.5 775 m 128,-1,1
 252 852 252 852 365.5 852 c 128,-1,2
 479 852 479 852 553.5 769 c 128,-1,3
 628 686 628 686 628 576 c 128,-1,4
 628 466 628 466 557 390.5 c 128,-1,5
 486 315 486 315 371 315 c 128,-1,6
 256 315 256 315 182.5 396.5 c 128,-1,7
 109 478 109 478 109 588 c 128,-1,0
 109 698 109 698 180.5 775 c 128,-1,1
EndSplineSet
EndChar

StartChar: ellipsis
Encoding: 8230 8230 326
Width: 1808
GlyphClass: 2
Flags: W
LayerCount: 2
Fore
SplineSet
303 251 m 128,-1,1
 360 251 360 251 400.5 211 c 128,-1,2
 441 171 441 171 441 116.5 c 128,-1,3
 441 62 441 62 400.5 21 c 128,-1,4
 360 -20 360 -20 303 -20 c 128,-1,5
 246 -20 246 -20 206 20 c 128,-1,6
 166 60 166 60 166 115.5 c 128,-1,7
 166 171 166 171 206 211 c 128,-1,0
 246 251 246 251 303 251 c 128,-1,1
905 251 m 128,-1,9
 962 251 962 251 1002.5 211 c 128,-1,10
 1043 171 1043 171 1043 116.5 c 128,-1,11
 1043 62 1043 62 1002.5 21 c 128,-1,12
 962 -20 962 -20 905 -20 c 128,-1,13
 848 -20 848 -20 808 20 c 128,-1,14
 768 60 768 60 768 115.5 c 128,-1,15
 768 171 768 171 808 211 c 128,-1,8
 848 251 848 251 905 251 c 128,-1,9
1506 251 m 128,-1,17
 1563 251 1563 251 1603.5 211 c 128,-1,18
 1644 171 1644 171 1644 116 c 128,-1,19
 1644 61 1644 61 1603.5 20.5 c 128,-1,20
 1563 -20 1563 -20 1506 -20 c 128,-1,21
 1449 -20 1449 -20 1409 20 c 128,-1,22
 1369 60 1369 60 1369 115.5 c 128,-1,23
 1369 171 1369 171 1409 211 c 128,-1,16
 1449 251 1449 251 1506 251 c 128,-1,17
EndSplineSet
EndChar

StartChar: guilsinglleft
Encoding: 8249 8249 327
Width: 539
GlyphClass: 2
Flags: W
LayerCount: 2
Fore
SplineSet
427 872 m 1,0,-1
 238 532 l 1,1,-1
 422 185 l 2,2,3
 442 149 442 149 452 110 c 1,4,5
 434 88 434 88 411 88 c 1,6,7
 381 108 381 108 350 149 c 2,8,-1
 56 532 l 1,9,-1
 356 910 l 2,10,11
 391 954 391 954 406 972 c 1,12,13
 442 972 442 972 460 946 c 1,14,15
 455 930 455 930 427 872 c 1,0,-1
EndSplineSet
EndChar

StartChar: guilsinglright
Encoding: 8250 8250 328
Width: 539
GlyphClass: 2
Flags: W
LayerCount: 2
Fore
SplineSet
87 110 m 1,0,1
 116 216 116 216 200.5 360.5 c 128,-1,2
 285 505 285 505 300 532 c 1,3,4
 285 559 285 559 228 651 c 0,5,6
 112 841 112 841 79 946 c 1,7,8
 96 972 96 972 132 972 c 1,9,10
 224 873 224 873 333.5 727 c 128,-1,11
 443 581 443 581 482 532 c 1,12,-1
 195 157 l 2,13,14
 158 109 158 109 128 88 c 1,15,16
 106 88 106 88 87 110 c 1,0,1
EndSplineSet
EndChar

StartChar: Euro
Encoding: 8364 8364 329
Width: 1179
GlyphClass: 2
Flags: W
LayerCount: 2
Fore
SplineSet
47 501 m 1,0,1
 51 551 51 551 113 570 c 1,2,-1
 181 570 l 1,3,4
 179 610 179 610 179 643.5 c 128,-1,5
 179 677 179 677 181 699 c 1,6,-1
 105 699 l 1,7,8
 56 718 56 718 56 757 c 0,9,10
 56 776 56 776 75 782.5 c 128,-1,11
 94 789 94 789 146 789 c 2,12,-1
 193 789 l 1,13,14
 230 999 230 999 352 1139 c 0,15,16
 484 1289 484 1289 694 1289 c 0,17,18
 851 1289 851 1289 1010 1177 c 1,19,20
 1051 1063 1051 1063 1078 940 c 1,21,-1
 954 940 l 1,22,23
 868 1213 868 1213 675 1213 c 0,24,25
 561 1213 561 1213 484.5 1100 c 128,-1,26
 408 987 408 987 389 789 c 1,27,-1
 572 789 l 2,28,29
 748 789 748 789 862 767 c 1,30,31
 858 741 858 741 843.5 726 c 128,-1,32
 829 711 829 711 791 699 c 1,33,-1
 383 699 l 1,34,-1
 383 658 l 2,35,36
 383 614 383 614 386 570 c 1,37,-1
 562 570 l 2,38,39
 736 570 736 570 838 549 c 1,40,41
 835 523 835 523 820 507.5 c 128,-1,42
 805 492 805 492 767 480 c 1,43,-1
 395 480 l 1,44,45
 431 226 431 226 559 119 c 0,46,47
 626 63 626 63 712.5 63 c 128,-1,48
 799 63 799 63 868.5 117.5 c 128,-1,49
 938 172 938 172 968 241 c 1,50,-1
 1084 209 l 1,51,52
 1041 118 1041 118 939 48 c 128,-1,53
 837 -22 837 -22 698 -22 c 0,54,55
 498 -22 498 -22 363.5 117.5 c 128,-1,56
 229 257 229 257 193 480 c 1,57,-1
 141 480 l 2,58,59
 62 480 62 480 47 501 c 1,0,1
EndSplineSet
EndChar

